<?xml version="1.0" encoding="utf-8" standalone="no"?>
<!DOCTYPE svg PUBLIC "-//W3C//DTD SVG 1.1//EN"
  "http://www.w3.org/Graphics/SVG/1.1/DTD/svg11.dtd">
<svg xmlns:xlink="http://www.w3.org/1999/xlink" width="1000.8pt" height="712.8pt" viewBox="0 0 1000.8 712.8" xmlns="http://www.w3.org/2000/svg" version="1.1">
 <metadata>
  <rdf:RDF xmlns:dc="http://purl.org/dc/elements/1.1/" xmlns:cc="http://creativecommons.org/ns#" xmlns:rdf="http://www.w3.org/1999/02/22-rdf-syntax-ns#">
   <cc:Work>
    <dc:type rdf:resource="http://purl.org/dc/dcmitype/StillImage"/>
    <dc:date>2025-09-28T15:33:33.260891</dc:date>
    <dc:format>image/svg+xml</dc:format>
    <dc:creator>
     <cc:Agent>
      <dc:title>Matplotlib v3.10.1, https://matplotlib.org/</dc:title>
     </cc:Agent>
    </dc:creator>
   </cc:Work>
  </rdf:RDF>
 </metadata>
 <defs>
  <style type="text/css">*{stroke-linejoin: round; stroke-linecap: butt}</style>
 </defs>
 <g id="figure_1">
  <g id="patch_1">
   <path d="M 0 712.8 
L 1000.8 712.8 
L 1000.8 0 
L 0 0 
z
" style="fill: #ffffff"/>
  </g>
  <g id="axes_1">
   <g id="patch_2">
    <path d="M 77.657143 129.42 
L 289.028571 129.42 
Q 296.074286 129.42 296.074286 123.6 
L 296.074286 36.3 
Q 296.074286 30.48 289.028571 30.48 
L 77.657143 30.48 
Q 70.611429 30.48 70.611429 36.3 
L 70.611429 123.6 
Q 70.611429 129.42 77.657143 129.42 
z
" clip-path="url(#paabfbfd817)" style="fill: #e8f4fd; stroke: #000000; stroke-width: 2; stroke-linejoin: miter"/>
   </g>
   <g id="patch_3">
    <path d="M 429.942857 100.32 
L 606.085714 100.32 
Q 613.131429 100.32 613.131429 94.5 
L 613.131429 36.3 
Q 613.131429 30.48 606.085714 30.48 
L 429.942857 30.48 
Q 422.897143 30.48 422.897143 36.3 
L 422.897143 94.5 
Q 422.897143 100.32 429.942857 100.32 
z
" clip-path="url(#paabfbfd817)" style="fill: #d1ecf1; stroke: #000000; stroke-linejoin: miter"/>
   </g>
   <g id="patch_4">
    <path d="M 711.771429 100.32 
L 887.914286 100.32 
Q 894.96 100.32 894.96 94.5 
L 894.96 36.3 
Q 894.96 30.48 887.914286 30.48 
L 711.771429 30.48 
Q 704.725714 30.48 704.725714 36.3 
L 704.725714 94.5 
Q 704.725714 100.32 711.771429 100.32 
z
" clip-path="url(#paabfbfd817)" style="fill: #d4edda; stroke: #000000; stroke-linejoin: miter"/>
   </g>
   <g id="patch_5">
    <path d="M 429.942857 216.72 
L 606.085714 216.72 
Q 613.131429 216.72 613.131429 210.9 
L 613.131429 152.7 
Q 613.131429 146.88 606.085714 146.88 
L 429.942857 146.88 
Q 422.897143 146.88 422.897143 152.7 
L 422.897143 210.9 
Q 422.897143 216.72 429.942857 216.72 
z
" clip-path="url(#paabfbfd817)" style="fill: #fff2cc; stroke: #000000; stroke-linejoin: miter"/>
   </g>
   <g id="patch_6">
    <path d="M 359.485714 362.22 
L 641.314286 362.22 
Q 648.36 362.22 648.36 356.4 
L 648.36 240 
Q 648.36 234.18 641.314286 234.18 
L 359.485714 234.18 
Q 352.44 234.18 352.44 240 
L 352.44 356.4 
Q 352.44 362.22 359.485714 362.22 
z
" clip-path="url(#paabfbfd817)" style="fill: #ffe6cc; stroke: #000000; stroke-width: 2; stroke-linejoin: miter"/>
   </g>
   <g id="patch_7">
    <path d="M 359.485714 478.62 
L 641.314286 478.62 
Q 648.36 478.62 648.36 472.8 
L 648.36 414.6 
Q 648.36 408.78 641.314286 408.78 
L 359.485714 408.78 
Q 352.44 408.78 352.44 414.6 
L 352.44 472.8 
Q 352.44 478.62 359.485714 478.62 
z
" clip-path="url(#paabfbfd817)" style="fill: #d4edda; stroke: #000000; stroke-linejoin: miter"/>
   </g>
   <g id="patch_8">
    <path d="M 359.485714 595.02 
L 641.314286 595.02 
Q 648.36 595.02 648.36 589.2 
L 648.36 531 
Q 648.36 525.18 641.314286 525.18 
L 359.485714 525.18 
Q 352.44 525.18 352.44 531 
L 352.44 589.2 
Q 352.44 595.02 359.485714 595.02 
z
" clip-path="url(#paabfbfd817)" style="fill: #f8d7da; stroke: #ff0000; stroke-width: 2; stroke-linejoin: miter"/>
   </g>
   <g id="patch_9">
    <path d="M 77.657143 595.02 
L 289.028571 595.02 
Q 296.074286 595.02 296.074286 589.2 
L 296.074286 531 
Q 296.074286 525.18 289.028571 525.18 
L 77.657143 525.18 
Q 70.611429 525.18 70.611429 531 
L 70.611429 589.2 
Q 70.611429 595.02 77.657143 595.02 
z
" clip-path="url(#paabfbfd817)" style="fill: #e6e6fa; stroke: #800080; stroke-width: 2; stroke-linejoin: miter"/>
   </g>
   <g id="text_1">
    <!-- 原始数据 -->
    <g transform="translate(163.342857 78.23125) scale(0.1 -0.1)">
     <defs>
      <path id="SimHei-539f" d="M 3850 4275 
Q 3675 4025 3600 3700 
L 5450 3700 
Q 5425 3475 5425 3000 
L 5425 2225 
Q 5425 1825 5450 1475 
L 4050 1475 
L 4050 -50 
Q 4050 -400 3825 -487 
Q 3600 -575 3100 -625 
Q 3050 -325 2925 -50 
Q 3400 -75 3475 -37 
Q 3550 0 3550 175 
L 3550 1475 
L 2125 1475 
Q 2150 1775 2150 2200 
L 2150 3025 
Q 2150 3425 2125 3700 
L 3150 3700 
Q 3300 4250 3300 4425 
L 3850 4275 
z
M 275 -325 
Q 725 275 875 1037 
Q 1025 1800 1025 2300 
L 1025 4125 
Q 1025 4650 1000 4900 
L 5025 4900 
Q 5575 4900 5800 4925 
L 5800 4475 
Q 5600 4500 5025 4500 
L 1525 4500 
L 1525 2375 
Q 1500 1650 1412 1112 
Q 1325 575 1137 125 
Q 950 -325 800 -575 
Q 550 -400 275 -325 
z
M 4925 2775 
L 4925 3325 
L 2625 3325 
L 2625 2775 
L 4925 2775 
z
M 4925 1875 
L 4925 2400 
L 2625 2400 
L 2625 1875 
L 4925 1875 
z
M 1475 -50 
Q 1800 150 2087 450 
Q 2375 750 2575 1100 
Q 2800 875 2975 750 
Q 2300 -50 1825 -400 
Q 1675 -225 1475 -50 
z
M 4825 1075 
Q 5700 300 5925 25 
Q 5750 -125 5575 -325 
Q 5250 75 4500 725 
Q 4675 925 4825 1075 
z
" transform="scale(0.015625)"/>
      <path id="SimHei-59cb" d="M 1750 5075 
Q 1650 4900 1587 4587 
Q 1525 4275 1475 3875 
L 2550 3875 
Q 2400 2150 1950 1100 
Q 2275 850 2725 425 
Q 2550 275 2375 50 
Q 2000 500 1750 675 
Q 1525 275 1250 -62 
Q 975 -400 700 -675 
Q 600 -525 250 -350 
Q 575 -125 862 200 
Q 1150 525 1375 975 
Q 800 1400 500 1550 
Q 875 2925 950 3425 
Q 650 3425 325 3400 
L 325 3900 
Q 675 3875 1025 3875 
Q 1175 4825 1175 5225 
Q 1550 5125 1750 5075 
z
M 5725 2050 
Q 5700 1650 5700 650 
Q 5700 -325 5725 -650 
L 5200 -650 
L 5200 -100 
L 3450 -100 
L 3450 -675 
L 2950 -675 
Q 2975 -300 2975 675 
Q 2975 1650 2950 2050 
L 5725 2050 
z
M 4400 4950 
Q 3750 3875 3250 3150 
Q 3875 3150 4250 3175 
Q 4625 3200 5200 3225 
Q 4875 3675 4625 3900 
Q 4825 4000 5025 4225 
Q 5750 3300 6125 2850 
Q 6000 2775 5725 2550 
Q 5575 2775 5450 2875 
Q 4575 2825 3937 2762 
Q 3300 2700 2825 2575 
Q 2775 2800 2600 3100 
Q 2875 3225 3237 3850 
Q 3600 4475 3825 5200 
Q 4025 5050 4400 4950 
z
M 5200 325 
L 5200 1600 
L 3450 1600 
L 3450 325 
L 5200 325 
z
M 1025 1775 
Q 1300 1550 1575 1400 
Q 1725 1725 1875 2337 
Q 2025 2950 2050 3425 
L 1400 3425 
Q 1300 2950 1025 1775 
z
" transform="scale(0.015625)"/>
      <path id="SimHei-6570" d="M 4525 4925 
Q 4475 4800 4400 4587 
Q 4325 4375 4175 3825 
L 5325 3825 
Q 5575 3825 5925 3850 
L 5925 3400 
Q 5650 3425 5500 3425 
Q 5500 3025 5362 2162 
Q 5225 1300 4875 675 
Q 5125 375 5437 137 
Q 5750 -100 6025 -200 
Q 5725 -425 5625 -625 
Q 5325 -450 5075 -225 
Q 4825 0 4575 325 
Q 4300 25 3987 -187 
Q 3675 -400 3200 -650 
Q 3075 -425 2850 -300 
Q 3225 -150 3650 125 
Q 4075 400 4300 675 
Q 4125 1025 3962 1425 
Q 3800 1825 3675 2475 
Q 3600 2275 3425 1950 
Q 3250 2050 3000 2150 
Q 3400 2850 3650 3675 
Q 3900 4500 3975 5100 
Q 4275 4975 4525 4925 
z
M 2100 2250 
Q 2000 2150 1875 1925 
L 3250 1925 
Q 3100 1300 2725 675 
Q 3125 525 3350 400 
Q 3225 225 3125 25 
Q 2900 175 2450 325 
Q 1950 -225 725 -650 
Q 600 -375 400 -275 
Q 1575 0 2000 475 
Q 1300 650 850 775 
Q 1000 1000 1250 1525 
Q 1000 1525 425 1500 
L 425 1950 
Q 900 1925 1400 1925 
Q 1500 2150 1550 2425 
Q 1825 2325 2100 2250 
z
M 1775 3950 
Q 1775 4550 1750 5100 
L 2250 5100 
Q 2225 4575 2225 3950 
Q 3075 3950 3425 3975 
L 3425 3525 
Q 3075 3550 2225 3550 
Q 2225 2825 2250 2425 
L 1750 2425 
Q 1775 2775 1775 3300 
Q 1650 3100 1300 2787 
Q 950 2475 650 2300 
Q 525 2525 275 2625 
Q 500 2700 875 2975 
Q 1250 3250 1450 3550 
Q 950 3550 500 3525 
L 500 3975 
Q 925 3950 1775 3950 
z
M 3975 3175 
Q 4200 1700 4600 1125 
Q 4850 1700 4937 2287 
Q 5025 2875 5050 3425 
L 4075 3425 
L 3975 3175 
z
M 1450 1000 
Q 1750 925 2275 800 
Q 2475 1050 2650 1525 
L 1725 1525 
Q 1600 1275 1450 1000 
z
M 3325 4825 
Q 3200 4625 3125 4450 
Q 3050 4275 2925 4025 
Q 2725 4125 2525 4175 
Q 2725 4500 2900 5000 
Q 3150 4875 3325 4825 
z
M 2575 3375 
Q 2900 3050 3200 2725 
Q 3050 2600 2875 2425 
Q 2525 2850 2300 3100 
Q 2450 3225 2575 3375 
z
M 925 5000 
Q 1275 4650 1500 4300 
L 1125 4075 
Q 950 4425 600 4725 
Q 825 4875 925 5000 
z
" transform="scale(0.015625)"/>
      <path id="SimHei-636e" d="M 5750 4775 
Q 5725 4550 5725 4225 
L 5725 3900 
Q 5725 3450 5750 3250 
L 3100 3250 
L 3100 2500 
L 4250 2500 
Q 4250 2725 4225 3175 
L 4700 3175 
Q 4675 2775 4675 2500 
L 5350 2500 
Q 5800 2500 6100 2525 
L 6100 2075 
Q 5800 2100 5375 2100 
L 4675 2100 
L 4675 1425 
L 5775 1425 
Q 5750 950 5750 800 
L 5750 175 
Q 5750 -225 5775 -575 
L 5325 -575 
L 5325 -225 
L 3675 -225 
L 3675 -600 
L 3225 -600 
Q 3250 -325 3250 100 
L 3250 825 
Q 3250 1075 3225 1425 
L 4250 1425 
L 4250 2100 
L 3075 2100 
Q 3050 1375 2887 737 
Q 2725 100 2425 -475 
Q 2200 -325 1950 -250 
Q 2250 150 2387 600 
Q 2525 1050 2600 1562 
Q 2675 2075 2675 2625 
L 2675 3575 
Q 2675 3975 2650 4775 
L 5750 4775 
z
M 1275 4425 
Q 1275 4775 1250 5075 
L 1750 5075 
Q 1725 4800 1725 4425 
L 1725 3775 
Q 1975 3775 2500 3800 
L 2500 3375 
Q 1975 3400 1725 3400 
L 1725 2450 
Q 2050 2625 2400 2850 
Q 2425 2650 2525 2475 
Q 2050 2200 1725 2000 
L 1725 175 
Q 1725 -300 1487 -400 
Q 1250 -500 775 -575 
Q 725 -325 600 -50 
Q 1025 -50 1150 -12 
Q 1275 25 1275 325 
L 1275 1800 
Q 900 1600 525 1325 
Q 450 1525 275 1800 
Q 775 1975 1275 2250 
L 1275 3400 
Q 800 3400 350 3375 
L 350 3800 
Q 800 3775 1275 3775 
L 1275 4425 
z
M 5300 3625 
L 5300 4400 
L 3100 4400 
L 3100 3625 
L 5300 3625 
z
M 5325 150 
L 5325 1075 
L 3675 1075 
L 3675 150 
L 5325 150 
z
" transform="scale(0.015625)"/>
     </defs>
     <use xlink:href="#SimHei-539f"/>
     <use xlink:href="#SimHei-59cb" transform="translate(100 0)"/>
     <use xlink:href="#SimHei-6570" transform="translate(200 0)"/>
     <use xlink:href="#SimHei-636e" transform="translate(300 0)"/>
    </g>
    <!-- (90,168 × 14) -->
    <g transform="translate(148.342857 88.3875) scale(0.1 -0.1)">
     <defs>
      <path id="SimHei-28" d="M 2975 -200 
L 2700 -475 
Q 2075 125 1762 775 
Q 1450 1425 1450 2250 
Q 1450 3075 1762 3725 
Q 2075 4375 2700 5000 
L 2975 4725 
Q 2400 4175 2112 3587 
Q 1825 3000 1825 2250 
Q 1825 1500 2112 912 
Q 2400 325 2975 -200 
z
" transform="scale(0.015625)"/>
      <path id="SimHei-39" d="M 800 75 
Q 1350 1000 1700 1750 
Q 1075 1650 662 1912 
Q 250 2175 162 2625 
Q 75 3075 175 3437 
Q 275 3800 487 4037 
Q 700 4275 1000 4375 
Q 1300 4475 1537 4475 
Q 1775 4475 2025 4375 
Q 2275 4275 2475 4075 
Q 2675 3875 2750 3662 
Q 2825 3450 2825 3112 
Q 2825 2775 2575 2250 
Q 2325 1725 1350 75 
L 800 75 
z
M 662 2875 
Q 700 2550 937 2337 
Q 1175 2125 1450 2150 
Q 1725 2175 1887 2300 
Q 2050 2425 2200 2725 
Q 2300 3100 2250 3362 
Q 2200 3625 1987 3800 
Q 1775 3975 1525 3975 
Q 1375 4000 1137 3900 
Q 900 3800 762 3500 
Q 625 3200 662 2875 
z
" transform="scale(0.015625)"/>
      <path id="SimHei-30" d="M 225 2537 
Q 250 3200 412 3587 
Q 575 3975 875 4225 
Q 1175 4475 1612 4475 
Q 2050 4475 2375 4112 
Q 2700 3750 2800 3200 
Q 2900 2650 2862 1937 
Q 2825 1225 2612 775 
Q 2400 325 1975 150 
Q 1550 -25 1125 187 
Q 700 400 525 750 
Q 350 1100 275 1487 
Q 200 1875 225 2537 
z
M 750 2687 
Q 675 2000 800 1462 
Q 925 925 1212 700 
Q 1500 475 1800 612 
Q 2100 750 2237 1162 
Q 2375 1575 2375 2062 
Q 2375 2550 2337 2950 
Q 2300 3350 2112 3675 
Q 1925 4000 1612 4012 
Q 1300 4025 1062 3700 
Q 825 3375 750 2687 
z
" transform="scale(0.015625)"/>
      <path id="SimHei-2c" d="M 1100 125 
L 775 -550 
L 525 -550 
L 775 125 
L 525 125 
L 525 675 
L 1100 675 
L 1100 125 
z
" transform="scale(0.015625)"/>
      <path id="SimHei-31" d="M 1400 3600 
Q 1075 3275 575 2975 
L 575 3450 
Q 1200 3875 1600 4450 
L 1900 4450 
L 1900 150 
L 1400 150 
L 1400 3600 
z
" transform="scale(0.015625)"/>
      <path id="SimHei-36" d="M 250 1612 
Q 275 1975 387 2225 
Q 500 2475 725 2850 
L 1750 4450 
L 2325 4450 
L 1275 2800 
Q 1950 2975 2350 2750 
Q 2750 2525 2887 2237 
Q 3025 1950 3037 1612 
Q 3050 1275 2937 950 
Q 2825 625 2537 362 
Q 2250 100 1737 75 
Q 1225 50 862 262 
Q 500 475 362 862 
Q 225 1250 250 1612 
z
M 1025 787 
Q 1250 550 1625 525 
Q 2000 500 2250 775 
Q 2500 1050 2500 1575 
Q 2500 2100 2187 2300 
Q 1875 2500 1487 2450 
Q 1100 2400 925 2075 
Q 750 1750 775 1387 
Q 800 1025 1025 787 
z
" transform="scale(0.015625)"/>
      <path id="SimHei-38" d="M 175 1375 
Q 175 1675 325 1962 
Q 475 2250 825 2425 
Q 525 2600 425 2812 
Q 325 3025 312 3300 
Q 300 3575 387 3775 
Q 475 3975 650 4150 
Q 825 4325 1037 4387 
Q 1250 4450 1500 4450 
Q 1750 4450 1950 4400 
Q 2150 4350 2375 4187 
Q 2600 4025 2700 3725 
Q 2800 3425 2687 3025 
Q 2575 2625 2100 2400 
Q 2525 2275 2700 2012 
Q 2875 1750 2875 1375 
Q 2875 1000 2762 775 
Q 2650 550 2512 400 
Q 2375 250 2137 162 
Q 1900 75 1537 75 
Q 1175 75 912 162 
Q 650 250 475 425 
Q 300 600 237 837 
Q 175 1075 175 1375 
z
M 687 1400 
Q 675 1100 787 875 
Q 900 650 1200 587 
Q 1500 525 1825 600 
Q 2150 675 2275 950 
Q 2400 1225 2362 1500 
Q 2325 1775 2050 1962 
Q 1775 2150 1450 2125 
Q 1125 2100 912 1900 
Q 700 1700 687 1400 
z
M 775 3350 
Q 775 3100 950 2875 
Q 1125 2650 1500 2650 
Q 1875 2650 2062 2875 
Q 2250 3100 2237 3412 
Q 2225 3725 2012 3875 
Q 1800 4025 1437 4000 
Q 1075 3975 925 3787 
Q 775 3600 775 3350 
z
" transform="scale(0.015625)"/>
      <path id="SimHei-20" transform="scale(0.015625)"/>
      <path id="SimHei-d7" d="M 1450 4375 
L 3150 2625 
L 4875 4375 
L 5125 4050 
L 3450 2325 
L 5125 600 
L 4875 300 
L 3150 2050 
L 1475 300 
L 1450 300 
L 1200 600 
L 2900 2350 
L 1200 4075 
L 1450 4375 
z
" transform="scale(0.015625)"/>
      <path id="SimHei-34" d="M 2000 1100 
L 75 1100 
L 75 1525 
L 2100 4450 
L 2475 4450 
L 2475 1525 
L 3075 1525 
L 3075 1100 
L 2475 1100 
L 2475 150 
L 2000 150 
L 2000 1100 
z
M 2000 1525 
L 2000 3500 
L 600 1525 
L 2000 1525 
z
" transform="scale(0.015625)"/>
      <path id="SimHei-29" d="M 1675 2250 
Q 1675 1425 1362 775 
Q 1050 125 425 -475 
L 150 -200 
Q 725 325 1012 912 
Q 1300 1500 1300 2250 
Q 1300 3000 1012 3587 
Q 725 4175 150 4725 
L 425 5000 
Q 1050 4375 1362 3725 
Q 1675 3075 1675 2250 
z
" transform="scale(0.015625)"/>
     </defs>
     <use xlink:href="#SimHei-28"/>
     <use xlink:href="#SimHei-39" transform="translate(50 0)"/>
     <use xlink:href="#SimHei-30" transform="translate(100 0)"/>
     <use xlink:href="#SimHei-2c" transform="translate(150 0)"/>
     <use xlink:href="#SimHei-31" transform="translate(200 0)"/>
     <use xlink:href="#SimHei-36" transform="translate(250 0)"/>
     <use xlink:href="#SimHei-38" transform="translate(300 0)"/>
     <use xlink:href="#SimHei-20" transform="translate(350 0)"/>
     <use xlink:href="#SimHei-d7" transform="translate(400 0)"/>
     <use xlink:href="#SimHei-20" transform="translate(500 0)"/>
     <use xlink:href="#SimHei-31" transform="translate(550 0)"/>
     <use xlink:href="#SimHei-34" transform="translate(600 0)"/>
     <use xlink:href="#SimHei-29" transform="translate(650 0)"/>
    </g>
   </g>
   <g id="text_2">
    <!-- 输入特征 -->
    <g transform="translate(498.014286 63.454687) scale(0.1 -0.1)">
     <defs>
      <path id="SimHei-8f93" d="M 3225 3650 
Q 2725 3100 2550 2950 
L 4100 2950 
Q 4075 2675 4075 2275 
L 4075 -100 
Q 4100 -325 3962 -425 
Q 3825 -525 3475 -600 
Q 3400 -350 3225 -100 
Q 3650 -100 3650 25 
L 3650 675 
L 2975 675 
L 2975 -575 
L 2525 -575 
Q 2550 -125 2550 325 
L 2550 2075 
Q 2550 2500 2525 2925 
L 2375 2800 
Q 2200 3000 1950 3100 
Q 2575 3525 3025 4087 
Q 3475 4650 3775 5300 
Q 4075 5150 4325 5100 
L 4225 4975 
Q 4700 4325 5225 3975 
Q 5750 3625 6200 3475 
Q 5975 3275 5825 3025 
Q 5275 3300 4875 3650 
L 4875 3350 
L 3225 3350 
L 3225 3650 
z
M 2225 825 
Q 1975 775 1725 675 
Q 1725 -100 1750 -650 
L 1275 -650 
Q 1300 -100 1300 575 
Q 725 425 475 325 
Q 400 575 250 825 
Q 650 875 1300 1025 
L 1300 1975 
Q 700 1925 400 1800 
L 225 2225 
Q 425 2350 600 2850 
Q 775 3350 875 3825 
Q 625 3825 350 3800 
L 350 4250 
Q 675 4225 950 4225 
Q 1050 4700 1075 5175 
Q 1400 5075 1675 5025 
Q 1525 4850 1400 4225 
Q 1925 4225 2300 4250 
L 2300 3800 
Q 1850 3825 1325 3825 
Q 1075 2900 825 2325 
L 1300 2375 
Q 1300 2700 1275 3125 
L 1750 3125 
Q 1725 2900 1725 2425 
L 2150 2475 
L 2150 2075 
L 1725 2025 
L 1725 1125 
L 2225 1250 
L 2225 825 
z
M 5775 2925 
Q 5750 2525 5750 2150 
L 5750 -100 
Q 5750 -375 5625 -475 
Q 5500 -575 5000 -675 
Q 4950 -450 4750 -175 
Q 5300 -200 5325 0 
L 5325 2100 
Q 5325 2500 5300 2925 
L 5775 2925 
z
M 4975 2700 
Q 4950 2400 4950 2000 
L 4950 900 
Q 4950 425 4975 125 
L 4475 125 
Q 4500 500 4500 875 
L 4500 2000 
Q 4500 2350 4475 2700 
L 4975 2700 
z
M 4750 3750 
Q 4450 4025 3975 4675 
Q 3575 4075 3300 3750 
L 4750 3750 
z
M 3650 2000 
L 3650 2575 
L 2975 2575 
L 2975 2000 
L 3650 2000 
z
M 3650 1075 
L 3650 1625 
L 2975 1625 
L 2975 1075 
L 3650 1075 
z
" transform="scale(0.015625)"/>
      <path id="SimHei-5165" d="M 5650 -375 
Q 5050 25 4500 650 
Q 3950 1275 3275 3050 
Q 2575 975 675 -475 
Q 575 -225 225 50 
Q 1850 825 2975 3525 
Q 2900 3725 2525 4125 
Q 2150 4525 1750 4675 
Q 2025 4900 2175 5125 
Q 2800 4650 3175 4225 
Q 3550 3800 4125 2375 
Q 4700 950 6125 250 
Q 5775 0 5650 -375 
z
" transform="scale(0.015625)"/>
      <path id="SimHei-7279" d="M 4050 3150 
L 4050 4050 
L 3675 4050 
Q 3275 4050 2975 4025 
L 2975 4475 
Q 3250 4450 3675 4450 
L 4050 4450 
Q 4050 4950 4000 5200 
L 4525 5200 
Q 4500 4950 4500 4450 
L 5075 4450 
Q 5450 4450 5800 4475 
L 5800 4025 
Q 5550 4050 5075 4050 
L 4500 4050 
L 4500 3150 
L 5450 3150 
Q 5825 3150 6150 3175 
L 6150 2725 
Q 5850 2750 5500 2750 
L 5275 2750 
L 5275 2000 
Q 5825 2000 6100 2025 
L 6100 1550 
Q 5800 1575 5275 1575 
L 5275 -75 
Q 5250 -375 5050 -487 
Q 4850 -600 4275 -675 
Q 4225 -375 4075 -100 
Q 4525 -125 4675 -100 
Q 4825 -75 4825 150 
L 4825 1575 
L 3600 1575 
Q 3175 1575 2850 1550 
L 2850 2025 
Q 3125 2000 3600 2000 
L 4825 2000 
L 4825 2750 
L 3575 2750 
Q 3125 2750 2775 2725 
L 2775 3175 
Q 3125 3150 3550 3150 
L 4050 3150 
z
M 1150 4275 
Q 1050 4125 950 3600 
L 1500 3600 
L 1500 4425 
Q 1500 4800 1475 5200 
L 2000 5200 
Q 1950 4825 1950 4425 
L 1950 3600 
Q 2300 3600 2600 3625 
L 2600 3175 
Q 2325 3200 1950 3200 
L 1950 2075 
Q 2275 2200 2575 2325 
Q 2600 2125 2650 1900 
Q 2375 1800 1950 1625 
L 1950 225 
Q 1950 -175 1975 -650 
L 1475 -650 
Q 1500 -200 1500 225 
L 1500 1450 
Q 850 1200 550 1025 
Q 450 1275 275 1550 
Q 600 1575 1500 1925 
L 1500 3200 
L 850 3200 
Q 750 2775 675 2450 
Q 425 2550 225 2600 
Q 350 2950 462 3487 
Q 575 4025 600 4400 
Q 900 4325 1150 4275 
z
M 3600 1200 
Q 3800 750 3975 325 
Q 3750 275 3500 150 
Q 3325 675 3125 1025 
Q 3375 1100 3600 1200 
z
" transform="scale(0.015625)"/>
      <path id="SimHei-5f81" d="M 5050 4650 
Q 5575 4650 5975 4675 
L 5975 4175 
Q 5575 4200 5050 4200 
L 4450 4200 
L 4450 2625 
L 5000 2625 
Q 5475 2625 5875 2650 
L 5875 2175 
Q 5475 2200 5000 2200 
L 4450 2200 
L 4450 200 
L 5100 200 
Q 5575 200 6125 225 
L 6125 -250 
Q 5575 -225 5100 -225 
L 2875 -225 
Q 2275 -225 1875 -250 
L 1875 225 
Q 2225 200 2650 200 
L 2650 2100 
Q 2650 2475 2625 2925 
L 3175 2925 
Q 3150 2500 3150 2100 
L 3150 200 
L 3925 200 
L 3925 4200 
L 3425 4200 
Q 2850 4200 2425 4175 
L 2425 4675 
Q 2850 4650 3425 4650 
L 5050 4650 
z
M 2250 3450 
Q 2100 3225 1625 2575 
L 1625 450 
Q 1625 -100 1650 -700 
L 1100 -700 
Q 1125 -100 1125 450 
L 1125 2000 
Q 825 1600 550 1300 
Q 425 1550 225 1725 
Q 675 2150 1062 2650 
Q 1450 3150 1725 3775 
Q 1950 3625 2250 3450 
z
M 250 3675 
Q 675 3975 1025 4412 
Q 1375 4850 1550 5275 
Q 1825 5125 2125 4975 
Q 1900 4725 1487 4212 
Q 1075 3700 675 3275 
Q 475 3475 250 3675 
z
" transform="scale(0.015625)"/>
     </defs>
     <use xlink:href="#SimHei-8f93"/>
     <use xlink:href="#SimHei-5165" transform="translate(100 0)"/>
     <use xlink:href="#SimHei-7279" transform="translate(200 0)"/>
     <use xlink:href="#SimHei-5f81" transform="translate(300 0)"/>
    </g>
    <!-- (8维) -->
    <g transform="translate(505.514286 74.220312) scale(0.1 -0.1)">
     <defs>
      <path id="SimHei-7ef4" d="M 3700 5075 
Q 3575 4900 3475 4637 
Q 3375 4375 3300 4150 
L 4900 4150 
Q 5400 4150 5800 4175 
L 5800 3725 
Q 5375 3750 4900 3750 
L 4650 3750 
L 4650 2900 
Q 5250 2900 5625 2925 
L 5625 2475 
Q 5250 2500 4650 2500 
L 4650 1600 
Q 5275 1600 5650 1625 
L 5650 1200 
Q 5275 1225 4650 1225 
L 4650 325 
L 5050 325 
Q 5550 325 6050 350 
L 6050 -75 
Q 5550 -50 5050 -50 
L 3250 -50 
L 3250 -625 
L 2775 -625 
Q 2800 -150 2800 650 
L 2800 3075 
Q 2650 2700 2475 2375 
Q 2225 2550 2050 2650 
Q 2275 2975 2450 3312 
Q 2625 3650 2837 4250 
Q 3050 4850 3100 5250 
Q 3375 5150 3700 5075 
z
M 1750 5000 
Q 1525 4775 1300 4225 
Q 1075 3675 825 3150 
Q 1175 3200 1525 3225 
Q 1775 3775 1825 4100 
L 2375 3900 
Q 2225 3725 1950 3200 
Q 1675 2675 1125 1575 
L 2250 1725 
Q 2150 1425 2125 1250 
Q 1800 1250 1387 1187 
Q 975 1125 575 1000 
Q 475 1300 425 1525 
Q 650 1625 875 1987 
Q 1100 2350 1325 2800 
Q 1050 2775 812 2737 
Q 575 2700 400 2625 
Q 325 2825 200 3125 
Q 425 3275 687 3875 
Q 950 4475 1150 5175 
Q 1425 5075 1750 5000 
z
M 2475 650 
Q 2450 400 2450 200 
Q 2000 125 1450 12 
Q 900 -100 450 -275 
Q 350 0 250 300 
Q 750 350 1187 412 
Q 1625 475 2475 650 
z
M 4200 1600 
L 4200 2500 
L 3250 2500 
L 3250 1600 
L 4200 1600 
z
M 4200 325 
L 4200 1225 
L 3250 1225 
L 3250 325 
L 4200 325 
z
M 4200 2900 
L 4200 3750 
L 3250 3750 
L 3250 2900 
L 4200 2900 
z
M 4500 5225 
Q 4600 5075 4900 4475 
Q 4700 4400 4475 4275 
Q 4350 4575 4100 4975 
L 4500 5225 
z
" transform="scale(0.015625)"/>
     </defs>
     <use xlink:href="#SimHei-28"/>
     <use xlink:href="#SimHei-38" transform="translate(50 0)"/>
     <use xlink:href="#SimHei-7ef4" transform="translate(100 0)"/>
     <use xlink:href="#SimHei-29" transform="translate(200 0)"/>
    </g>
   </g>
   <g id="text_3">
    <!-- 输出标签 -->
    <g transform="translate(779.842857 63.435156) scale(0.1 -0.1)">
     <defs>
      <path id="SimHei-51fa" d="M 1475 4550 
Q 1450 4225 1450 3950 
L 1450 2950 
L 2925 2950 
L 2925 4425 
Q 2925 4775 2900 5125 
L 3425 5125 
Q 3400 4825 3400 4425 
L 3400 2950 
L 4900 2950 
L 4900 3875 
Q 4900 4275 4875 4525 
L 5400 4525 
Q 5375 4275 5375 3850 
L 5375 3175 
Q 5375 2775 5400 2525 
L 3400 2525 
L 3400 225 
L 5125 225 
L 5125 1275 
Q 5125 1650 5100 1925 
L 5625 1925 
Q 5600 1650 5600 1300 
L 5600 175 
Q 5600 -325 5625 -650 
L 5125 -650 
L 5125 -200 
L 675 -200 
Q 700 100 700 525 
L 700 1275 
Q 700 1700 675 1950 
L 1200 1950 
Q 1175 1700 1175 1275 
L 1175 225 
L 2925 225 
L 2925 2525 
L 950 2525 
Q 975 2775 975 3150 
L 975 3925 
Q 975 4250 950 4550 
L 1475 4550 
z
" transform="scale(0.015625)"/>
      <path id="SimHei-6807" d="M 1275 4400 
Q 1275 4800 1250 5175 
L 1750 5175 
Q 1725 4825 1725 4400 
L 1725 3800 
Q 2125 3800 2575 3825 
L 2575 3350 
Q 2125 3375 1725 3375 
L 1725 2525 
Q 1900 2650 2075 2800 
Q 2400 2275 2650 1775 
Q 2375 1650 2175 1500 
Q 2025 2000 1725 2425 
L 1725 475 
Q 1725 -50 1750 -575 
L 1250 -575 
Q 1275 -25 1275 475 
L 1275 2100 
Q 1025 1400 500 750 
Q 350 950 125 1125 
Q 550 1550 812 2187 
Q 1075 2825 1150 3375 
Q 675 3375 325 3325 
L 325 3825 
Q 800 3800 1275 3800 
L 1275 4400 
z
M 5175 3125 
Q 5675 3125 6050 3150 
L 6050 2675 
Q 5675 2700 5275 2700 
L 4500 2700 
L 4500 175 
Q 4500 -225 4275 -350 
Q 4050 -475 3475 -550 
Q 3425 -250 3275 25 
Q 3775 25 3900 62 
Q 4025 100 4025 350 
L 4025 2700 
L 3400 2700 
Q 2775 2700 2500 2650 
L 2500 3150 
Q 2825 3125 3400 3125 
L 5175 3125 
z
M 4900 4775 
Q 5425 4775 5750 4800 
L 5750 4300 
Q 5275 4350 4750 4350 
L 3525 4350 
Q 3125 4350 2750 4300 
L 2750 4800 
Q 3100 4775 3525 4775 
L 4900 4775 
z
M 5275 2025 
Q 5825 1175 6200 500 
Q 5925 375 5650 200 
Q 5375 925 4825 1725 
Q 5075 1850 5275 2025 
z
M 3600 1775 
Q 3500 1625 3225 975 
Q 2950 325 2800 50 
Q 2575 175 2300 275 
Q 2625 775 2787 1187 
Q 2950 1600 3050 2000 
Q 3325 1875 3600 1775 
z
" transform="scale(0.015625)"/>
      <path id="SimHei-7b7e" d="M 5950 1650 
Q 4975 1925 4625 2100 
L 4625 1650 
Q 4175 1675 3750 1675 
L 2775 1675 
Q 2325 1675 1850 1650 
L 1850 2075 
Q 1175 1725 600 1550 
Q 500 1850 250 2050 
Q 1400 2300 2087 2812 
Q 2775 3325 2950 3725 
Q 3200 3625 3550 3550 
L 3450 3425 
Q 4075 2850 4862 2537 
Q 5650 2225 6200 2225 
Q 5975 1975 5950 1650 
z
M 1525 -525 
Q 1100 -525 625 -550 
L 625 -75 
Q 1125 -100 1500 -100 
L 3825 -100 
Q 3975 200 4150 650 
Q 4325 1100 4425 1475 
Q 4700 1350 5025 1275 
Q 4850 1125 4700 762 
Q 4550 400 4350 -100 
Q 5025 -100 5725 -75 
L 5725 -550 
Q 5025 -525 4675 -525 
L 1525 -525 
z
M 3250 4275 
Q 2750 4300 2350 4300 
Q 2450 4025 2575 3750 
Q 2275 3675 2075 3575 
Q 2025 3875 1900 4300 
L 1625 4300 
Q 1200 3750 800 3400 
Q 600 3625 325 3750 
Q 900 4100 1187 4550 
Q 1475 5000 1575 5300 
Q 1825 5200 2150 5100 
Q 1975 4950 1875 4725 
L 2650 4725 
Q 2950 4725 3250 4750 
L 3250 4275 
z
M 5300 3675 
Q 5050 3575 4825 3475 
Q 4775 3850 4625 4250 
L 4150 4250 
Q 3875 3900 3650 3625 
Q 3425 3800 3175 3875 
Q 3525 4175 3737 4525 
Q 3950 4875 4100 5275 
Q 4325 5150 4625 5075 
Q 4475 4900 4375 4650 
L 5300 4650 
Q 5550 4650 6000 4675 
L 6000 4225 
Q 5325 4250 5050 4250 
Q 5150 4025 5300 3675 
z
M 1950 2125 
Q 2350 2100 2775 2100 
L 3750 2100 
Q 4175 2100 4575 2125 
Q 3875 2425 3150 3150 
Q 2800 2650 1950 2125 
z
M 3025 200 
Q 2950 650 2725 1325 
Q 2925 1350 3175 1425 
Q 3275 1125 3475 300 
Q 3225 275 3025 200 
z
M 1825 1275 
Q 2150 675 2275 275 
Q 2075 225 1875 100 
Q 1775 500 1425 1075 
Q 1550 1150 1825 1275 
z
" transform="scale(0.015625)"/>
     </defs>
     <use xlink:href="#SimHei-8f93"/>
     <use xlink:href="#SimHei-51fa" transform="translate(100 0)"/>
     <use xlink:href="#SimHei-6807" transform="translate(200 0)"/>
     <use xlink:href="#SimHei-7b7e" transform="translate(300 0)"/>
    </g>
    <!-- (6维) -->
    <g transform="translate(787.342857 74.200781) scale(0.1 -0.1)">
     <use xlink:href="#SimHei-28"/>
     <use xlink:href="#SimHei-36" transform="translate(50 0)"/>
     <use xlink:href="#SimHei-7ef4" transform="translate(100 0)"/>
     <use xlink:href="#SimHei-29" transform="translate(200 0)"/>
    </g>
   </g>
   <g id="text_4">
    <!-- 标准化 -->
    <g transform="translate(503.014286 180.092969) scale(0.1 -0.1)">
     <defs>
      <path id="SimHei-51c6" d="M 1600 2775 
Q 1900 3050 2275 3787 
Q 2650 4525 2800 5175 
Q 3075 5050 3400 4950 
Q 3250 4775 3000 4100 
L 4825 4100 
Q 5400 4100 5875 4125 
L 5875 3675 
Q 5375 3700 4825 3700 
L 4525 3700 
L 4525 2850 
Q 5250 2850 5700 2875 
L 5700 2425 
Q 5250 2450 4525 2450 
L 4525 1600 
Q 5275 1600 5700 1625 
L 5700 1200 
Q 5275 1225 4525 1225 
L 4525 375 
Q 5575 375 6050 400 
L 6050 -100 
Q 5575 -75 4975 -75 
L 2950 -75 
L 2950 -600 
L 2425 -600 
Q 2450 -150 2450 675 
L 2450 3050 
Q 2300 2775 2075 2400 
Q 1875 2650 1600 2775 
z
M 1675 2050 
Q 1425 1425 1200 850 
Q 975 275 775 -125 
Q 550 50 275 200 
Q 550 650 775 1112 
Q 1000 1575 1225 2300 
Q 1400 2125 1675 2050 
z
M 4025 1600 
L 4025 2450 
L 2950 2450 
L 2950 1600 
L 4025 1600 
z
M 4025 2850 
L 4025 3700 
L 2950 3700 
L 2950 2850 
L 4025 2850 
z
M 4025 375 
L 4025 1225 
L 2950 1225 
L 2950 375 
L 4025 375 
z
M 725 4775 
Q 850 4625 1162 4312 
Q 1475 4000 1750 3700 
Q 1525 3475 1375 3300 
Q 1100 3700 350 4450 
Q 550 4600 725 4775 
z
M 4150 5225 
Q 4600 4800 4800 4500 
Q 4625 4400 4400 4200 
Q 4225 4500 3775 4925 
Q 3925 5000 4150 5225 
z
" transform="scale(0.015625)"/>
      <path id="SimHei-5316" d="M 3925 5025 
Q 3900 4900 3900 4400 
L 3900 2625 
Q 4375 3025 4775 3450 
Q 5175 3875 5400 4300 
Q 5600 4100 5900 3925 
Q 5700 3700 5225 3212 
Q 4750 2725 4487 2512 
Q 4225 2300 3900 2025 
L 3900 450 
Q 3900 50 4225 50 
L 5200 50 
Q 5400 75 5462 262 
Q 5525 450 5575 850 
Q 5800 650 6150 600 
Q 6000 -100 5825 -250 
Q 5650 -400 5350 -400 
L 3950 -400 
Q 3425 -400 3400 200 
L 3400 1675 
Q 3225 1525 2962 1350 
Q 2700 1175 2375 975 
Q 2225 1225 2025 1400 
Q 2350 1550 2737 1787 
Q 3125 2025 3400 2250 
L 3400 4500 
Q 3400 4800 3375 5025 
L 3925 5025 
z
M 2400 4850 
Q 2175 4550 2075 4337 
Q 1975 4125 1825 3775 
L 1825 675 
Q 1825 -75 1850 -550 
L 1325 -550 
Q 1350 -125 1350 650 
L 1350 3050 
Q 1125 2725 962 2525 
Q 800 2325 675 2175 
Q 500 2375 275 2525 
Q 625 2850 875 3212 
Q 1125 3575 1312 3912 
Q 1500 4250 1625 4575 
Q 1750 4900 1825 5100 
Q 1975 4975 2400 4850 
z
" transform="scale(0.015625)"/>
     </defs>
     <use xlink:href="#SimHei-6807"/>
     <use xlink:href="#SimHei-51c6" transform="translate(100 0)"/>
     <use xlink:href="#SimHei-5316" transform="translate(200 0)"/>
    </g>
    <!-- (StandardScaler) -->
    <g transform="translate(478.014286 190.108594) scale(0.1 -0.1)">
     <defs>
      <path id="SimHei-53" d="M 2900 1325 
Q 2900 750 2537 412 
Q 2175 75 1550 75 
Q 925 75 575 425 
Q 225 775 225 1300 
L 225 1475 
L 800 1475 
L 800 1325 
Q 800 950 1025 750 
Q 1250 550 1550 550 
Q 1950 550 2137 762 
Q 2325 975 2325 1275 
Q 2325 1525 2100 1737 
Q 1875 1950 1450 2125 
Q 850 2350 587 2625 
Q 325 2900 325 3275 
Q 325 3800 687 4125 
Q 1050 4450 1550 4450 
Q 2200 4450 2487 4062 
Q 2775 3675 2775 3225 
L 2200 3225 
Q 2225 3500 2050 3725 
Q 1875 3950 1550 3950 
Q 1250 3950 1075 3787 
Q 900 3625 900 3350 
Q 900 3125 1037 2962 
Q 1175 2800 1750 2575 
Q 2300 2350 2600 2037 
Q 2900 1725 2900 1325 
z
" transform="scale(0.015625)"/>
      <path id="SimHei-74" d="M 2750 200 
Q 2625 150 2462 112 
Q 2300 75 2025 75 
Q 1575 75 1300 325 
Q 1025 575 1025 1025 
L 1025 2525 
L 175 2525 
L 175 2925 
L 1025 2925 
L 1025 3900 
L 1525 3900 
L 1525 2925 
L 2550 2925 
L 2550 2525 
L 1525 2525 
L 1525 1000 
Q 1525 800 1625 662 
Q 1725 525 2000 525 
Q 2275 525 2450 575 
Q 2625 625 2750 700 
L 2750 200 
z
" transform="scale(0.015625)"/>
      <path id="SimHei-61" d="M 2875 125 
L 2275 125 
Q 2225 175 2200 262 
Q 2175 350 2175 475 
Q 2000 275 1750 175 
Q 1500 75 1225 75 
Q 825 75 550 275 
Q 275 475 275 850 
Q 275 1225 525 1450 
Q 775 1675 1300 1750 
Q 1650 1800 1912 1875 
Q 2175 1950 2175 2075 
Q 2175 2225 2062 2375 
Q 1950 2525 1575 2525 
Q 1275 2525 1137 2412 
Q 1000 2300 950 2100 
L 400 2100 
Q 450 2500 762 2737 
Q 1075 2975 1575 2975 
Q 2125 2975 2400 2725 
Q 2675 2475 2675 2025 
L 2675 650 
Q 2675 500 2725 375 
Q 2775 250 2875 125 
z
M 2175 1050 
L 2175 1550 
Q 2025 1500 1887 1462 
Q 1750 1425 1425 1375 
Q 1050 1325 937 1200 
Q 825 1075 825 900 
Q 825 750 937 637 
Q 1050 525 1275 525 
Q 1500 525 1762 650 
Q 2025 775 2175 1050 
z
" transform="scale(0.015625)"/>
      <path id="SimHei-6e" d="M 2800 125 
L 2300 125 
L 2300 1925 
Q 2300 2225 2150 2400 
Q 2000 2575 1750 2575 
Q 1425 2575 1137 2237 
Q 850 1900 850 1400 
L 850 125 
L 350 125 
L 350 2925 
L 850 2925 
L 850 2400 
Q 1050 2675 1287 2825 
Q 1525 2975 1900 2975 
Q 2350 2975 2575 2725 
Q 2800 2475 2800 2100 
L 2800 125 
z
" transform="scale(0.015625)"/>
      <path id="SimHei-64" d="M 2750 125 
L 2250 125 
L 2250 500 
Q 2100 275 1900 175 
Q 1700 75 1425 75 
Q 925 75 575 437 
Q 225 800 225 1525 
Q 225 2250 575 2625 
Q 925 3000 1425 3000 
Q 1700 3000 1900 2887 
Q 2100 2775 2250 2550 
L 2250 4400 
L 2750 4400 
L 2750 125 
z
M 2250 1525 
Q 2250 2000 2037 2275 
Q 1825 2550 1525 2550 
Q 1150 2550 962 2275 
Q 775 2000 775 1525 
Q 775 1050 962 787 
Q 1150 525 1525 525 
Q 1825 525 2037 787 
Q 2250 1050 2250 1525 
z
" transform="scale(0.015625)"/>
      <path id="SimHei-72" d="M 2500 2425 
Q 2025 2500 1700 2287 
Q 1375 2075 1150 1550 
L 1150 125 
L 650 125 
L 650 2925 
L 1150 2925 
L 1150 2200 
Q 1375 2600 1712 2787 
Q 2050 2975 2500 2975 
L 2500 2425 
z
" transform="scale(0.015625)"/>
      <path id="SimHei-63" d="M 2850 1250 
Q 2850 725 2487 400 
Q 2125 75 1575 75 
Q 1025 75 625 462 
Q 225 850 225 1525 
Q 225 2200 625 2587 
Q 1025 2975 1575 2975 
Q 2125 2975 2450 2687 
Q 2775 2400 2775 2000 
L 2225 2000 
Q 2200 2300 2012 2412 
Q 1825 2525 1575 2525 
Q 1275 2525 1025 2287 
Q 775 2050 775 1525 
Q 775 1000 1025 762 
Q 1275 525 1575 525 
Q 1900 525 2100 700 
Q 2300 875 2300 1250 
L 2850 1250 
z
" transform="scale(0.015625)"/>
      <path id="SimHei-6c" d="M 1825 125 
L 1325 125 
L 1325 4400 
L 1825 4400 
L 1825 125 
z
" transform="scale(0.015625)"/>
      <path id="SimHei-65" d="M 2850 1075 
Q 2800 625 2450 350 
Q 2100 75 1625 75 
Q 1025 75 637 462 
Q 250 850 250 1525 
Q 250 2200 637 2587 
Q 1025 2975 1625 2975 
Q 2150 2975 2487 2637 
Q 2825 2300 2825 1525 
L 800 1525 
Q 800 975 1037 750 
Q 1275 525 1625 525 
Q 1900 525 2075 662 
Q 2250 800 2300 1075 
L 2850 1075 
z
M 2250 1925 
Q 2200 2275 2025 2412 
Q 1850 2550 1575 2550 
Q 1325 2550 1125 2412 
Q 925 2275 825 1925 
L 2250 1925 
z
" transform="scale(0.015625)"/>
     </defs>
     <use xlink:href="#SimHei-28"/>
     <use xlink:href="#SimHei-53" transform="translate(50 0)"/>
     <use xlink:href="#SimHei-74" transform="translate(100 0)"/>
     <use xlink:href="#SimHei-61" transform="translate(150 0)"/>
     <use xlink:href="#SimHei-6e" transform="translate(200 0)"/>
     <use xlink:href="#SimHei-64" transform="translate(250 0)"/>
     <use xlink:href="#SimHei-61" transform="translate(300 0)"/>
     <use xlink:href="#SimHei-72" transform="translate(350 0)"/>
     <use xlink:href="#SimHei-64" transform="translate(400 0)"/>
     <use xlink:href="#SimHei-53" transform="translate(450 0)"/>
     <use xlink:href="#SimHei-63" transform="translate(500 0)"/>
     <use xlink:href="#SimHei-61" transform="translate(550 0)"/>
     <use xlink:href="#SimHei-6c" transform="translate(600 0)"/>
     <use xlink:href="#SimHei-65" transform="translate(650 0)"/>
     <use xlink:href="#SimHei-72" transform="translate(700 0)"/>
     <use xlink:href="#SimHei-29" transform="translate(750 0)"/>
    </g>
   </g>
   <g id="text_5">
    <!-- Physics-Informed -->
    <g transform="translate(452.4 295.921875) scale(0.12 -0.12)">
     <defs>
      <path id="SimHei-50" d="M 2950 3100 
Q 2950 2500 2600 2150 
Q 2250 1800 1625 1800 
L 900 1800 
L 900 125 
L 325 125 
L 325 4400 
L 1625 4400 
Q 2250 4400 2600 4050 
Q 2950 3700 2950 3100 
z
M 2375 3100 
Q 2375 3575 2150 3750 
Q 1925 3925 1475 3925 
L 900 3925 
L 900 2275 
L 1475 2275 
Q 1925 2275 2150 2450 
Q 2375 2625 2375 3100 
z
" transform="scale(0.015625)"/>
      <path id="SimHei-68" d="M 2800 125 
L 2300 125 
L 2300 1925 
Q 2300 2225 2150 2400 
Q 2000 2575 1750 2575 
Q 1425 2575 1137 2237 
Q 850 1900 850 1400 
L 850 125 
L 350 125 
L 350 4400 
L 850 4400 
L 850 2400 
Q 1050 2675 1287 2825 
Q 1525 2975 1900 2975 
Q 2350 2975 2575 2725 
Q 2800 2475 2800 2100 
L 2800 125 
z
" transform="scale(0.015625)"/>
      <path id="SimHei-79" d="M 2900 2925 
L 1750 -100 
Q 1650 -450 1450 -625 
Q 1250 -800 950 -800 
Q 825 -800 712 -787 
Q 600 -775 500 -725 
L 500 -225 
Q 600 -275 700 -300 
Q 800 -325 875 -325 
Q 1075 -325 1150 -262 
Q 1225 -200 1300 25 
L 200 2925 
L 750 2925 
L 1550 725 
L 1575 725 
L 2350 2925 
L 2900 2925 
z
" transform="scale(0.015625)"/>
      <path id="SimHei-73" d="M 2750 900 
Q 2750 500 2437 287 
Q 2125 75 1650 75 
Q 1050 75 725 312 
Q 400 550 400 1000 
L 900 1000 
Q 900 700 1112 600 
Q 1325 500 1625 500 
Q 1925 500 2075 612 
Q 2225 725 2225 900 
Q 2225 1025 2100 1150 
Q 1975 1275 1475 1350 
Q 900 1425 687 1637 
Q 475 1850 475 2200 
Q 475 2500 762 2737 
Q 1050 2975 1600 2975 
Q 2100 2975 2387 2750 
Q 2675 2525 2675 2150 
L 2175 2150 
Q 2175 2375 2012 2462 
Q 1850 2550 1600 2550 
Q 1275 2550 1137 2437 
Q 1000 2325 1000 2175 
Q 1000 2000 1125 1900 
Q 1250 1800 1650 1750 
Q 2300 1650 2525 1437 
Q 2750 1225 2750 900 
z
" transform="scale(0.015625)"/>
      <path id="SimHei-69" d="M 1800 3725 
L 1300 3725 
L 1300 4375 
L 1800 4375 
L 1800 3725 
z
M 1800 125 
L 1300 125 
L 1300 2925 
L 1800 2925 
L 1800 125 
z
" transform="scale(0.015625)"/>
      <path id="SimHei-2d" d="M 2975 2125 
L 125 2125 
L 125 2525 
L 2975 2525 
L 2975 2125 
z
" transform="scale(0.015625)"/>
      <path id="SimHei-49" d="M 1850 125 
L 1275 125 
L 1275 4400 
L 1850 4400 
L 1850 125 
z
" transform="scale(0.015625)"/>
      <path id="SimHei-66" d="M 2850 3825 
Q 2725 3900 2550 3950 
Q 2375 4000 2100 4000 
Q 1825 4000 1725 3862 
Q 1625 3725 1625 3525 
L 1625 2925 
L 2650 2925 
L 2650 2525 
L 1625 2525 
L 1625 125 
L 1125 125 
L 1125 2525 
L 275 2525 
L 275 2925 
L 1125 2925 
L 1125 3500 
Q 1125 3950 1400 4200 
Q 1675 4450 2125 4450 
Q 2400 4450 2562 4412 
Q 2725 4375 2850 4325 
L 2850 3825 
z
" transform="scale(0.015625)"/>
      <path id="SimHei-6f" d="M 2925 1525 
Q 2925 875 2525 475 
Q 2125 75 1575 75 
Q 1025 75 625 475 
Q 225 875 225 1525 
Q 225 2175 625 2575 
Q 1025 2975 1575 2975 
Q 2125 2975 2525 2575 
Q 2925 2175 2925 1525 
z
M 2375 1525 
Q 2375 2025 2125 2275 
Q 1875 2525 1575 2525 
Q 1275 2525 1025 2275 
Q 775 2025 775 1525 
Q 775 1025 1025 775 
Q 1275 525 1575 525 
Q 1875 525 2125 775 
Q 2375 1025 2375 1525 
z
" transform="scale(0.015625)"/>
      <path id="SimHei-6d" d="M 3050 125 
L 2550 125 
L 2550 2150 
Q 2550 2300 2500 2400 
Q 2450 2500 2300 2500 
Q 2125 2500 1975 2312 
Q 1825 2125 1825 1825 
L 1825 125 
L 1325 125 
L 1325 2150 
Q 1325 2300 1275 2400 
Q 1225 2500 1075 2500 
Q 900 2500 750 2312 
Q 600 2125 600 1825 
L 600 125 
L 100 125 
L 100 2925 
L 600 2925 
L 600 2550 
Q 725 2750 900 2862 
Q 1075 2975 1275 2975 
Q 1475 2975 1612 2862 
Q 1750 2750 1800 2550 
Q 1925 2750 2087 2862 
Q 2250 2975 2450 2975 
Q 2750 2975 2900 2812 
Q 3050 2650 3050 2350 
L 3050 125 
z
" transform="scale(0.015625)"/>
     </defs>
     <use xlink:href="#SimHei-50"/>
     <use xlink:href="#SimHei-68" transform="translate(50 0)"/>
     <use xlink:href="#SimHei-79" transform="translate(100 0)"/>
     <use xlink:href="#SimHei-73" transform="translate(150 0)"/>
     <use xlink:href="#SimHei-69" transform="translate(200 0)"/>
     <use xlink:href="#SimHei-63" transform="translate(250 0)"/>
     <use xlink:href="#SimHei-73" transform="translate(300 0)"/>
     <use xlink:href="#SimHei-2d" transform="translate(350 0)"/>
     <use xlink:href="#SimHei-49" transform="translate(400 0)"/>
     <use xlink:href="#SimHei-6e" transform="translate(450 0)"/>
     <use xlink:href="#SimHei-66" transform="translate(500 0)"/>
     <use xlink:href="#SimHei-6f" transform="translate(550 0)"/>
     <use xlink:href="#SimHei-72" transform="translate(600 0)"/>
     <use xlink:href="#SimHei-6d" transform="translate(650 0)"/>
     <use xlink:href="#SimHei-65" transform="translate(700 0)"/>
     <use xlink:href="#SimHei-64" transform="translate(750 0)"/>
    </g>
    <!-- Transformer -->
    <g transform="translate(467.4 307.321875) scale(0.12 -0.12)">
     <defs>
      <path id="SimHei-54" d="M 2850 3925 
L 1850 3925 
L 1850 125 
L 1275 125 
L 1275 3925 
L 275 3925 
L 275 4400 
L 2850 4400 
L 2850 3925 
z
" transform="scale(0.015625)"/>
     </defs>
     <use xlink:href="#SimHei-54"/>
     <use xlink:href="#SimHei-72" transform="translate(50 0)"/>
     <use xlink:href="#SimHei-61" transform="translate(100 0)"/>
     <use xlink:href="#SimHei-6e" transform="translate(150 0)"/>
     <use xlink:href="#SimHei-73" transform="translate(200 0)"/>
     <use xlink:href="#SimHei-66" transform="translate(250 0)"/>
     <use xlink:href="#SimHei-6f" transform="translate(300 0)"/>
     <use xlink:href="#SimHei-72" transform="translate(350 0)"/>
     <use xlink:href="#SimHei-6d" transform="translate(400 0)"/>
     <use xlink:href="#SimHei-65" transform="translate(450 0)"/>
     <use xlink:href="#SimHei-72" transform="translate(500 0)"/>
    </g>
   </g>
   <g id="text_6">
    <!-- 预测的累积因子 -->
    <g transform="translate(461.9 447.352344) scale(0.11 -0.11)">
     <defs>
      <path id="SimHei-9884" d="M 5200 4800 
Q 5575 4800 5950 4825 
L 5950 4400 
Q 5575 4425 5200 4425 
L 4500 4425 
Q 4425 4050 4350 3600 
L 5725 3600 
Q 5700 3225 5700 2800 
L 5700 1725 
Q 5700 1300 5725 850 
L 5250 850 
L 5250 3225 
L 3550 3225 
L 3550 800 
L 3075 800 
Q 3100 1375 3100 1725 
L 3100 2775 
Q 3100 3175 3075 3600 
L 3900 3600 
Q 4000 4150 4000 4425 
L 3725 4425 
Q 3300 4425 2850 4400 
L 2850 4825 
Q 3325 4800 3725 4800 
L 5200 4800 
z
M 2600 1775 
Q 2350 1825 2150 1825 
Q 2250 2250 2300 2450 
L 1750 2450 
L 1750 125 
Q 1725 -300 1425 -400 
Q 1125 -500 750 -500 
Q 700 -225 575 25 
Q 1125 -25 1212 37 
Q 1300 100 1300 350 
L 1300 2450 
L 1025 2450 
Q 700 2450 350 2425 
L 350 2850 
Q 700 2825 1000 2825 
L 2850 2825 
Q 2725 2325 2600 1775 
z
M 4725 2875 
Q 4625 2575 4600 2100 
Q 4575 1625 4462 1037 
Q 4350 450 3962 62 
Q 3575 -325 2925 -675 
Q 2700 -500 2475 -350 
Q 3075 -125 3437 200 
Q 3800 525 3950 937 
Q 4100 1350 4137 1850 
Q 4175 2350 4175 2925 
L 4725 2875 
z
M 1625 2900 
Q 1275 3275 800 3650 
Q 925 3775 1075 3950 
Q 1250 3825 1425 3675 
Q 1750 4150 1950 4375 
L 1400 4375 
Q 900 4375 450 4350 
L 450 4775 
Q 900 4750 1375 4750 
L 2575 4750 
L 2575 4375 
Q 2200 4100 1725 3400 
L 1950 3200 
Q 1750 3025 1625 2900 
z
M 4775 725 
Q 5725 0 6075 -325 
Q 5850 -500 5725 -650 
Q 5400 -325 5137 -87 
Q 4875 150 4525 350 
Q 4650 525 4775 725 
z
" transform="scale(0.015625)"/>
      <path id="SimHei-6d4b" d="M 4025 4725 
Q 4000 4475 4000 4000 
L 4000 2225 
Q 4000 1775 4025 1350 
L 3550 1350 
L 3550 4325 
L 2350 4325 
L 2350 1325 
L 1900 1325 
Q 1925 1775 1925 2225 
L 1925 4000 
Q 1925 4200 1900 4725 
L 4025 4725 
z
M 5900 5075 
Q 5875 4800 5875 4375 
L 5875 0 
Q 5875 -325 5650 -425 
Q 5425 -525 4975 -600 
Q 4925 -325 4775 -50 
Q 5125 -50 5262 -25 
Q 5400 0 5400 250 
L 5400 4375 
Q 5400 4775 5375 5075 
L 5900 5075 
z
M 3275 3725 
Q 3225 3400 3200 2325 
Q 3175 1250 2837 550 
Q 2500 -150 2075 -600 
Q 1850 -400 1600 -325 
Q 2200 250 2475 962 
Q 2750 1675 2762 2475 
Q 2775 3275 2725 3800 
Q 3000 3750 3275 3725 
z
M 4950 4275 
Q 4925 4000 4925 3575 
L 4925 1825 
Q 4925 1300 4950 850 
L 4450 850 
Q 4475 1150 4475 1825 
L 4475 3575 
Q 4475 4000 4450 4275 
L 4950 4275 
z
M 1700 1675 
Q 1375 1075 1112 487 
Q 850 -100 725 -400 
Q 500 -200 200 -25 
Q 475 300 762 850 
Q 1050 1400 1250 2000 
Q 1475 1825 1700 1675 
z
M 3400 1050 
Q 3800 650 4300 -125 
Q 4100 -225 3875 -450 
Q 3475 275 3025 750 
Q 3225 875 3400 1050 
z
M 600 3525 
Q 1125 3125 1500 2775 
Q 1300 2575 1150 2375 
Q 825 2775 300 3150 
Q 450 3300 600 3525 
z
M 1350 4000 
Q 950 4375 475 4675 
Q 625 4850 775 5050 
Q 1300 4700 1675 4375 
Q 1500 4250 1350 4000 
z
" transform="scale(0.015625)"/>
      <path id="SimHei-7684" d="M 2100 4975 
Q 1975 4750 1750 3950 
L 2875 3950 
Q 2850 3525 2850 2875 
L 2850 675 
Q 2850 300 2875 -400 
L 2375 -400 
L 2375 100 
L 1100 100 
L 1100 -450 
L 600 -450 
Q 625 350 625 550 
L 625 2850 
Q 625 3525 600 3950 
L 1325 3950 
Q 1450 4525 1525 5150 
Q 1875 5025 2100 4975 
z
M 5825 3075 
Q 5800 1550 5700 175 
Q 5650 -275 5225 -425 
Q 4800 -575 4275 -625 
Q 4250 -350 4050 -50 
Q 4550 -75 4837 -25 
Q 5125 25 5200 200 
Q 5275 375 5312 1225 
Q 5350 2075 5375 3600 
L 3925 3600 
Q 3725 3125 3350 2475 
Q 3175 2650 2925 2750 
Q 3150 3050 3350 3475 
Q 3550 3900 3700 4400 
Q 3850 4900 3875 5175 
Q 4225 5025 4475 4950 
Q 4350 4750 4262 4512 
Q 4175 4275 4075 4050 
L 5850 4050 
Q 5825 3525 5825 3075 
z
M 2375 525 
L 2375 1850 
L 1100 1850 
L 1100 525 
L 2375 525 
z
M 2375 2275 
L 2375 3525 
L 1100 3525 
L 1100 2275 
L 2375 2275 
z
M 4350 2050 
Q 4500 1750 4700 1275 
Q 4525 1200 4225 1025 
Q 4050 1500 3900 1837 
Q 3750 2175 3600 2400 
Q 3775 2500 4050 2650 
L 4350 2050 
z
" transform="scale(0.015625)"/>
      <path id="SimHei-7d2f" d="M 5475 5000 
Q 5450 4600 5450 3975 
Q 5450 3350 5475 2950 
L 4675 2950 
Q 4850 2775 5075 2600 
Q 4800 2525 4237 2275 
Q 3675 2025 3262 1837 
Q 2850 1650 2400 1425 
Q 3850 1525 4650 1575 
Q 4425 1725 4200 1850 
Q 4375 2000 4500 2175 
Q 5125 1800 5900 1300 
Q 5750 1125 5575 900 
Q 5375 1075 5100 1250 
Q 4250 1175 3475 1125 
L 3475 50 
Q 3475 -350 3212 -462 
Q 2950 -575 2600 -600 
Q 2575 -375 2375 -50 
Q 2800 -75 2900 -25 
Q 3000 25 3000 125 
L 3000 1075 
Q 2400 1050 1987 1012 
Q 1575 975 850 875 
Q 775 1125 700 1350 
Q 1150 1400 1575 1512 
Q 2000 1625 3025 2125 
Q 1775 2025 1250 1925 
Q 1200 2200 1100 2375 
Q 1325 2375 1737 2537 
Q 2150 2700 2475 2950 
L 950 2950 
Q 975 3375 975 3975 
Q 975 4600 950 5000 
L 5475 5000 
z
M 2425 525 
Q 2200 400 1762 137 
Q 1325 -125 850 -425 
Q 700 -225 500 -25 
Q 850 125 1250 362 
Q 1650 600 2025 900 
Q 2150 725 2425 525 
z
M 2975 4100 
L 2975 4650 
L 1450 4650 
L 1450 4100 
L 2975 4100 
z
M 4975 4100 
L 4975 4650 
L 3450 4650 
L 3450 4100 
L 4975 4100 
z
M 4275 850 
Q 4750 650 5050 500 
L 5850 100 
Q 5675 -125 5575 -375 
Q 5150 -100 4775 100 
Q 4400 300 4050 450 
Q 4200 675 4275 850 
z
M 2975 3275 
L 2975 3750 
L 1450 3750 
L 1450 3275 
L 2975 3275 
z
M 4975 3275 
L 4975 3750 
L 3450 3750 
L 3450 3275 
L 4975 3275 
z
M 3700 2475 
Q 4200 2700 4575 2950 
L 3225 2950 
Q 2900 2750 2300 2425 
Q 3075 2450 3700 2475 
z
" transform="scale(0.015625)"/>
      <path id="SimHei-79ef" d="M 5675 4700 
Q 5650 4275 5650 3575 
L 5650 2750 
Q 5650 2225 5675 1750 
L 3100 1750 
Q 3125 2225 3125 2750 
L 3125 3600 
Q 3125 4275 3100 4700 
L 5675 4700 
z
M 2850 4625 
Q 2600 4575 2400 4525 
Q 2200 4475 1925 4425 
L 1925 3275 
Q 2525 3275 2875 3300 
L 2875 2825 
Q 2525 2850 1925 2850 
L 1925 2075 
Q 2125 2225 2250 2350 
Q 2650 1775 2875 1450 
Q 2750 1375 2450 1150 
Q 2250 1575 1925 2000 
L 1925 300 
Q 1925 -75 1950 -675 
L 1425 -675 
Q 1475 -75 1475 300 
L 1475 1925 
Q 1275 1475 1125 1225 
Q 975 975 650 525 
Q 450 700 200 825 
Q 575 1200 900 1750 
Q 1225 2300 1375 2850 
Q 1025 2850 300 2825 
L 300 3300 
Q 1025 3275 1475 3275 
L 1475 4325 
Q 975 4250 525 4175 
Q 450 4400 350 4625 
Q 675 4600 1462 4750 
Q 2250 4900 2550 5075 
Q 2725 4775 2850 4625 
z
M 5175 2175 
L 5175 4300 
L 3575 4300 
L 3575 2175 
L 5175 2175 
z
M 4025 1075 
Q 3875 850 3512 350 
Q 3150 -150 2700 -650 
Q 2525 -475 2300 -300 
Q 2625 -50 2950 375 
Q 3275 800 3575 1400 
Q 3825 1200 4025 1075 
z
M 5050 1325 
Q 5275 1025 5587 625 
Q 5900 225 6200 -225 
Q 5900 -400 5725 -550 
Q 5550 -225 5200 287 
Q 4850 800 4650 1025 
Q 4850 1150 5050 1325 
z
" transform="scale(0.015625)"/>
      <path id="SimHei-56e0" d="M 5775 4950 
Q 5750 4325 5750 3600 
L 5750 850 
Q 5750 200 5775 -550 
L 5275 -550 
L 5275 -100 
L 1150 -100 
L 1150 -600 
L 650 -600 
Q 675 100 675 850 
L 675 3600 
Q 675 4275 650 4950 
L 5775 4950 
z
M 5275 325 
L 5275 4550 
L 1150 4550 
L 1150 325 
L 5275 325 
z
M 2975 3350 
Q 2975 3975 2950 4275 
Q 3225 4250 3525 4250 
Q 3450 3975 3450 3750 
L 3450 3350 
L 4025 3350 
Q 4425 3350 4950 3375 
L 4950 2900 
Q 4425 2925 4025 2925 
L 3425 2925 
Q 3400 2750 3325 2425 
Q 3625 2250 3975 1975 
Q 4325 1700 4900 1225 
Q 4700 1050 4475 800 
Q 4225 1100 3862 1450 
Q 3500 1800 3200 2025 
Q 3025 1700 2700 1375 
Q 2375 1050 1900 700 
Q 1750 925 1475 1075 
Q 2200 1400 2537 1875 
Q 2875 2350 2925 2925 
L 2475 2925 
Q 2025 2925 1525 2900 
L 1525 3375 
Q 2025 3350 2450 3350 
L 2975 3350 
z
" transform="scale(0.015625)"/>
      <path id="SimHei-5b50" d="M 2075 25 
Q 2650 0 2800 62 
Q 2950 125 2950 375 
L 2950 2200 
L 1175 2200 
Q 825 2200 350 2175 
L 350 2625 
Q 825 2600 1175 2600 
L 2950 2600 
Q 2950 3000 2925 3500 
Q 3275 3650 3637 3875 
Q 4000 4100 4475 4400 
L 1925 4400 
Q 1400 4400 1000 4375 
L 1000 4825 
Q 1525 4800 1875 4800 
L 5400 4800 
L 5400 4350 
Q 5025 4200 4575 3950 
Q 4125 3700 3450 3250 
L 3450 2600 
L 5125 2600 
Q 5550 2600 6075 2650 
L 6075 2200 
Q 5550 2225 5125 2200 
L 3450 2200 
L 3450 200 
Q 3450 -300 3162 -400 
Q 2875 -500 2300 -550 
Q 2250 -275 2075 25 
z
" transform="scale(0.015625)"/>
     </defs>
     <use xlink:href="#SimHei-9884"/>
     <use xlink:href="#SimHei-6d4b" transform="translate(100 0)"/>
     <use xlink:href="#SimHei-7684" transform="translate(200 0)"/>
     <use xlink:href="#SimHei-7d2f" transform="translate(300 0)"/>
     <use xlink:href="#SimHei-79ef" transform="translate(400 0)"/>
     <use xlink:href="#SimHei-56e0" transform="translate(500 0)"/>
     <use xlink:href="#SimHei-5b50" transform="translate(600 0)"/>
    </g>
   </g>
   <g id="text_7">
    <!-- Physics-Informed Loss -->
    <g transform="translate(442.65 563.236719) scale(0.11 -0.11)">
     <defs>
      <path id="SimHei-4c" d="M 2900 125 
L 300 125 
L 300 4400 
L 875 4400 
L 875 600 
L 2900 600 
L 2900 125 
z
" transform="scale(0.015625)"/>
     </defs>
     <use xlink:href="#SimHei-50"/>
     <use xlink:href="#SimHei-68" transform="translate(50 0)"/>
     <use xlink:href="#SimHei-79" transform="translate(100 0)"/>
     <use xlink:href="#SimHei-73" transform="translate(150 0)"/>
     <use xlink:href="#SimHei-69" transform="translate(200 0)"/>
     <use xlink:href="#SimHei-63" transform="translate(250 0)"/>
     <use xlink:href="#SimHei-73" transform="translate(300 0)"/>
     <use xlink:href="#SimHei-2d" transform="translate(350 0)"/>
     <use xlink:href="#SimHei-49" transform="translate(400 0)"/>
     <use xlink:href="#SimHei-6e" transform="translate(450 0)"/>
     <use xlink:href="#SimHei-66" transform="translate(500 0)"/>
     <use xlink:href="#SimHei-6f" transform="translate(550 0)"/>
     <use xlink:href="#SimHei-72" transform="translate(600 0)"/>
     <use xlink:href="#SimHei-6d" transform="translate(650 0)"/>
     <use xlink:href="#SimHei-65" transform="translate(700 0)"/>
     <use xlink:href="#SimHei-64" transform="translate(750 0)"/>
     <use xlink:href="#SimHei-20" transform="translate(800 0)"/>
     <use xlink:href="#SimHei-4c" transform="translate(850 0)"/>
     <use xlink:href="#SimHei-6f" transform="translate(900 0)"/>
     <use xlink:href="#SimHei-73" transform="translate(950 0)"/>
     <use xlink:href="#SimHei-73" transform="translate(1000 0)"/>
    </g>
   </g>
   <g id="text_8">
    <!-- 反向传播 -->
    <g transform="translate(163.342857 557.982812) scale(0.1 -0.1)">
     <defs>
      <path id="SimHei-53cd" d="M 1725 2800 
Q 1650 1600 1437 925 
Q 1225 250 775 -475 
Q 625 -325 300 -175 
Q 700 375 925 1075 
Q 1150 1775 1200 2537 
Q 1250 3300 1237 3737 
Q 1225 4175 1225 4625 
Q 1750 4600 2237 4625 
Q 2725 4650 3575 4725 
Q 4425 4800 5200 5000 
Q 5350 4700 5525 4450 
Q 4750 4400 3612 4300 
Q 2475 4200 1725 4200 
L 1725 3250 
L 5350 3250 
Q 5200 2725 4837 1975 
Q 4475 1225 3975 650 
Q 4300 400 4962 175 
Q 5625 -50 5925 -75 
Q 5675 -250 5575 -600 
Q 5175 -500 4612 -275 
Q 4050 -50 3600 325 
Q 3200 25 2662 -225 
Q 2125 -475 1475 -650 
Q 1425 -425 1175 -200 
Q 1775 -75 2350 162 
Q 2925 400 3225 650 
Q 2850 1075 2562 1587 
Q 2275 2100 2050 2800 
L 1725 2800 
z
M 2550 2800 
Q 2975 1625 3600 1000 
Q 4275 1775 4625 2800 
L 2550 2800 
z
" transform="scale(0.015625)"/>
      <path id="SimHei-5411" d="M 2025 4150 
Q 2125 4400 2187 4637 
Q 2250 4875 2300 5175 
Q 2750 5025 2925 5000 
Q 2650 4400 2550 4150 
L 5850 4150 
Q 5825 3700 5825 3275 
L 5825 225 
Q 5825 -325 5487 -412 
Q 5150 -500 4700 -525 
Q 4625 -175 4450 50 
Q 5075 25 5212 50 
Q 5350 75 5325 325 
L 5325 3700 
L 1250 3700 
L 1250 -500 
L 725 -500 
Q 725 150 750 550 
L 750 3250 
Q 725 3700 725 4150 
L 2025 4150 
z
M 4450 2825 
Q 4425 2500 4425 2175 
L 4425 1600 
Q 4425 1275 4450 900 
L 2025 900 
Q 2050 1250 2050 1600 
L 2050 2225 
Q 2050 2525 2025 2825 
L 4450 2825 
z
M 3900 1300 
L 3900 2425 
L 2550 2425 
L 2550 1300 
L 3900 1300 
z
" transform="scale(0.015625)"/>
      <path id="SimHei-4f20" d="M 5500 1975 
Q 5025 925 4700 250 
Q 4975 100 5450 -200 
Q 5300 -375 5125 -675 
Q 4700 -375 4012 12 
Q 3325 400 3050 525 
Q 3175 750 3275 950 
Q 3600 800 4275 475 
Q 4525 975 4750 1550 
L 2800 1550 
Q 2950 2000 3125 2650 
L 2575 2650 
Q 2200 2650 1925 2625 
L 1925 3075 
Q 2250 3050 2600 3050 
L 3200 3050 
Q 3300 3525 3350 3825 
L 2975 3825 
Q 2525 3825 2250 3800 
L 2250 4250 
Q 2550 4225 2950 4225 
L 3425 4225 
Q 3525 4950 3525 5225 
Q 3850 5150 4100 5125 
Q 4025 5000 3875 4225 
L 4950 4225 
Q 5350 4225 5700 4250 
L 5700 3800 
Q 5375 3825 4925 3825 
L 3825 3825 
Q 3775 3550 3675 3050 
L 5250 3050 
Q 5750 3050 6025 3075 
L 6025 2625 
Q 5725 2650 5250 2650 
L 3600 2650 
Q 3500 2250 3425 1975 
L 5500 1975 
z
M 2225 4875 
Q 2025 4675 1650 3750 
L 1650 550 
Q 1650 -25 1675 -525 
L 1125 -525 
Q 1175 -125 1175 525 
L 1175 3000 
Q 800 2400 550 2050 
Q 450 2250 200 2450 
Q 500 2800 925 3525 
Q 1350 4250 1625 5175 
Q 1850 5050 2225 4875 
z
" transform="scale(0.015625)"/>
      <path id="SimHei-64ad" d="M 5775 4600 
Q 5325 4550 4300 4475 
L 4300 3475 
L 4725 3475 
Q 4850 3800 5050 4475 
Q 5250 4350 5575 4225 
Q 5400 4000 5312 3812 
Q 5225 3625 5150 3475 
L 5400 3475 
Q 5725 3475 6100 3500 
L 6100 3075 
Q 5725 3100 5425 3100 
L 4850 3100 
Q 5325 2425 6200 2100 
Q 5975 1875 5925 1625 
Q 5600 1750 5525 1825 
L 5525 300 
Q 5525 -50 5550 -600 
L 5075 -600 
L 5075 -225 
L 3050 -225 
L 3050 -600 
L 2575 -600 
Q 2600 -100 2600 250 
L 2600 1725 
Q 2400 1600 2225 1475 
Q 2050 1725 1850 1875 
Q 2825 2375 3300 3100 
Q 2725 3100 2225 3075 
L 2225 3500 
Q 2650 3475 2850 3475 
L 3000 3475 
Q 2800 3925 2625 4100 
Q 2700 4150 3025 4325 
Q 3075 4225 3425 3725 
Q 3300 3650 3050 3475 
L 3825 3475 
L 3825 4425 
Q 3000 4400 2525 4325 
Q 2425 4600 2300 4800 
Q 3050 4775 4025 4875 
Q 5000 4975 5425 5125 
Q 5550 4825 5775 4600 
z
M 1175 4550 
Q 1175 4900 1150 5200 
L 1650 5200 
Q 1625 5000 1600 4650 
L 1600 3825 
Q 1900 3825 2125 3850 
L 2125 3400 
Q 1850 3425 1600 3425 
L 1600 2425 
L 2100 2675 
Q 2100 2475 2150 2200 
Q 1900 2100 1600 1950 
L 1600 50 
Q 1600 -350 1362 -450 
Q 1125 -550 700 -600 
Q 650 -350 475 -75 
Q 925 -75 1050 -37 
Q 1175 0 1175 275 
L 1175 1800 
Q 1000 1750 425 1400 
L 225 1900 
Q 525 2000 1175 2275 
L 1175 3425 
Q 600 3425 300 3375 
L 300 3850 
Q 750 3825 1175 3825 
L 1175 4550 
z
M 5300 1950 
Q 4750 2350 4375 3100 
L 4325 3100 
Q 4325 2550 4350 2050 
L 3825 2050 
Q 3850 2550 3850 3075 
Q 3475 2525 2825 1950 
L 5300 1950 
z
M 3850 150 
L 3850 675 
L 3050 675 
L 3050 150 
L 3850 150 
z
M 5075 150 
L 5075 675 
L 4275 675 
L 4275 150 
L 5075 150 
z
M 3850 1075 
L 3850 1575 
L 3050 1575 
L 3050 1075 
L 3850 1075 
z
M 5075 1075 
L 5075 1575 
L 4275 1575 
L 4275 1075 
L 5075 1075 
z
" transform="scale(0.015625)"/>
     </defs>
     <use xlink:href="#SimHei-53cd"/>
     <use xlink:href="#SimHei-5411" transform="translate(100 0)"/>
     <use xlink:href="#SimHei-4f20" transform="translate(200 0)"/>
     <use xlink:href="#SimHei-64ad" transform="translate(300 0)"/>
    </g>
    <!-- 参数更新 -->
    <g transform="translate(163.342857 568.935937) scale(0.1 -0.1)">
     <defs>
      <path id="SimHei-53c2" d="M 3325 4850 
Q 3100 4725 2850 4500 
Q 2600 4275 2175 3925 
Q 2850 3950 3275 3950 
Q 3700 3950 4200 3975 
Q 3950 4200 3600 4450 
Q 3800 4625 3925 4775 
Q 4900 4100 5325 3675 
Q 5100 3475 4925 3300 
Q 4750 3475 4550 3625 
Q 3625 3600 3200 3575 
Q 3025 3250 2925 3125 
L 5075 3125 
Q 5575 3125 5950 3150 
L 5950 2700 
Q 5600 2725 5075 2725 
L 4325 2725 
Q 4675 2350 5187 2075 
Q 5700 1800 6150 1700 
Q 5850 1550 5675 1225 
Q 5100 1525 4612 1900 
Q 4125 2275 3800 2725 
L 2725 2725 
Q 2325 2300 1812 1962 
Q 1300 1625 650 1325 
Q 525 1525 250 1700 
Q 725 1825 1237 2100 
Q 1750 2375 2100 2725 
L 1475 2725 
Q 950 2725 375 2700 
L 375 3150 
Q 875 3125 1475 3125 
L 2400 3125 
L 2550 3350 
L 2650 3550 
Q 1925 3500 1775 3475 
Q 1625 3450 1500 3425 
Q 1375 3725 1300 3875 
Q 1600 3950 2050 4337 
Q 2500 4725 2825 5225 
Q 3025 5050 3325 4850 
z
M 5350 800 
Q 5025 650 4612 437 
Q 4200 225 3850 75 
Q 3500 -75 3062 -212 
Q 2625 -350 2150 -450 
Q 1675 -550 1225 -600 
Q 1150 -350 900 -150 
Q 1675 -125 2362 25 
Q 3050 175 3512 387 
Q 3975 600 4312 800 
Q 4650 1000 4900 1250 
Q 5100 1025 5350 800 
z
M 4550 1450 
Q 4350 1375 4037 1200 
Q 3725 1025 3350 862 
Q 2975 700 2512 550 
Q 2050 400 1575 325 
Q 1450 575 1250 775 
Q 1775 800 2175 900 
Q 2575 1000 3075 1212 
Q 3575 1425 4125 1850 
Q 4300 1675 4550 1450 
z
M 3900 2075 
Q 3575 1950 3350 1825 
Q 3125 1700 2687 1525 
Q 2250 1350 1750 1200 
Q 1625 1425 1450 1600 
Q 2025 1700 2587 1937 
Q 3150 2175 3500 2500 
Q 3700 2275 3900 2075 
z
" transform="scale(0.015625)"/>
      <path id="SimHei-66f4" d="M 5175 4750 
Q 5400 4750 5800 4775 
L 5800 4325 
Q 5475 4350 5175 4350 
L 3475 4350 
L 3475 3825 
L 5300 3825 
Q 5275 3400 5275 2675 
Q 5275 1975 5300 1550 
L 3400 1550 
Q 3325 1025 3050 575 
Q 3425 350 4137 175 
Q 4850 0 5237 -25 
Q 5625 -50 6000 -50 
Q 5850 -175 5750 -575 
Q 5075 -525 4250 -337 
Q 3425 -150 2775 200 
Q 2525 -25 2037 -262 
Q 1550 -500 600 -650 
Q 500 -375 350 -175 
Q 1075 -150 1612 37 
Q 2150 225 2400 450 
Q 1925 775 1400 1275 
Q 1550 1375 1700 1550 
L 1100 1550 
Q 1125 2025 1125 2725 
Q 1125 3450 1100 3825 
L 3000 3825 
L 3000 4350 
L 1450 4350 
Q 1050 4350 600 4325 
L 600 4775 
Q 1050 4750 1425 4750 
L 5175 4750 
z
M 2975 1975 
Q 3000 2250 3000 2525 
L 1625 2525 
L 1625 1975 
L 2975 1975 
z
M 3000 2925 
L 3000 3450 
L 1625 3450 
L 1625 2925 
L 3000 2925 
z
M 4775 1975 
L 4775 2525 
L 3475 2525 
Q 3475 2350 3450 1975 
L 4775 1975 
z
M 4775 2925 
L 4775 3450 
L 3475 3450 
L 3475 2925 
L 4775 2925 
z
M 1775 1550 
Q 2225 1075 2675 800 
Q 2875 1175 2925 1550 
L 1775 1550 
z
" transform="scale(0.015625)"/>
      <path id="SimHei-65b0" d="M 6125 4650 
Q 5750 4650 4275 4500 
L 4275 3225 
L 5575 3225 
Q 5850 3225 6150 3250 
L 6150 2775 
Q 5800 2800 5550 2800 
L 5550 225 
Q 5550 -200 5575 -675 
L 5050 -675 
Q 5075 -200 5075 200 
L 5075 2800 
L 4275 2800 
Q 4275 2175 4225 1600 
Q 4175 1025 4012 462 
Q 3850 -100 3525 -700 
Q 3275 -550 3025 -450 
Q 3425 125 3587 762 
Q 3750 1400 3775 1875 
Q 3800 2350 3800 3300 
Q 3800 4275 3775 4850 
Q 4900 4900 5800 5200 
Q 6000 4800 6125 4650 
z
M 2975 3825 
Q 2800 3725 2575 3050 
Q 3000 3050 3450 3075 
L 3450 2575 
Q 3025 2600 2175 2600 
L 2175 1975 
Q 2950 1975 3400 2000 
L 3400 1500 
Q 2950 1525 2175 1525 
L 2175 0 
Q 2175 -375 1937 -500 
Q 1700 -625 1325 -625 
Q 1225 -325 1075 -75 
Q 1425 -100 1562 -75 
Q 1700 -50 1700 150 
L 1700 1525 
Q 900 1525 450 1500 
L 450 2000 
Q 925 1975 1700 1975 
L 1700 2600 
Q 775 2600 325 2575 
L 325 3075 
Q 775 3050 1175 3050 
L 2125 3050 
Q 2325 3650 2425 3975 
Q 2625 3925 2975 3825 
z
M 2125 5275 
Q 2250 4750 2275 4550 
Q 2850 4550 3350 4575 
L 3350 4075 
Q 2825 4100 2500 4100 
L 1300 4100 
Q 875 4100 475 4075 
L 475 4575 
Q 900 4550 1300 4550 
L 1750 4550 
Q 1700 4825 1600 5125 
Q 1850 5200 2125 5275 
z
M 1525 1050 
Q 1375 875 1175 612 
Q 975 350 600 -125 
Q 425 50 225 175 
Q 750 750 1050 1375 
Q 1300 1175 1525 1050 
z
M 2725 1300 
Q 3025 900 3275 475 
Q 3025 350 2875 150 
Q 2675 600 2350 1025 
Q 2525 1175 2725 1300 
z
M 1275 3950 
Q 1450 3600 1575 3250 
Q 1350 3200 1150 3100 
Q 1025 3475 875 3775 
Q 1050 3875 1275 3950 
z
" transform="scale(0.015625)"/>
     </defs>
     <use xlink:href="#SimHei-53c2"/>
     <use xlink:href="#SimHei-6570" transform="translate(100 0)"/>
     <use xlink:href="#SimHei-66f4" transform="translate(200 0)"/>
     <use xlink:href="#SimHei-65b0" transform="translate(300 0)"/>
    </g>
   </g>
   <g id="patch_10">
    <path d="M 291.019639 79.744414 
Q 359.487062 72.674861 425.730242 65.83497 
" style="fill: none; stroke: #000000; stroke-width: 2; stroke-linecap: round"/>
    <path d="M 421.54598 64.25638 
L 425.730242 65.83497 
L 421.956812 68.235226 
" style="fill: none; stroke: #000000; stroke-width: 2; stroke-linecap: round"/>
   </g>
   <g id="patch_11">
    <path d="M 291.025015 79.881286 
Q 500.398294 72.675059 707.536829 65.545747 
" style="fill: none; stroke: #000000; stroke-width: 2; stroke-linecap: round"/>
    <path d="M 703.4704 63.684521 
L 707.536829 65.545747 
L 703.607991 67.682154 
" style="fill: none; stroke: #000000; stroke-width: 2; stroke-linecap: round"/>
   </g>
   <g id="patch_12">
    <path d="M 518.014286 96.499915 
Q 518.014286 152.699725 518.014286 206.663467 
" style="fill: none; stroke: #000000; stroke-width: 2; stroke-linecap: round"/>
    <path d="M 520.014286 202.663467 
L 518.014286 206.663467 
L 516.014286 202.663467 
" style="fill: none; stroke: #000000; stroke-width: 2; stroke-linecap: round"/>
   </g>
   <g id="patch_13">
    <path d="M 516.980048 212.60863 
Q 509.207139 225.450007 502.592125 236.37846 
" style="fill: none; stroke: #000000; stroke-width: 2; stroke-linecap: round"/>
    <path d="M 506.374404 233.992172 
L 502.592125 236.37846 
L 502.952462 231.920864 
" style="fill: none; stroke: #000000; stroke-width: 2; stroke-linecap: round"/>
   </g>
   <g id="patch_14">
    <path d="M 500.4 358.399915 
Q 500.4 385.50006 500.4 410.364137 
" style="fill: none; stroke: #000000; stroke-width: 2; stroke-linecap: round"/>
    <path d="M 502.4 406.364137 
L 500.4 410.364137 
L 498.4 406.364137 
" style="fill: none; stroke: #000000; stroke-width: 2; stroke-linecap: round"/>
   </g>
   <g id="patch_15">
    <path d="M 500.4 474.799915 
Q 500.4 501.90006 500.4 526.764137 
" style="fill: none; stroke: #000000; stroke-width: 2; stroke-linecap: round"/>
    <path d="M 502.4 522.764137 
L 500.4 526.764137 
L 498.4 522.764137 
" style="fill: none; stroke: #000000; stroke-width: 2; stroke-linecap: round"/>
   </g>
   <g id="patch_16">
    <path d="M 798.319496 95.792894 
Q 581.869866 280.071345 640.547798 556.503934 
" style="fill: none; stroke: #008000; stroke-width: 1.5; stroke-linecap: round"/>
    <path d="M 641.673639 552.175831 
L 640.547798 556.503934 
L 637.76082 553.006399 
" style="fill: none; stroke: #008000; stroke-width: 1.5; stroke-linecap: round"/>
   </g>
   <g id="patch_17">
    <path d="M 357.486046 560.1 
Q 324.258014 560.1 293.266051 560.1 
" style="fill: none; stroke: #000000; stroke-width: 2; stroke-linecap: round"/>
    <path d="M 297.266051 562.1 
L 293.266051 560.1 
L 297.266051 558.1 
" style="fill: none; stroke: #000000; stroke-width: 2; stroke-linecap: round"/>
   </g>
   <g id="patch_18">
    <path d="M 184.363749 358.118399 
Q 234.702284 443.700542 185.213369 527.837154 
" style="fill: none; stroke: #800080; stroke-width: 1.5; stroke-linecap: round"/>
    <path d="M 188.965249 525.403351 
L 185.213369 527.837154 
L 185.517455 523.375368 
" style="fill: none; stroke: #800080; stroke-width: 1.5; stroke-linecap: round"/>
   </g>
   <g id="text_9">
    <!-- 伽马射线屏蔽累积因子预测模型数据流图 -->
    <g transform="translate(356.4 41.83125) scale(0.16 -0.16)">
     <defs>
      <path id="SimHei-4f3d" d="M 5925 4100 
Q 5900 3750 5900 3275 
L 5900 625 
Q 5900 -50 5925 -325 
L 5450 -325 
L 5450 225 
L 4675 225 
L 4675 -350 
L 4200 -350 
Q 4225 25 4225 575 
L 4225 3300 
Q 4225 3600 4200 4100 
L 5925 4100 
z
M 2925 5150 
Q 2875 4625 2875 3925 
L 3825 3925 
Q 3825 3650 3800 3025 
L 3800 225 
Q 3800 -225 3500 -300 
Q 3200 -375 2875 -400 
Q 2875 -225 2675 175 
Q 3075 125 3212 150 
Q 3350 175 3350 375 
L 3350 3550 
L 2850 3550 
Q 2850 2375 2712 1425 
Q 2575 475 2075 -450 
Q 1925 -325 1650 -250 
Q 2075 450 2262 1400 
Q 2450 2350 2450 3550 
Q 2275 3550 1950 3525 
L 1950 3950 
Q 2275 3925 2450 3925 
Q 2450 4625 2425 5175 
Q 2725 5150 2925 5150 
z
M 2175 4925 
Q 1950 4675 1600 3775 
L 1600 750 
Q 1600 25 1625 -500 
L 1150 -500 
Q 1175 0 1175 725 
L 1175 3100 
Q 950 2725 550 2250 
Q 400 2425 200 2550 
Q 525 2875 962 3650 
Q 1400 4425 1575 5225 
Q 1850 5050 2175 4925 
z
M 5450 600 
L 5450 3725 
L 4675 3725 
L 4675 600 
L 5450 600 
z
" transform="scale(0.015625)"/>
      <path id="SimHei-9a6c" d="M 2300 3975 
Q 2200 3750 2125 3287 
Q 2050 2825 2050 2425 
L 4100 2425 
Q 4150 2925 4200 3450 
Q 4250 3975 4300 4400 
L 1900 4400 
Q 1425 4400 875 4375 
L 875 4875 
Q 1425 4850 1900 4850 
L 4875 4850 
Q 4775 4175 4700 3487 
Q 4625 2800 4600 2425 
L 5750 2425 
Q 5700 1875 5662 1212 
Q 5625 550 5500 112 
Q 5375 -325 5075 -425 
Q 4775 -525 3925 -575 
Q 3900 -300 3700 25 
Q 4675 0 4800 62 
Q 4925 125 5012 287 
Q 5100 450 5150 1037 
Q 5200 1625 5200 2000 
L 1500 2000 
Q 1550 2500 1600 3037 
Q 1650 3575 1675 4075 
Q 2000 4025 2300 3975 
z
M 3625 1225 
Q 4025 1225 4675 1250 
L 4675 775 
Q 4000 800 3625 800 
L 1400 800 
Q 900 800 500 775 
L 500 1250 
Q 900 1225 1400 1225 
L 3625 1225 
z
" transform="scale(0.015625)"/>
      <path id="SimHei-5c04" d="M 2150 5125 
Q 2000 4975 1825 4500 
L 3225 4500 
Q 3200 4075 3200 3650 
L 3200 -50 
Q 3200 -350 2987 -462 
Q 2775 -575 2250 -650 
Q 2225 -375 2075 -75 
Q 2475 -125 2612 -75 
Q 2750 -25 2750 225 
L 2750 1275 
L 2475 1275 
Q 2275 725 1725 250 
Q 1175 -225 625 -500 
Q 450 -275 225 -75 
Q 775 75 1250 450 
Q 1725 825 1975 1275 
L 825 1275 
Q 650 1275 275 1250 
L 275 1725 
Q 625 1700 800 1700 
L 800 3675 
Q 800 4075 775 4500 
L 1400 4500 
Q 1500 4900 1525 5275 
L 2150 5125 
z
M 4875 4500 
Q 4875 4825 4825 5200 
L 5350 5200 
Q 5325 4825 5325 4500 
L 5325 3550 
Q 5750 3550 6150 3575 
L 6150 3125 
Q 5750 3150 5325 3150 
L 5325 75 
Q 5300 -300 5012 -437 
Q 4725 -575 4325 -650 
Q 4325 -350 4075 -25 
Q 4475 -75 4675 -25 
Q 4875 25 4875 250 
L 4875 3150 
Q 3900 3150 3375 3125 
L 3375 3575 
Q 4000 3550 4875 3550 
L 4875 4500 
z
M 2750 3550 
L 2750 4100 
L 1250 4100 
L 1250 3550 
L 2750 3550 
z
M 2750 2625 
L 2750 3150 
L 1250 3150 
L 1250 2625 
L 2750 2625 
z
M 2750 1700 
L 2750 2225 
L 1250 2225 
L 1250 1700 
L 2750 1700 
z
M 4000 2600 
Q 4275 1775 4350 1525 
Q 4100 1475 3875 1350 
Q 3800 1850 3525 2450 
Q 3750 2550 4000 2600 
z
" transform="scale(0.015625)"/>
      <path id="SimHei-7ebf" d="M 3450 4300 
Q 3450 4675 3375 5125 
Q 3700 5100 4050 5050 
Q 3975 4900 3950 4562 
Q 3925 4225 3950 3600 
L 4800 3750 
Q 5225 3850 5650 3975 
L 5750 3500 
Q 5325 3450 4875 3375 
L 3975 3200 
Q 3975 2800 4025 2500 
L 5000 2675 
Q 5500 2775 5950 2925 
L 6025 2450 
Q 5575 2375 5075 2275 
L 4100 2100 
Q 4150 1600 4350 1175 
Q 4575 1350 4787 1575 
Q 5000 1800 5175 2075 
Q 5550 1775 5750 1675 
Q 5425 1525 5237 1337 
Q 5050 1150 4625 750 
Q 4925 250 5162 112 
Q 5400 -25 5500 100 
Q 5600 225 5675 625 
Q 5900 450 6200 350 
Q 5775 -750 5275 -537 
Q 4775 -325 4225 450 
Q 3875 175 3537 -62 
Q 3200 -300 2700 -550 
Q 2575 -300 2325 -100 
Q 2825 75 3175 275 
Q 3525 475 3975 850 
Q 3750 1350 3650 2025 
Q 2900 1900 2600 1800 
L 2525 2275 
Q 2825 2275 3550 2425 
Q 3500 2825 3500 3100 
Q 2825 2950 2575 2875 
L 2475 3350 
Q 2725 3350 3450 3500 
L 3450 4300 
z
M 1950 4875 
Q 1700 4650 1462 4237 
Q 1225 3825 825 3225 
Q 1425 3250 1650 3250 
Q 1875 3625 2050 4075 
Q 2300 3900 2600 3800 
Q 2350 3550 2087 3125 
Q 1825 2700 1175 1675 
Q 1850 1725 2375 1775 
Q 2300 1525 2300 1350 
Q 2125 1350 1525 1287 
Q 925 1225 550 1125 
Q 525 1375 400 1650 
Q 700 1725 950 2050 
Q 1200 2375 1475 2875 
Q 650 2825 425 2675 
Q 350 2950 200 3225 
Q 525 3450 825 3962 
Q 1125 4475 1375 5150 
Q 1625 4975 1950 4875 
z
M 2575 875 
Q 2550 600 2575 450 
Q 1950 325 1450 200 
Q 950 75 525 -75 
Q 450 200 250 475 
Q 950 550 1325 612 
Q 1700 675 2575 875 
z
M 4850 4025 
Q 4675 4300 4375 4675 
L 4775 4875 
Q 4875 4750 5275 4275 
Q 5025 4175 4850 4025 
z
" transform="scale(0.015625)"/>
      <path id="SimHei-5c4f" d="M 250 -50 
Q 650 550 825 1350 
Q 1000 2150 1000 3150 
Q 1000 4175 975 5025 
L 5500 5025 
Q 5475 4700 5475 4350 
Q 5475 4000 5500 3600 
L 1450 3600 
Q 1450 2300 1337 1412 
Q 1225 525 750 -325 
Q 550 -100 250 -50 
z
M 1700 -325 
Q 2250 0 2487 325 
Q 2725 650 2750 1075 
L 1575 1075 
L 1575 1475 
Q 2025 1450 2775 1450 
L 2775 2200 
Q 2175 2200 1775 2175 
L 1775 2625 
Q 2150 2600 2925 2600 
Q 2700 3000 2400 3225 
Q 2675 3350 2800 3500 
Q 3050 3175 3300 2800 
Q 3125 2750 2975 2600 
L 4150 2600 
Q 4450 3200 4475 3475 
Q 4725 3350 5000 3250 
Q 4750 2950 4600 2600 
Q 5300 2600 5750 2625 
L 5750 2175 
Q 5300 2200 4750 2200 
L 4750 1450 
Q 5475 1450 5975 1475 
L 5975 1075 
L 4750 1075 
L 4750 200 
Q 4750 -175 4775 -575 
L 4275 -575 
Q 4300 -175 4300 175 
L 4300 1075 
L 3200 1075 
Q 3150 450 2875 50 
Q 2600 -350 2175 -650 
Q 1950 -475 1700 -325 
z
M 5050 3975 
L 5050 4650 
L 1450 4650 
L 1450 3975 
L 5050 3975 
z
M 4300 1450 
L 4300 2200 
L 3200 2200 
L 3200 1450 
L 4300 1450 
z
" transform="scale(0.015625)"/>
      <path id="SimHei-853d" d="M 2075 4725 
Q 2075 4900 2050 5225 
L 2550 5225 
Q 2525 4900 2525 4725 
L 3725 4725 
Q 3725 4925 3700 5250 
L 4225 5250 
Q 4200 4925 4200 4725 
L 5300 4725 
Q 5675 4725 6075 4750 
L 6075 4325 
Q 5675 4350 5300 4350 
L 4200 4350 
Q 4200 4125 4225 3900 
L 3725 3900 
L 3725 4350 
L 2525 4350 
L 2525 3925 
L 2050 3925 
Q 2075 4175 2075 4350 
L 1100 4350 
Q 725 4350 325 4325 
L 325 4750 
Q 725 4725 1100 4725 
L 2075 4725 
z
M 4375 2625 
Q 4275 2375 4175 2175 
Q 4250 1850 4400 1500 
Q 4575 1075 4750 825 
Q 4900 1100 5000 1562 
Q 5100 2025 5125 2625 
L 4375 2625 
z
M 1750 1625 
Q 1700 1500 1612 1162 
Q 1525 825 1400 500 
L 1025 625 
Q 1150 975 1200 1187 
Q 1250 1400 1325 1775 
L 1750 1625 
z
M 2700 1775 
Q 2800 1475 2875 1225 
Q 2950 975 3000 750 
L 2625 625 
Q 2525 1025 2487 1175 
Q 2450 1325 2325 1650 
L 2700 1775 
z
M 1000 3750 
Q 1250 3350 1500 2925 
Q 1350 2875 1075 2725 
Q 875 3175 625 3550 
Q 775 3600 1000 3750 
z
M 3475 3550 
Q 3325 3425 3237 3262 
Q 3150 3100 2925 2775 
Q 2700 2900 2550 2975 
Q 2800 3325 3000 3750 
Q 3250 3625 3475 3550 
z
M 3525 1825 
Q 3675 2025 3937 2625 
Q 4200 3225 4325 3875 
Q 4575 3775 4850 3625 
Q 4750 3550 4700 3412 
Q 4650 3275 4525 3025 
L 5325 3025 
Q 5625 3025 6050 3050 
L 6050 2600 
Q 5675 2625 5600 2625 
Q 5550 2050 5437 1512 
Q 5325 975 5075 450 
Q 5500 50 6175 -125 
Q 5975 -325 5800 -600 
Q 5250 -325 4775 75 
Q 4375 -300 3775 -650 
Q 3625 -400 3375 -250 
Q 3975 -50 4475 450 
Q 4150 1000 3900 1625 
Q 3850 1525 3800 1450 
Q 3650 1625 3525 1825 
z
M 3475 175 
Q 3475 -100 3325 -187 
Q 3175 -275 2700 -375 
Q 2625 -100 2450 125 
Q 2775 125 2912 150 
Q 3050 175 3050 450 
L 3050 2300 
L 2275 2300 
L 2275 400 
Q 2275 -50 2300 -425 
L 1800 -425 
Q 1825 -25 1825 400 
L 1825 2300 
L 975 2300 
L 975 -475 
L 500 -475 
Q 525 -25 525 1125 
Q 525 2275 500 2675 
L 1825 2675 
L 1825 2950 
Q 1825 3425 1800 3850 
L 2300 3850 
Q 2275 3450 2275 2975 
L 2275 2675 
L 3500 2675 
Q 3475 2525 3475 175 
z
" transform="scale(0.015625)"/>
      <path id="SimHei-6a21" d="M 5700 3675 
Q 5675 3400 5675 2725 
Q 5675 2050 5700 1725 
L 4375 1725 
Q 4350 1450 4325 1200 
L 5225 1200 
Q 5750 1200 6025 1225 
L 6025 825 
Q 5725 850 5225 850 
L 4700 850 
Q 5075 375 5437 137 
Q 5800 -100 6200 -200 
Q 5975 -375 5850 -625 
Q 5275 -400 4862 25 
Q 4450 450 4300 775 
L 4225 775 
Q 4000 275 3537 -62 
Q 3075 -400 2475 -625 
Q 2350 -375 2125 -200 
Q 2775 -75 3200 200 
Q 3625 475 3775 850 
L 3325 850 
Q 2800 850 2400 825 
L 2400 1225 
Q 2800 1200 3350 1200 
L 3875 1200 
Q 3925 1475 3925 1725 
L 2750 1725 
Q 2775 2075 2775 2700 
Q 2775 3350 2750 3675 
L 5700 3675 
z
M 2175 1650 
Q 2025 1975 1675 2525 
L 1675 300 
Q 1675 -300 1700 -550 
L 1175 -550 
Q 1200 -275 1200 250 
L 1200 2225 
Q 1125 2000 962 1712 
Q 800 1425 600 1050 
Q 450 1275 200 1425 
Q 600 1825 850 2425 
Q 1100 3025 1175 3425 
L 950 3425 
Q 700 3425 400 3400 
L 400 3825 
Q 675 3800 825 3800 
L 1200 3800 
L 1200 4350 
Q 1200 4775 1175 5150 
L 1700 5150 
Q 1675 4825 1675 4425 
L 1675 3800 
Q 2075 3800 2375 3825 
L 2375 3400 
Q 2050 3425 1675 3425 
L 1675 2575 
Q 1850 2675 2000 2775 
Q 2150 2525 2287 2325 
Q 2425 2125 2550 1925 
Q 2325 1775 2175 1650 
z
M 3375 4300 
L 3175 4300 
Q 2700 4300 2425 4275 
L 2425 4675 
Q 2700 4650 3150 4650 
L 3375 4650 
Q 3375 5000 3350 5225 
L 3825 5225 
Q 3800 5000 3800 4650 
L 4550 4650 
Q 4550 4975 4525 5200 
L 5025 5200 
Q 5000 4925 5000 4650 
L 5375 4650 
Q 5650 4650 5950 4675 
L 5950 4275 
Q 5650 4300 5375 4300 
L 5000 4300 
L 5000 3850 
L 4550 3850 
L 4550 4300 
L 3800 4300 
L 3800 3875 
L 3375 3875 
L 3375 4300 
z
M 5275 2075 
L 5275 2525 
L 3200 2525 
L 3200 2075 
L 5275 2075 
z
M 5275 2875 
L 5275 3325 
L 3200 3325 
L 3200 2875 
L 5275 2875 
z
" transform="scale(0.015625)"/>
      <path id="SimHei-578b" d="M 2625 1775 
Q 2650 2325 2650 2700 
L 2650 3000 
L 1825 3000 
Q 1725 2375 1425 2000 
Q 1125 1625 775 1425 
Q 650 1650 375 1900 
Q 850 2075 1062 2362 
Q 1275 2650 1350 3000 
Q 900 3000 375 2975 
L 375 3450 
Q 925 3425 1400 3425 
Q 1425 3950 1425 4475 
Q 1075 4475 700 4450 
L 700 4900 
Q 1050 4875 1525 4875 
L 3000 4875 
Q 3275 4875 3650 4900 
L 3650 4450 
Q 3325 4475 3125 4475 
L 3125 3425 
Q 3450 3425 3825 3450 
L 3825 2975 
Q 3450 3000 3125 3000 
L 3125 2675 
Q 3125 2225 3150 1775 
L 2625 1775 
z
M 3000 1175 
Q 3000 1375 2975 1725 
L 3500 1725 
Q 3475 1375 3475 1175 
L 4550 1175 
Q 5050 1175 5450 1200 
L 5450 725 
Q 4975 750 4550 750 
L 3475 750 
L 3475 -50 
L 5275 -50 
Q 5700 -50 6100 -25 
L 6100 -500 
Q 5725 -475 5300 -475 
L 1250 -475 
Q 775 -475 400 -500 
L 400 -25 
Q 775 -50 1250 -50 
L 3000 -50 
L 3000 750 
L 2025 750 
Q 1500 750 975 725 
L 1050 1200 
Q 1500 1175 2025 1175 
L 3000 1175 
z
M 5775 5200 
Q 5750 4775 5750 4325 
L 5750 2400 
Q 5775 1950 5612 1775 
Q 5450 1600 4900 1525 
Q 4825 1775 4675 2100 
Q 5175 2075 5237 2150 
Q 5300 2225 5300 2525 
L 5300 4325 
Q 5300 4775 5275 5200 
L 5775 5200 
z
M 4600 4750 
Q 4575 4450 4575 3975 
L 4575 3200 
Q 4575 2825 4600 2425 
L 4100 2425 
Q 4125 2825 4125 3200 
L 4125 3975 
Q 4125 4450 4100 4750 
L 4600 4750 
z
M 2650 3425 
L 2650 4475 
L 1875 4475 
Q 1850 3750 1850 3425 
L 2650 3425 
z
" transform="scale(0.015625)"/>
      <path id="SimHei-6d41" d="M 3725 5250 
Q 3975 4875 4225 4450 
L 5025 4450 
Q 5425 4450 5925 4475 
L 5925 4025 
Q 5325 4050 5025 4050 
L 3425 4050 
Q 3625 3900 3775 3825 
Q 3650 3725 3450 3475 
Q 3250 3225 2850 2775 
Q 3750 2800 4775 2850 
Q 4525 3150 4275 3375 
Q 4525 3550 4625 3675 
Q 5325 2950 5800 2375 
Q 5575 2200 5400 2050 
Q 5200 2325 5050 2525 
Q 4500 2475 3562 2412 
Q 2625 2350 2300 2250 
Q 2225 2475 2075 2675 
Q 2325 2750 2675 3175 
Q 3025 3600 3250 4050 
L 2975 4050 
Q 2525 4050 2050 4000 
L 2050 4475 
Q 2525 4450 2975 4450 
L 3675 4450 
Q 3475 4800 3325 5000 
Q 3575 5125 3725 5250 
z
M 5025 2025 
Q 5000 1700 5000 1375 
L 5000 150 
Q 5000 -75 5225 -75 
L 5475 -75 
Q 5675 -75 5700 500 
Q 5900 350 6200 275 
Q 6050 -350 5887 -425 
Q 5725 -500 5500 -500 
L 5025 -500 
Q 4550 -500 4550 -25 
L 4550 1425 
Q 4550 1725 4525 2025 
L 5025 2025 
z
M 3125 1975 
Q 3075 1725 3037 1212 
Q 3000 700 2812 225 
Q 2625 -250 1950 -700 
Q 1775 -475 1575 -325 
Q 2075 -100 2312 287 
Q 2550 675 2575 1162 
Q 2600 1650 2575 2025 
Q 2825 1975 3125 1975 
z
M 4000 2025 
Q 3975 1875 3975 1400 
L 3975 300 
Q 3975 -25 4000 -500 
L 3475 -500 
Q 3500 -50 3500 300 
L 3500 1400 
Q 3500 1825 3475 2025 
L 4000 2025 
z
M 1900 1625 
Q 1650 1200 1350 562 
Q 1050 -75 850 -425 
Q 625 -250 325 -125 
Q 575 175 900 750 
Q 1225 1325 1450 1950 
Q 1650 1775 1900 1625 
z
M 625 3450 
Q 1200 3100 1725 2725 
Q 1525 2525 1375 2275 
Q 925 2700 325 3000 
Q 475 3200 625 3450 
z
M 925 4975 
Q 1500 4625 1900 4300 
Q 1725 4075 1550 3875 
Q 1150 4275 625 4575 
Q 800 4800 925 4975 
z
" transform="scale(0.015625)"/>
      <path id="SimHei-56fe" d="M 5800 4975 
Q 5775 4350 5775 3600 
L 5775 925 
Q 5775 150 5800 -600 
L 5300 -600 
L 5300 -275 
L 1125 -275 
L 1125 -650 
L 625 -650 
Q 650 125 650 950 
L 650 3600 
Q 650 4325 625 4975 
L 5800 4975 
z
M 5300 150 
L 5300 4575 
L 1125 4575 
L 1125 150 
L 5300 150 
z
M 3225 4250 
Q 3075 4100 2950 3925 
L 4625 3925 
Q 4525 3700 4300 3375 
Q 4075 3050 3600 2600 
Q 4350 2225 5075 2150 
Q 4900 1925 4775 1675 
Q 3850 1950 3225 2350 
Q 2500 1875 1675 1650 
Q 1600 1875 1400 2075 
Q 2200 2200 2875 2600 
Q 2525 2925 2375 3150 
Q 2150 2900 1900 2650 
Q 1725 2850 1525 2950 
Q 1950 3300 2250 3737 
Q 2550 4175 2675 4475 
Q 2925 4350 3225 4250 
z
M 2450 1275 
Q 3550 950 4100 725 
Q 3975 525 3850 300 
Q 2825 725 2275 850 
Q 2375 1050 2450 1275 
z
M 2925 2050 
Q 3775 1700 4075 1600 
Q 3950 1400 3850 1150 
Q 3000 1550 2700 1650 
Q 2825 1825 2925 2050 
z
M 2625 3450 
Q 3000 3025 3275 2850 
Q 3600 3100 3875 3525 
L 2675 3525 
L 2625 3450 
z
" transform="scale(0.015625)"/>
     </defs>
     <use xlink:href="#SimHei-4f3d"/>
     <use xlink:href="#SimHei-9a6c" transform="translate(100 0)"/>
     <use xlink:href="#SimHei-5c04" transform="translate(200 0)"/>
     <use xlink:href="#SimHei-7ebf" transform="translate(300 0)"/>
     <use xlink:href="#SimHei-5c4f" transform="translate(400 0)"/>
     <use xlink:href="#SimHei-853d" transform="translate(500 0)"/>
     <use xlink:href="#SimHei-7d2f" transform="translate(600 0)"/>
     <use xlink:href="#SimHei-79ef" transform="translate(700 0)"/>
     <use xlink:href="#SimHei-56e0" transform="translate(800 0)"/>
     <use xlink:href="#SimHei-5b50" transform="translate(900 0)"/>
     <use xlink:href="#SimHei-9884" transform="translate(1000 0)"/>
     <use xlink:href="#SimHei-6d4b" transform="translate(1100 0)"/>
     <use xlink:href="#SimHei-6a21" transform="translate(1200 0)"/>
     <use xlink:href="#SimHei-578b" transform="translate(1300 0)"/>
     <use xlink:href="#SimHei-6570" transform="translate(1400 0)"/>
     <use xlink:href="#SimHei-636e" transform="translate(1500 0)"/>
     <use xlink:href="#SimHei-6d41" transform="translate(1600 0)"/>
     <use xlink:href="#SimHei-56fe" transform="translate(1700 0)"/>
    </g>
   </g>
   <g id="text_10">
    <!-- 真实标签 -->
    <g style="fill: #008000" transform="translate(799.457143 243.076172) scale(0.09 -0.09)">
     <defs>
      <path id="SimHei-771f" d="M 3550 5100 
Q 3450 4925 3400 4625 
L 4850 4625 
Q 5175 4625 5725 4650 
L 5725 4250 
Q 5200 4275 4850 4275 
L 3350 4275 
L 3300 3850 
L 5050 3850 
Q 5025 3550 5025 3150 
L 5025 1075 
L 5400 1075 
Q 5800 1075 6075 1100 
L 6075 625 
Q 5575 650 4900 650 
L 1450 650 
Q 775 650 350 625 
L 350 1100 
Q 725 1075 1100 1075 
L 1425 1075 
L 1425 3075 
Q 1425 3450 1400 3850 
L 2825 3850 
L 2850 4275 
L 1400 4275 
Q 1050 4275 625 4250 
L 625 4650 
Q 1175 4625 1375 4625 
L 2925 4625 
Q 2950 4875 2950 5125 
Q 3300 5100 3550 5100 
z
M 4075 525 
Q 4500 425 4925 250 
Q 5350 75 5825 -150 
Q 5550 -425 5450 -575 
Q 5025 -300 4550 -100 
Q 4075 100 3800 175 
Q 3925 350 4075 525 
z
M 4525 3150 
L 4525 3475 
L 1925 3475 
L 1925 3150 
L 4525 3150 
z
M 4525 1075 
L 4525 1400 
L 1925 1400 
L 1925 1075 
L 4525 1075 
z
M 2775 200 
Q 2375 -25 1875 -225 
Q 1375 -425 950 -575 
Q 775 -400 600 -250 
Q 1225 -50 1625 137 
Q 2025 325 2350 525 
Q 2550 350 2775 200 
z
M 4525 1775 
L 4525 2075 
L 1925 2075 
L 1925 1775 
L 4525 1775 
z
M 4525 2475 
L 4525 2775 
L 1925 2775 
L 1925 2475 
L 4525 2475 
z
" transform="scale(0.015625)"/>
      <path id="SimHei-5b9e" d="M 4125 3500 
Q 4050 3200 4000 2675 
Q 3950 2150 3850 1550 
L 5025 1550 
Q 5475 1550 5975 1575 
L 5975 1100 
Q 5450 1125 5000 1125 
L 3725 1125 
Q 3500 625 3050 250 
Q 2600 -125 2000 -337 
Q 1400 -550 925 -675 
Q 825 -375 500 -200 
Q 1225 -125 2050 212 
Q 2875 550 3200 1125 
L 1425 1125 
Q 975 1125 425 1100 
L 425 1575 
Q 1000 1550 1425 1550 
L 3375 1550 
Q 3450 1975 3487 2462 
Q 3525 2950 3500 3650 
Q 3800 3550 4125 3500 
z
M 3250 5250 
Q 3450 4850 3600 4375 
L 5775 4375 
Q 5750 4100 5750 3825 
Q 5750 3575 5775 3275 
L 5200 3275 
L 5200 3975 
L 1225 3975 
L 1225 3225 
L 675 3225 
Q 700 3525 700 3800 
Q 700 4100 675 4375 
L 2975 4375 
Q 2900 4675 2700 5075 
Q 2900 5150 3250 5250 
z
M 4000 825 
Q 4550 525 5050 262 
Q 5550 0 5925 -225 
Q 5750 -425 5550 -650 
Q 5100 -325 4575 -37 
Q 4050 250 3675 400 
Q 3875 650 4000 825 
z
M 1175 2750 
Q 1600 2550 2350 2050 
Q 2250 1900 2050 1650 
Q 1350 2175 925 2350 
Q 1075 2500 1175 2750 
z
M 3150 2825 
Q 2975 2625 2850 2425 
Q 2050 3000 1675 3125 
Q 1800 3300 1950 3525 
L 3150 2825 
z
" transform="scale(0.015625)"/>
     </defs>
     <use xlink:href="#SimHei-771f"/>
     <use xlink:href="#SimHei-5b9e" transform="translate(100 0)"/>
     <use xlink:href="#SimHei-6807" transform="translate(200 0)"/>
     <use xlink:href="#SimHei-7b7e" transform="translate(300 0)"/>
    </g>
   </g>
   <g id="text_11">
    <!-- 梯度反向传播 -->
    <g style="fill: #800080" transform="translate(45.469587 499.8) rotate(-90) scale(0.09 -0.09)">
     <defs>
      <path id="SimHei-68af" d="M 4225 4225 
Q 4500 4800 4600 5225 
Q 4900 5100 5175 5025 
Q 5025 4900 4887 4687 
Q 4750 4475 4625 4225 
L 5675 4225 
Q 5650 3850 5650 3475 
Q 5650 3100 5675 2750 
L 4300 2750 
L 4300 2025 
L 5850 2025 
Q 5825 1725 5825 1350 
L 5825 675 
Q 5825 350 5625 225 
Q 5425 100 4950 25 
Q 4925 275 4700 525 
Q 5125 525 5262 575 
Q 5400 625 5400 875 
L 5400 1650 
L 4300 1650 
L 4300 450 
Q 4300 -50 4325 -525 
L 3850 -525 
Q 3875 -100 3875 425 
L 3875 1600 
Q 3575 950 3187 537 
Q 2800 125 2150 -325 
Q 2050 -75 1775 100 
Q 2375 375 2787 787 
Q 3200 1200 3450 1650 
L 2575 1650 
Q 2650 2375 2700 3125 
L 3875 3125 
L 3875 3850 
L 3325 3850 
Q 2975 3850 2575 3825 
L 2575 4250 
Q 3000 4225 3325 4225 
L 4225 4225 
z
M 1125 3725 
Q 1125 4700 1100 5075 
L 1625 5075 
Q 1550 4725 1550 3725 
Q 1975 3725 2250 3750 
L 2250 3325 
Q 1925 3350 1550 3350 
L 1550 2375 
Q 1750 2450 1950 2600 
Q 2225 2100 2425 1725 
Q 2200 1600 2000 1450 
Q 1875 1800 1550 2275 
L 1550 325 
Q 1550 -75 1575 -525 
L 1100 -525 
Q 1125 -100 1125 325 
L 1125 2275 
Q 925 1675 525 975 
Q 400 1225 200 1400 
Q 425 1675 700 2275 
Q 975 2875 1050 3350 
Q 675 3350 350 3325 
L 350 3750 
Q 725 3725 1125 3725 
z
M 5200 3125 
L 5200 3850 
L 4300 3850 
L 4300 3125 
L 5200 3125 
z
M 3875 2025 
L 3875 2750 
L 3100 2750 
L 3050 2025 
L 3875 2025 
z
M 3375 5225 
Q 3575 4900 3750 4550 
Q 3550 4475 3350 4325 
Q 3200 4700 2975 5025 
Q 3175 5100 3375 5225 
z
" transform="scale(0.015625)"/>
      <path id="SimHei-5ea6" d="M 1750 1675 
Q 2450 1650 2875 1650 
L 5200 1650 
Q 4975 1250 4650 850 
Q 4325 450 4025 200 
Q 4350 50 4950 -50 
Q 5550 -150 6100 -150 
Q 5950 -300 5825 -650 
Q 5100 -550 4550 -412 
Q 4000 -275 3625 -100 
Q 3100 -325 2587 -462 
Q 2075 -600 1525 -675 
Q 1450 -475 1225 -250 
Q 1675 -250 2250 -125 
Q 2825 0 3250 200 
Q 2825 550 2400 1275 
L 1750 1250 
L 1750 1675 
z
M 2975 5075 
Q 3250 5150 3475 5250 
Q 3625 4975 3775 4525 
L 4700 4525 
Q 4975 4525 5700 4550 
L 5700 4100 
Q 5000 4125 4650 4125 
L 1375 4125 
Q 1375 3000 1350 2312 
Q 1325 1625 1212 950 
Q 1100 275 725 -525 
Q 500 -375 250 -300 
Q 650 400 762 1075 
Q 875 1750 887 2800 
Q 900 3850 875 4525 
L 3200 4525 
Q 3100 4850 2975 5075 
z
M 2475 3300 
Q 2475 3700 2450 3925 
L 2975 3925 
Q 2950 3725 2950 3300 
L 4300 3300 
Q 4300 3700 4275 3950 
L 4800 3950 
Q 4775 3650 4775 3300 
Q 5325 3300 5725 3325 
L 5725 2900 
Q 5350 2925 4775 2925 
Q 4775 2250 4800 1950 
L 2450 1950 
Q 2475 2350 2475 2925 
Q 2175 2925 1600 2900 
L 1600 3325 
Q 2175 3300 2475 3300 
z
M 4300 2350 
L 4300 2925 
L 2950 2925 
L 2950 2350 
L 4300 2350 
z
M 2875 1275 
Q 3200 775 3650 425 
Q 4025 700 4425 1275 
L 2900 1275 
L 2875 1275 
z
" transform="scale(0.015625)"/>
     </defs>
     <use xlink:href="#SimHei-68af"/>
     <use xlink:href="#SimHei-5ea6" transform="translate(100 0)"/>
     <use xlink:href="#SimHei-53cd" transform="translate(200 0)"/>
     <use xlink:href="#SimHei-5411" transform="translate(300 0)"/>
     <use xlink:href="#SimHei-4f20" transform="translate(400 0)"/>
     <use xlink:href="#SimHei-64ad" transform="translate(500 0)"/>
    </g>
   </g>
  </g>
 </g>
 <defs>
  <clipPath id="paabfbfd817">
   <rect x="7.2" y="7.2" width="986.4" height="698.4"/>
  </clipPath>
 </defs>
</svg>
