<?xml version="1.0" encoding="utf-8" standalone="no"?>
<!DOCTYPE svg PUBLIC "-//W3C//DTD SVG 1.1//EN"
  "http://www.w3.org/Graphics/SVG/1.1/DTD/svg11.dtd">
<svg xmlns:xlink="http://www.w3.org/1999/xlink" width="856.8pt" height="712.8pt" viewBox="0 0 856.8 712.8" xmlns="http://www.w3.org/2000/svg" version="1.1">
 <metadata>
  <rdf:RDF xmlns:dc="http://purl.org/dc/elements/1.1/" xmlns:cc="http://creativecommons.org/ns#" xmlns:rdf="http://www.w3.org/1999/02/22-rdf-syntax-ns#">
   <cc:Work>
    <dc:type rdf:resource="http://purl.org/dc/dcmitype/StillImage"/>
    <dc:date>2025-09-28T15:32:02.345839</dc:date>
    <dc:format>image/svg+xml</dc:format>
    <dc:creator>
     <cc:Agent>
      <dc:title>Matplotlib v3.10.1, https://matplotlib.org/</dc:title>
     </cc:Agent>
    </dc:creator>
   </cc:Work>
  </rdf:RDF>
 </metadata>
 <defs>
  <style type="text/css">*{stroke-linejoin: round; stroke-linecap: butt}</style>
 </defs>
 <g id="figure_1">
  <g id="patch_1">
   <path d="M 0 712.8 
L 856.8 712.8 
L 856.8 0 
L 0 0 
z
" style="fill: #ffffff"/>
  </g>
  <g id="axes_1">
   <g id="patch_2">
    <path d="M 344.16 100.32 
L 512.64 100.32 
Q 521.064 100.32 521.064 94.5 
L 521.064 47.94 
Q 521.064 42.12 512.64 42.12 
L 344.16 42.12 
Q 335.736 42.12 335.736 47.94 
L 335.736 94.5 
Q 335.736 100.32 344.16 100.32 
z
" clip-path="url(#p857f2ddae4)" style="fill: #e8f4fd; stroke: #000000; stroke-linejoin: miter"/>
   </g>
   <g id="patch_3">
    <path d="M 91.44 216.72 
L 765.36 216.72 
Q 773.784 216.72 773.784 210.9 
L 773.784 123.6 
Q 773.784 117.78 765.36 117.78 
L 91.44 117.78 
Q 83.016 117.78 83.016 123.6 
L 83.016 210.9 
Q 83.016 216.72 91.44 216.72 
z
" clip-path="url(#p857f2ddae4)" style="fill: #fff2cc; stroke: #000000; stroke-linejoin: miter"/>
   </g>
   <g id="patch_4">
    <path d="M 133.56 202.17 
L 259.92 202.17 
Q 264.132 202.17 264.132 199.26 
L 264.132 170.16 
Q 264.132 167.25 259.92 167.25 
L 133.56 167.25 
Q 129.348 167.25 129.348 170.16 
L 129.348 199.26 
Q 129.348 202.17 133.56 202.17 
z
" clip-path="url(#p857f2ddae4)" style="fill: #ffffff; stroke: #808080; stroke-width: 0.5; stroke-linejoin: miter"/>
   </g>
   <g id="patch_5">
    <path d="M 344.16 202.17 
L 470.52 202.17 
Q 474.732 202.17 474.732 199.26 
L 474.732 170.16 
Q 474.732 167.25 470.52 167.25 
L 344.16 167.25 
Q 339.948 167.25 339.948 170.16 
L 339.948 199.26 
Q 339.948 202.17 344.16 202.17 
z
" clip-path="url(#p857f2ddae4)" style="fill: #ffffff; stroke: #808080; stroke-width: 0.5; stroke-linejoin: miter"/>
   </g>
   <g id="patch_6">
    <path d="M 554.76 202.17 
L 681.12 202.17 
Q 685.332 202.17 685.332 199.26 
L 685.332 170.16 
Q 685.332 167.25 681.12 167.25 
L 554.76 167.25 
Q 550.548 167.25 550.548 170.16 
L 550.548 199.26 
Q 550.548 202.17 554.76 202.17 
z
" clip-path="url(#p857f2ddae4)" style="fill: #ffffff; stroke: #808080; stroke-width: 0.5; stroke-linejoin: miter"/>
   </g>
   <g id="patch_7">
    <path d="M 344.16 292.38 
L 512.64 292.38 
Q 521.064 292.38 521.064 286.56 
L 521.064 251.64 
Q 521.064 245.82 512.64 245.82 
L 344.16 245.82 
Q 335.736 245.82 335.736 251.64 
L 335.736 286.56 
Q 335.736 292.38 344.16 292.38 
z
" clip-path="url(#p857f2ddae4)" style="fill: #d1ecf1; stroke: #000000; stroke-linejoin: miter"/>
   </g>
   <g id="patch_8">
    <path d="M 91.44 391.32 
L 765.36 391.32 
Q 773.784 391.32 773.784 385.5 
L 773.784 315.66 
Q 773.784 309.84 765.36 309.84 
L 91.44 309.84 
Q 83.016 309.84 83.016 315.66 
L 83.016 385.5 
Q 83.016 391.32 91.44 391.32 
z
" clip-path="url(#p857f2ddae4)" style="fill: #ffe6cc; stroke: #000000; stroke-linejoin: miter"/>
   </g>
   <g id="patch_9">
    <path d="M 344.16 466.98 
L 512.64 466.98 
Q 521.064 466.98 521.064 461.16 
L 521.064 426.24 
Q 521.064 420.42 512.64 420.42 
L 344.16 420.42 
Q 335.736 420.42 335.736 426.24 
L 335.736 461.16 
Q 335.736 466.98 344.16 466.98 
z
" clip-path="url(#p857f2ddae4)" style="fill: #d1ecf1; stroke: #000000; stroke-linejoin: miter"/>
   </g>
   <g id="patch_10">
    <path d="M 344.16 565.92 
L 512.64 565.92 
Q 521.064 565.92 521.064 560.1 
L 521.064 513.54 
Q 521.064 507.72 512.64 507.72 
L 344.16 507.72 
Q 335.736 507.72 335.736 513.54 
L 335.736 560.1 
Q 335.736 565.92 344.16 565.92 
z
" clip-path="url(#p857f2ddae4)" style="fill: #d4edda; stroke: #000000; stroke-linejoin: miter"/>
   </g>
   <g id="text_1">
    <!-- 输入 X -->
    <g transform="translate(410.4 75.321562) scale(0.12 -0.12)">
     <defs>
      <path id="SimHei-8f93" d="M 3225 3650 
Q 2725 3100 2550 2950 
L 4100 2950 
Q 4075 2675 4075 2275 
L 4075 -100 
Q 4100 -325 3962 -425 
Q 3825 -525 3475 -600 
Q 3400 -350 3225 -100 
Q 3650 -100 3650 25 
L 3650 675 
L 2975 675 
L 2975 -575 
L 2525 -575 
Q 2550 -125 2550 325 
L 2550 2075 
Q 2550 2500 2525 2925 
L 2375 2800 
Q 2200 3000 1950 3100 
Q 2575 3525 3025 4087 
Q 3475 4650 3775 5300 
Q 4075 5150 4325 5100 
L 4225 4975 
Q 4700 4325 5225 3975 
Q 5750 3625 6200 3475 
Q 5975 3275 5825 3025 
Q 5275 3300 4875 3650 
L 4875 3350 
L 3225 3350 
L 3225 3650 
z
M 2225 825 
Q 1975 775 1725 675 
Q 1725 -100 1750 -650 
L 1275 -650 
Q 1300 -100 1300 575 
Q 725 425 475 325 
Q 400 575 250 825 
Q 650 875 1300 1025 
L 1300 1975 
Q 700 1925 400 1800 
L 225 2225 
Q 425 2350 600 2850 
Q 775 3350 875 3825 
Q 625 3825 350 3800 
L 350 4250 
Q 675 4225 950 4225 
Q 1050 4700 1075 5175 
Q 1400 5075 1675 5025 
Q 1525 4850 1400 4225 
Q 1925 4225 2300 4250 
L 2300 3800 
Q 1850 3825 1325 3825 
Q 1075 2900 825 2325 
L 1300 2375 
Q 1300 2700 1275 3125 
L 1750 3125 
Q 1725 2900 1725 2425 
L 2150 2475 
L 2150 2075 
L 1725 2025 
L 1725 1125 
L 2225 1250 
L 2225 825 
z
M 5775 2925 
Q 5750 2525 5750 2150 
L 5750 -100 
Q 5750 -375 5625 -475 
Q 5500 -575 5000 -675 
Q 4950 -450 4750 -175 
Q 5300 -200 5325 0 
L 5325 2100 
Q 5325 2500 5300 2925 
L 5775 2925 
z
M 4975 2700 
Q 4950 2400 4950 2000 
L 4950 900 
Q 4950 425 4975 125 
L 4475 125 
Q 4500 500 4500 875 
L 4500 2000 
Q 4500 2350 4475 2700 
L 4975 2700 
z
M 4750 3750 
Q 4450 4025 3975 4675 
Q 3575 4075 3300 3750 
L 4750 3750 
z
M 3650 2000 
L 3650 2575 
L 2975 2575 
L 2975 2000 
L 3650 2000 
z
M 3650 1075 
L 3650 1625 
L 2975 1625 
L 2975 1075 
L 3650 1075 
z
" transform="scale(0.015625)"/>
      <path id="SimHei-5165" d="M 5650 -375 
Q 5050 25 4500 650 
Q 3950 1275 3275 3050 
Q 2575 975 675 -475 
Q 575 -225 225 50 
Q 1850 825 2975 3525 
Q 2900 3725 2525 4125 
Q 2150 4525 1750 4675 
Q 2025 4900 2175 5125 
Q 2800 4650 3175 4225 
Q 3550 3800 4125 2375 
Q 4700 950 6125 250 
Q 5775 0 5650 -375 
z
" transform="scale(0.015625)"/>
      <path id="SimHei-20" transform="scale(0.015625)"/>
      <path id="SimHei-58" d="M 3000 125 
L 2400 125 
L 1550 1875 
L 700 125 
L 100 125 
L 1275 2375 
L 225 4400 
L 825 4400 
L 1550 2850 
L 2275 4400 
L 2875 4400 
L 1825 2375 
L 3000 125 
z
" transform="scale(0.015625)"/>
     </defs>
     <use xlink:href="#SimHei-8f93"/>
     <use xlink:href="#SimHei-5165" transform="translate(100 0)"/>
     <use xlink:href="#SimHei-20" transform="translate(200 0)"/>
     <use xlink:href="#SimHei-58" transform="translate(250 0)"/>
    </g>
   </g>
   <g id="text_2">
    <!-- 多头自注意力机制 -->
    <g transform="translate(380.4 156.778125) scale(0.12 -0.12)">
     <defs>
      <path id="SimHei-591a" d="M 3800 2950 
Q 4000 2750 4275 2650 
Q 4050 2450 3850 2275 
L 5925 2275 
Q 5625 1525 5137 975 
Q 4650 425 4050 125 
Q 3450 -175 2725 -375 
Q 2000 -575 950 -675 
Q 850 -400 650 -150 
Q 1275 -175 2137 -25 
Q 3000 125 3700 450 
Q 3250 900 2950 1175 
Q 3150 1325 3300 1500 
Q 3650 1150 4100 675 
Q 4425 875 4712 1187 
Q 5000 1500 5200 1900 
L 3475 1900 
Q 3225 1700 2775 1412 
Q 2325 1125 1525 775 
Q 1400 1025 1200 1175 
Q 2025 1425 2762 1950 
Q 3500 2475 3800 2950 
z
M 900 1850 
Q 800 2100 575 2325 
Q 1050 2350 1725 2525 
Q 2400 2700 2775 2900 
Q 2475 3300 2100 3600 
Q 2300 3750 2425 3925 
Q 2900 3475 3200 3125 
Q 3575 3350 3875 3612 
Q 4175 3875 4400 4175 
L 2250 4175 
Q 1725 3725 1025 3275 
Q 875 3500 650 3625 
Q 1325 3925 1875 4400 
Q 2425 4875 2600 5225 
Q 2800 5075 3025 4925 
Q 2900 4825 2625 4550 
L 5225 4550 
Q 4500 3500 3800 3025 
Q 3100 2550 2437 2312 
Q 1775 2075 900 1850 
z
" transform="scale(0.015625)"/>
      <path id="SimHei-5934" d="M 4175 5100 
Q 4000 4750 4000 4100 
Q 4000 3475 3875 2150 
L 5025 2150 
Q 5500 2150 6100 2175 
L 6100 1650 
Q 5500 1675 5075 1675 
L 3775 1675 
Q 3500 975 3075 575 
Q 2650 175 2162 -112 
Q 1675 -400 950 -700 
Q 825 -450 500 -250 
Q 1125 -175 2050 375 
Q 2975 925 3250 1675 
L 1425 1675 
Q 925 1675 375 1650 
L 375 2175 
Q 925 2150 1275 2150 
L 3400 2150 
Q 3450 2575 3487 3250 
Q 3525 3925 3525 5200 
Q 3800 5150 4175 5100 
z
M 4050 1150 
Q 4500 900 4975 575 
Q 5450 250 6000 -125 
Q 5825 -250 5650 -550 
Q 5200 -225 4750 112 
Q 4300 450 3750 750 
Q 3875 900 4050 1150 
z
M 975 3650 
Q 1850 3175 2325 2850 
Q 2100 2650 1950 2400 
Q 1725 2650 650 3250 
Q 850 3450 975 3650 
z
M 1650 4900 
Q 2375 4475 3000 4050 
Q 2800 3900 2650 3625 
Q 2150 4050 1350 4525 
Q 1525 4700 1650 4900 
z
" transform="scale(0.015625)"/>
      <path id="SimHei-81ea" d="M 3200 5075 
Q 3050 4850 2900 4225 
L 5400 4225 
Q 5375 3650 5375 3175 
L 5375 375 
Q 5375 -75 5400 -525 
L 4900 -525 
L 4900 75 
L 1550 75 
L 1550 -525 
L 1050 -525 
Q 1075 -50 1075 350 
L 1075 3200 
Q 1075 3650 1050 4225 
L 2425 4225 
Q 2525 4900 2550 5225 
Q 2850 5125 3200 5075 
z
M 4900 475 
L 4900 1375 
L 1550 1375 
L 1550 475 
L 4900 475 
z
M 4900 2975 
L 4900 3800 
L 1550 3800 
L 1550 2975 
L 4900 2975 
z
M 4900 1775 
L 4900 2575 
L 1550 2575 
L 1550 1775 
L 4900 1775 
z
" transform="scale(0.015625)"/>
      <path id="SimHei-6ce8" d="M 4675 4050 
Q 5150 4050 5775 4075 
L 5775 3600 
Q 5100 3625 4700 3625 
L 4200 3625 
L 4200 2250 
L 4675 2250 
Q 5100 2250 5675 2275 
L 5675 1800 
Q 5125 1825 4675 1825 
L 4200 1825 
L 4200 0 
L 4825 0 
Q 5425 0 6075 25 
L 6075 -450 
Q 5425 -425 4850 -425 
L 3025 -425 
Q 2375 -425 1950 -450 
L 1950 25 
Q 2350 0 3050 0 
L 3700 0 
L 3700 1825 
L 3300 1825 
Q 2825 1825 2400 1800 
L 2400 2275 
Q 2825 2250 3325 2250 
L 3700 2250 
L 3700 3625 
L 3225 3625 
Q 2725 3625 2225 3600 
L 2225 4075 
Q 2725 4050 3250 4050 
L 4675 4050 
z
M 1950 1425 
Q 1675 975 1337 287 
Q 1000 -400 875 -675 
Q 625 -425 325 -250 
Q 600 0 950 612 
Q 1300 1225 1575 1800 
Q 1750 1575 1950 1425 
z
M 725 3350 
Q 1300 2975 1750 2675 
Q 1600 2500 1425 2225 
Q 950 2650 425 2950 
Q 575 3100 725 3350 
z
M 1025 5025 
Q 1625 4575 1950 4225 
Q 1725 4050 1600 3850 
Q 1175 4350 675 4650 
Q 850 4825 1025 5025 
z
M 3225 4950 
Q 3400 5075 3575 5250 
Q 3900 4975 4375 4450 
Q 4175 4300 3975 4125 
Q 3550 4650 3225 4950 
z
" transform="scale(0.015625)"/>
      <path id="SimHei-610f" d="M 5175 2900 
Q 5150 2425 5150 1975 
Q 5150 1550 5175 1050 
L 1200 1050 
Q 1225 1550 1225 2000 
Q 1225 2450 1200 2900 
L 5175 2900 
z
M 1575 4250 
Q 1125 4250 625 4225 
L 625 4650 
Q 1150 4625 1575 4625 
L 3075 4625 
Q 3050 4825 2900 5150 
Q 3175 5175 3475 5250 
Q 3575 4800 3625 4625 
L 4775 4625 
Q 5275 4625 5650 4650 
L 5650 4225 
Q 5225 4250 4775 4250 
L 2275 4250 
Q 2450 4000 2575 3775 
L 2225 3625 
L 3800 3625 
Q 3900 3750 4025 4200 
Q 4325 4125 4575 4050 
Q 4400 3825 4300 3625 
L 5050 3625 
Q 5600 3625 6075 3650 
L 6075 3225 
Q 5600 3250 5050 3250 
L 1300 3250 
Q 775 3250 325 3225 
L 325 3650 
Q 800 3625 1300 3625 
L 2125 3625 
Q 2050 3825 1875 4050 
Q 2025 4125 2225 4250 
L 1575 4250 
z
M 2325 725 
Q 2300 450 2300 275 
Q 2300 125 2312 0 
Q 2325 -125 2550 -125 
L 4025 -125 
Q 4175 -75 4275 450 
Q 4475 275 4825 175 
Q 4650 -300 4525 -400 
Q 4400 -500 4100 -500 
L 2275 -500 
Q 1850 -475 1825 -287 
Q 1800 -100 1800 150 
Q 1800 400 1750 725 
L 2325 725 
z
M 4650 2150 
L 4650 2550 
L 1725 2550 
L 1725 2150 
L 4650 2150 
z
M 4650 1425 
L 4650 1775 
L 1725 1775 
L 1725 1425 
L 4650 1425 
z
M 5400 850 
Q 5875 225 6125 -75 
Q 5900 -250 5725 -375 
Q 5550 -100 5000 575 
Q 5150 700 5400 850 
z
M 1275 575 
Q 1050 100 800 -550 
Q 500 -425 300 -375 
Q 600 25 800 725 
Q 1025 625 1275 575 
z
M 3325 975 
Q 3600 600 3775 350 
Q 3550 200 3325 75 
Q 3250 300 2900 700 
Q 3050 825 3325 975 
z
" transform="scale(0.015625)"/>
      <path id="SimHei-529b" d="M 3275 3275 
Q 3200 2400 3050 1875 
Q 2900 1350 2637 912 
Q 2375 475 1950 87 
Q 1525 -300 925 -675 
Q 800 -475 425 -250 
Q 1025 50 1425 375 
Q 1825 700 2112 1112 
Q 2400 1525 2537 2050 
Q 2675 2575 2725 3275 
L 2000 3275 
Q 1275 3275 675 3250 
L 675 3750 
Q 1275 3725 2000 3725 
L 2750 3725 
L 2750 4475 
Q 2750 4825 2725 5200 
Q 3000 5150 3350 5125 
Q 3300 4900 3287 4475 
Q 3275 4050 3275 3725 
L 5825 3725 
Q 5725 2375 5700 1862 
Q 5675 1350 5600 612 
Q 5525 -125 5187 -300 
Q 4850 -475 4025 -550 
Q 4000 -250 3775 100 
Q 4500 75 4750 175 
Q 5000 275 5037 550 
Q 5075 825 5112 1262 
Q 5150 1700 5225 3275 
L 3275 3275 
z
" transform="scale(0.015625)"/>
      <path id="SimHei-673a" d="M 5100 4775 
Q 5075 4075 5075 3575 
L 5075 325 
Q 5075 0 5225 -25 
Q 5375 -50 5475 -37 
Q 5575 -25 5612 137 
Q 5650 300 5650 625 
Q 5875 500 6175 425 
Q 6075 -100 5975 -275 
Q 5875 -450 5650 -450 
L 5125 -450 
Q 4825 -450 4687 -312 
Q 4550 -175 4575 250 
L 4575 4350 
L 3625 4350 
Q 3625 2925 3587 2137 
Q 3550 1350 3362 712 
Q 3175 75 2625 -575 
Q 2500 -425 2175 -175 
Q 2525 100 2737 500 
Q 2950 900 3025 1325 
Q 3100 1750 3125 2225 
Q 3150 2700 3150 3425 
Q 3150 4175 3125 4775 
L 5100 4775 
z
M 2150 2725 
Q 2550 2175 2750 1875 
Q 2575 1725 2325 1550 
Q 2175 1875 1800 2425 
L 1800 600 
Q 1800 100 1825 -525 
L 1275 -525 
Q 1300 100 1300 600 
L 1300 2200 
Q 1175 1825 1025 1487 
Q 875 1150 600 725 
Q 375 975 200 1125 
Q 400 1350 725 2000 
Q 1050 2650 1225 3450 
L 1075 3450 
Q 725 3450 375 3400 
L 375 3875 
Q 725 3850 1050 3850 
L 1300 3850 
L 1300 4350 
Q 1300 4750 1275 5100 
L 1850 5100 
Q 1800 4850 1800 4350 
L 1800 3850 
L 2075 3850 
Q 2350 3850 2700 3875 
L 2700 3425 
Q 2150 3450 1800 3450 
L 1800 2450 
Q 1950 2575 2150 2725 
z
" transform="scale(0.015625)"/>
      <path id="SimHei-5236" d="M 1325 4625 
Q 1175 4375 1075 4150 
L 1800 4150 
Q 1800 4775 1775 5125 
L 2350 5125 
Q 2325 4800 2325 4150 
L 2700 4150 
Q 3200 4150 3600 4175 
L 3600 3725 
Q 3250 3750 2725 3750 
L 2325 3750 
L 2325 3025 
L 2950 3025 
Q 3325 3025 3750 3050 
L 3750 2625 
L 2325 2625 
L 2325 1950 
L 3675 1950 
Q 3650 1650 3637 1125 
Q 3625 600 3612 412 
Q 3600 225 3400 137 
Q 3200 50 2825 -25 
Q 2775 250 2650 550 
Q 2975 550 3050 587 
Q 3125 625 3125 975 
L 3125 1550 
L 2325 1550 
L 2325 175 
Q 2325 -250 2350 -550 
L 1775 -550 
Q 1800 -75 1800 175 
L 1800 1550 
L 1025 1550 
L 1025 -25 
L 500 -25 
Q 525 300 525 650 
L 525 1200 
Q 525 1675 500 1950 
L 1800 1950 
L 1800 2625 
L 1000 2625 
Q 550 2625 225 2600 
L 225 3050 
Q 550 3025 1000 3025 
L 1800 3025 
L 1800 3750 
L 925 3750 
Q 800 3450 675 3250 
Q 450 3400 225 3500 
Q 400 3750 525 4075 
Q 650 4400 750 4800 
Q 1000 4700 1325 4625 
z
M 5875 5075 
Q 5850 4825 5850 4350 
L 5850 25 
Q 5850 -325 5587 -412 
Q 5325 -500 4825 -575 
Q 4750 -250 4625 0 
Q 5050 0 5200 25 
Q 5350 50 5350 350 
L 5350 4350 
Q 5350 4775 5325 5075 
L 5875 5075 
z
M 4675 4325 
Q 4650 3975 4650 3700 
L 4650 1625 
Q 4650 1275 4675 775 
L 4125 775 
Q 4175 1200 4175 1625 
L 4175 3700 
Q 4175 3950 4125 4325 
L 4675 4325 
z
" transform="scale(0.015625)"/>
     </defs>
     <use xlink:href="#SimHei-591a"/>
     <use xlink:href="#SimHei-5934" transform="translate(100 0)"/>
     <use xlink:href="#SimHei-81ea" transform="translate(200 0)"/>
     <use xlink:href="#SimHei-6ce8" transform="translate(300 0)"/>
     <use xlink:href="#SimHei-610f" transform="translate(400 0)"/>
     <use xlink:href="#SimHei-529b" transform="translate(500 0)"/>
     <use xlink:href="#SimHei-673a" transform="translate(600 0)"/>
     <use xlink:href="#SimHei-5236" transform="translate(700 0)"/>
    </g>
   </g>
   <g id="text_3">
    <!-- Q -->
    <g transform="translate(194.24 187.5225) scale(0.1 -0.1)">
     <defs>
      <path id="SimHei-51" d="M 2950 2275 
Q 2950 1675 2862 1262 
Q 2775 850 2575 600 
L 2775 225 
L 2375 -200 
L 2150 225 
Q 2050 150 1900 112 
Q 1750 75 1575 75 
Q 925 75 550 587 
Q 175 1100 175 2275 
Q 175 3450 550 3950 
Q 925 4450 1575 4450 
Q 2225 4450 2587 3950 
Q 2950 3450 2950 2275 
z
M 2350 2275 
Q 2350 3325 2125 3650 
Q 1900 3975 1575 3975 
Q 1250 3975 1012 3650 
Q 775 3325 775 2275 
Q 775 1225 1012 887 
Q 1250 550 1575 550 
Q 1700 550 1800 587 
Q 1900 625 1950 675 
L 1550 1450 
L 1900 1875 
L 2250 1200 
Q 2300 1450 2325 1650 
Q 2350 1850 2350 2275 
z
" transform="scale(0.015625)"/>
     </defs>
     <use xlink:href="#SimHei-51"/>
    </g>
   </g>
   <g id="text_4">
    <!-- K -->
    <g transform="translate(404.84 187.5225) scale(0.1 -0.1)">
     <defs>
      <path id="SimHei-4b" d="M 3050 125 
L 2400 125 
L 1250 2250 
L 850 1725 
L 850 125 
L 275 125 
L 275 4400 
L 850 4400 
L 850 2550 
L 2275 4400 
L 2950 4400 
L 1625 2725 
L 3050 125 
z
" transform="scale(0.015625)"/>
     </defs>
     <use xlink:href="#SimHei-4b"/>
    </g>
   </g>
   <g id="text_5">
    <!-- V -->
    <g transform="translate(615.44 187.5225) scale(0.1 -0.1)">
     <defs>
      <path id="SimHei-56" d="M 3050 4400 
L 1800 75 
L 1300 75 
L 50 4400 
L 650 4400 
L 1525 1125 
L 1575 1125 
L 2450 4400 
L 3050 4400 
z
" transform="scale(0.015625)"/>
     </defs>
     <use xlink:href="#SimHei-56"/>
    </g>
   </g>
   <g id="text_6">
    <!-- 残差连接 + LayerNorm -->
    <g transform="translate(378.4 272.557031) scale(0.1 -0.1)">
     <defs>
      <path id="SimHei-6b8b" d="M 5700 3350 
Q 5325 3300 4900 3225 
Q 4475 3150 4075 3075 
Q 4100 2700 4150 2325 
Q 4625 2425 4987 2500 
Q 5350 2575 5925 2725 
L 6000 2250 
Q 5775 2225 5300 2137 
Q 4825 2050 4200 1900 
Q 4300 1375 4475 1075 
Q 5025 1500 5325 1950 
Q 5525 1750 5800 1550 
Q 5550 1425 5350 1237 
Q 5150 1050 4675 650 
Q 5000 200 5275 37 
Q 5550 -125 5600 -12 
Q 5650 100 5625 525 
Q 5825 325 6175 300 
Q 6125 -850 5450 -587 
Q 4775 -325 4275 400 
Q 3950 150 3537 -75 
Q 3125 -300 2625 -525 
Q 2475 -250 2250 -100 
Q 2775 50 3200 262 
Q 3625 475 4075 775 
Q 3850 1225 3750 1800 
Q 3100 1675 2700 1525 
L 2575 2025 
Q 3300 2125 3700 2225 
Q 3650 2600 3625 3000 
Q 3225 2950 2800 2850 
L 2675 3325 
Q 3150 3375 3600 3450 
Q 3575 3925 3550 4275 
Q 3525 4625 3475 5125 
Q 3775 5075 4050 5075 
Q 4025 4700 4012 4412 
Q 4000 4125 4050 3525 
Q 5200 3725 5625 3850 
L 5700 3350 
z
M 2125 4650 
Q 2450 4650 2800 4675 
L 2800 4175 
Q 2450 4200 2125 4200 
L 1675 4200 
Q 1550 3700 1425 3225 
L 2600 3225 
Q 2525 2500 2400 1925 
Q 2275 1350 2050 925 
Q 1825 500 1512 137 
Q 1200 -225 675 -625 
Q 525 -400 250 -225 
Q 700 25 1037 375 
Q 1375 725 1575 1075 
Q 1275 1450 950 1750 
Q 1125 1900 1250 2100 
Q 1550 1825 1800 1550 
Q 2025 2175 2075 2775 
L 1300 2775 
Q 1125 2375 987 2150 
Q 850 1925 550 1525 
Q 350 1825 200 1925 
Q 575 2300 825 2862 
Q 1075 3425 1200 4200 
Q 775 4200 375 4175 
L 375 4675 
Q 750 4650 1075 4650 
L 2125 4650 
z
M 4825 4975 
Q 5150 4575 5425 4175 
Q 5125 4050 4975 3900 
Q 4750 4325 4400 4700 
Q 4600 4825 4825 4975 
z
" transform="scale(0.015625)"/>
      <path id="SimHei-5dee" d="M 4725 4975 
Q 4500 4725 4250 4275 
L 4850 4275 
Q 5450 4275 5825 4300 
L 5825 3850 
Q 5425 3875 4850 3875 
L 3275 3875 
Q 3225 3600 3150 3275 
L 4525 3275 
Q 5075 3275 5525 3300 
L 5525 2850 
Q 5075 2875 4500 2875 
L 3050 2875 
Q 2975 2650 2850 2325 
L 5125 2325 
Q 5675 2325 6025 2350 
L 6025 1900 
Q 5700 1925 5150 1925 
L 2650 1925 
Q 2425 1550 2250 1300 
Q 2650 1275 3100 1275 
L 4525 1275 
Q 4975 1275 5350 1300 
L 5350 850 
Q 4975 875 4575 875 
L 3925 875 
L 3925 -50 
L 5000 -50 
Q 5200 -50 5900 -25 
L 5900 -500 
Q 5275 -475 5025 -475 
L 2100 -475 
Q 1700 -475 1400 -500 
L 1400 -25 
Q 1775 -50 2125 -50 
L 3425 -50 
L 3425 875 
L 3100 875 
Q 2625 875 2175 850 
L 2175 1200 
Q 1925 875 1487 475 
Q 1050 75 625 -250 
Q 425 -25 200 150 
Q 750 475 1262 925 
Q 1775 1375 2100 1925 
L 1325 1925 
Q 750 1925 375 1900 
L 375 2350 
Q 750 2325 1350 2325 
L 2325 2325 
Q 2450 2575 2550 2875 
L 1725 2875 
Q 1375 2875 1000 2850 
L 1000 3300 
Q 1500 3275 1700 3275 
L 2650 3275 
Q 2725 3575 2775 3875 
L 1500 3875 
Q 1100 3875 650 3850 
L 650 4300 
Q 1025 4275 1425 4275 
L 2275 4275 
Q 2075 4675 1850 4950 
Q 2025 5050 2250 5225 
Q 2450 4975 2725 4550 
Q 2525 4450 2325 4275 
L 3750 4275 
Q 4000 4700 4150 5250 
Q 4400 5100 4725 4975 
z
" transform="scale(0.015625)"/>
      <path id="SimHei-8fde" d="M 3175 4350 
Q 3425 4925 3475 5200 
Q 3875 5025 4050 4975 
Q 3925 4875 3675 4350 
L 5025 4350 
Q 5550 4350 5850 4375 
L 5850 3925 
Q 5525 3950 5100 3950 
L 3475 3950 
Q 3350 3700 2875 2925 
L 3875 2925 
Q 3875 3400 3850 3725 
L 4350 3725 
Q 4325 3450 4325 2925 
Q 5575 2925 5650 2950 
L 5650 2475 
Q 5500 2525 4325 2525 
L 4325 1700 
L 5250 1700 
Q 5800 1700 5950 1725 
L 5950 1275 
Q 5650 1300 5250 1300 
L 4325 1300 
Q 4325 600 4350 75 
L 3850 75 
Q 3875 600 3875 1300 
Q 2150 1300 1975 1275 
L 1975 1725 
Q 2650 1700 3875 1700 
L 3875 2525 
L 3075 2525 
Q 2525 2500 2375 2450 
L 2200 2900 
Q 2400 3025 2587 3275 
Q 2775 3525 2975 3950 
Q 2325 3950 1975 3925 
L 1975 4375 
Q 2300 4350 3175 4350 
z
M 1625 2925 
Q 1600 2425 1600 2100 
L 1600 550 
Q 2325 -75 3825 -75 
Q 5350 -75 6175 0 
Q 6025 -250 5975 -550 
Q 4975 -550 4175 -537 
Q 3375 -525 2750 -412 
Q 2125 -300 1762 -50 
Q 1400 200 1175 -12 
Q 950 -225 675 -550 
Q 525 -350 275 -175 
Q 850 300 1100 475 
L 1100 2525 
Q 775 2525 400 2500 
L 400 2950 
Q 800 2925 1125 2925 
L 1625 2925 
z
M 975 4950 
Q 1450 4275 1775 3750 
Q 1550 3675 1300 3500 
Q 1175 3875 550 4650 
Q 775 4850 975 4950 
z
" transform="scale(0.015625)"/>
      <path id="SimHei-63a5" d="M 4225 2275 
Q 4150 2200 4000 1900 
L 5600 1900 
Q 6050 1925 6150 1925 
L 6150 1475 
Q 5975 1500 5650 1500 
L 5225 1500 
Q 5000 925 4700 500 
Q 5475 125 6050 -175 
Q 5975 -250 5675 -625 
Q 5275 -325 4375 150 
Q 4025 -150 3562 -337 
Q 3100 -525 2450 -650 
Q 2425 -450 2225 -200 
Q 2625 -150 3075 -37 
Q 3525 75 3925 350 
Q 3700 450 2875 800 
Q 3025 1025 3275 1500 
L 2875 1500 
Q 2475 1500 2300 1475 
L 2300 1950 
Q 2425 1925 2850 1900 
L 3450 1900 
Q 3625 2325 3650 2500 
Q 4075 2325 4225 2275 
z
M 1175 3950 
L 1175 4700 
Q 1175 4850 1125 5125 
L 1675 5125 
Q 1625 4850 1625 4700 
L 1625 3950 
Q 1875 3950 2250 3975 
L 2250 3500 
Q 1875 3525 1625 3525 
L 1625 2350 
Q 1750 2425 2200 2625 
Q 2200 2300 2225 2150 
Q 1775 1950 1625 1875 
L 1625 75 
Q 1625 -275 1425 -425 
Q 1225 -575 650 -625 
Q 650 -450 450 -25 
Q 950 -100 1050 -25 
Q 1150 50 1175 275 
L 1175 1700 
Q 975 1625 450 1325 
Q 325 1700 225 1875 
Q 850 2025 1175 2175 
L 1175 3525 
L 1000 3525 
Q 650 3525 300 3500 
L 300 4000 
Q 675 3950 1000 3950 
L 1175 3950 
z
M 4775 4100 
Q 5200 3875 5350 3825 
Q 5200 3700 4925 2950 
L 5425 2950 
Q 5825 2975 5950 3000 
L 5950 2525 
Q 5775 2550 5475 2550 
L 3025 2550 
Q 2850 2550 2450 2525 
L 2450 3000 
Q 2825 2975 2975 2950 
L 4450 2950 
Q 4700 3625 4775 4100 
z
M 3950 4575 
Q 3850 5000 3775 5150 
Q 4125 5225 4300 5275 
L 4500 4575 
L 5350 4575 
Q 5700 4600 5950 4600 
L 5950 4150 
Q 5675 4175 5375 4175 
L 3175 4175 
Q 2775 4175 2500 4150 
L 2500 4600 
Q 2750 4575 3100 4575 
L 3950 4575 
z
M 3475 1000 
Q 4050 800 4300 650 
Q 4625 1125 4750 1500 
L 3800 1500 
Q 3575 1175 3475 1000 
z
M 3425 3950 
Q 3725 3450 3850 3200 
Q 3450 3075 3350 3000 
Q 3150 3475 2975 3700 
Q 3250 3825 3425 3950 
z
" transform="scale(0.015625)"/>
      <path id="SimHei-2b" d="M 3000 2125 
L 1775 2125 
L 1775 900 
L 1350 900 
L 1350 2125 
L 125 2125 
L 125 2525 
L 1350 2525 
L 1350 3750 
L 1775 3750 
L 1775 2525 
L 3000 2525 
L 3000 2125 
z
" transform="scale(0.015625)"/>
      <path id="SimHei-4c" d="M 2900 125 
L 300 125 
L 300 4400 
L 875 4400 
L 875 600 
L 2900 600 
L 2900 125 
z
" transform="scale(0.015625)"/>
      <path id="SimHei-61" d="M 2875 125 
L 2275 125 
Q 2225 175 2200 262 
Q 2175 350 2175 475 
Q 2000 275 1750 175 
Q 1500 75 1225 75 
Q 825 75 550 275 
Q 275 475 275 850 
Q 275 1225 525 1450 
Q 775 1675 1300 1750 
Q 1650 1800 1912 1875 
Q 2175 1950 2175 2075 
Q 2175 2225 2062 2375 
Q 1950 2525 1575 2525 
Q 1275 2525 1137 2412 
Q 1000 2300 950 2100 
L 400 2100 
Q 450 2500 762 2737 
Q 1075 2975 1575 2975 
Q 2125 2975 2400 2725 
Q 2675 2475 2675 2025 
L 2675 650 
Q 2675 500 2725 375 
Q 2775 250 2875 125 
z
M 2175 1050 
L 2175 1550 
Q 2025 1500 1887 1462 
Q 1750 1425 1425 1375 
Q 1050 1325 937 1200 
Q 825 1075 825 900 
Q 825 750 937 637 
Q 1050 525 1275 525 
Q 1500 525 1762 650 
Q 2025 775 2175 1050 
z
" transform="scale(0.015625)"/>
      <path id="SimHei-79" d="M 2900 2925 
L 1750 -100 
Q 1650 -450 1450 -625 
Q 1250 -800 950 -800 
Q 825 -800 712 -787 
Q 600 -775 500 -725 
L 500 -225 
Q 600 -275 700 -300 
Q 800 -325 875 -325 
Q 1075 -325 1150 -262 
Q 1225 -200 1300 25 
L 200 2925 
L 750 2925 
L 1550 725 
L 1575 725 
L 2350 2925 
L 2900 2925 
z
" transform="scale(0.015625)"/>
      <path id="SimHei-65" d="M 2850 1075 
Q 2800 625 2450 350 
Q 2100 75 1625 75 
Q 1025 75 637 462 
Q 250 850 250 1525 
Q 250 2200 637 2587 
Q 1025 2975 1625 2975 
Q 2150 2975 2487 2637 
Q 2825 2300 2825 1525 
L 800 1525 
Q 800 975 1037 750 
Q 1275 525 1625 525 
Q 1900 525 2075 662 
Q 2250 800 2300 1075 
L 2850 1075 
z
M 2250 1925 
Q 2200 2275 2025 2412 
Q 1850 2550 1575 2550 
Q 1325 2550 1125 2412 
Q 925 2275 825 1925 
L 2250 1925 
z
" transform="scale(0.015625)"/>
      <path id="SimHei-72" d="M 2500 2425 
Q 2025 2500 1700 2287 
Q 1375 2075 1150 1550 
L 1150 125 
L 650 125 
L 650 2925 
L 1150 2925 
L 1150 2200 
Q 1375 2600 1712 2787 
Q 2050 2975 2500 2975 
L 2500 2425 
z
" transform="scale(0.015625)"/>
      <path id="SimHei-4e" d="M 2850 125 
L 2225 125 
L 850 3225 
L 825 3225 
L 825 125 
L 250 125 
L 250 4400 
L 875 4400 
L 2250 1300 
L 2275 1300 
L 2275 4400 
L 2850 4400 
L 2850 125 
z
" transform="scale(0.015625)"/>
      <path id="SimHei-6f" d="M 2925 1525 
Q 2925 875 2525 475 
Q 2125 75 1575 75 
Q 1025 75 625 475 
Q 225 875 225 1525 
Q 225 2175 625 2575 
Q 1025 2975 1575 2975 
Q 2125 2975 2525 2575 
Q 2925 2175 2925 1525 
z
M 2375 1525 
Q 2375 2025 2125 2275 
Q 1875 2525 1575 2525 
Q 1275 2525 1025 2275 
Q 775 2025 775 1525 
Q 775 1025 1025 775 
Q 1275 525 1575 525 
Q 1875 525 2125 775 
Q 2375 1025 2375 1525 
z
" transform="scale(0.015625)"/>
      <path id="SimHei-6d" d="M 3050 125 
L 2550 125 
L 2550 2150 
Q 2550 2300 2500 2400 
Q 2450 2500 2300 2500 
Q 2125 2500 1975 2312 
Q 1825 2125 1825 1825 
L 1825 125 
L 1325 125 
L 1325 2150 
Q 1325 2300 1275 2400 
Q 1225 2500 1075 2500 
Q 900 2500 750 2312 
Q 600 2125 600 1825 
L 600 125 
L 100 125 
L 100 2925 
L 600 2925 
L 600 2550 
Q 725 2750 900 2862 
Q 1075 2975 1275 2975 
Q 1475 2975 1612 2862 
Q 1750 2750 1800 2550 
Q 1925 2750 2087 2862 
Q 2250 2975 2450 2975 
Q 2750 2975 2900 2812 
Q 3050 2650 3050 2350 
L 3050 125 
z
" transform="scale(0.015625)"/>
     </defs>
     <use xlink:href="#SimHei-6b8b"/>
     <use xlink:href="#SimHei-5dee" transform="translate(100 0)"/>
     <use xlink:href="#SimHei-8fde" transform="translate(200 0)"/>
     <use xlink:href="#SimHei-63a5" transform="translate(300 0)"/>
     <use xlink:href="#SimHei-20" transform="translate(400 0)"/>
     <use xlink:href="#SimHei-2b" transform="translate(450 0)"/>
     <use xlink:href="#SimHei-20" transform="translate(500 0)"/>
     <use xlink:href="#SimHei-4c" transform="translate(550 0)"/>
     <use xlink:href="#SimHei-61" transform="translate(600 0)"/>
     <use xlink:href="#SimHei-79" transform="translate(650 0)"/>
     <use xlink:href="#SimHei-65" transform="translate(700 0)"/>
     <use xlink:href="#SimHei-72" transform="translate(750 0)"/>
     <use xlink:href="#SimHei-4e" transform="translate(800 0)"/>
     <use xlink:href="#SimHei-6f" transform="translate(850 0)"/>
     <use xlink:href="#SimHei-72" transform="translate(900 0)"/>
     <use xlink:href="#SimHei-6d" transform="translate(950 0)"/>
    </g>
   </g>
   <g id="text_7">
    <!-- 前馈神经网络 (FFN) -->
    <g transform="translate(374.4 343.065) scale(0.12 -0.12)">
     <defs>
      <path id="SimHei-524d" d="M 2075 -100 
Q 2400 -100 2537 -87 
Q 2675 -75 2675 100 
L 2675 875 
L 1325 875 
L 1325 -650 
L 800 -650 
Q 850 -200 850 350 
L 850 2350 
Q 850 2850 825 3300 
L 3175 3300 
Q 3150 2875 3150 2375 
L 3150 -150 
Q 3150 -400 2950 -475 
Q 2750 -550 2275 -625 
Q 2200 -350 2075 -100 
z
M 4950 5075 
Q 4825 4975 4687 4750 
Q 4550 4525 4375 4225 
L 5400 4225 
Q 5750 4225 6175 4250 
L 6175 3775 
Q 5775 3825 5300 3825 
L 1350 3825 
Q 700 3825 250 3775 
L 250 4250 
Q 775 4225 1350 4225 
L 3875 4225 
Q 4300 5025 4350 5300 
Q 4625 5150 4950 5075 
z
M 4375 -75 
Q 4825 -100 4937 -75 
Q 5050 -50 5050 150 
L 5050 2750 
Q 5050 3050 5025 3400 
L 5550 3400 
Q 5525 3075 5525 2750 
L 5525 -25 
Q 5525 -350 5362 -450 
Q 5200 -550 4600 -600 
Q 4550 -275 4375 -75 
z
M 3775 575 
Q 3800 950 3800 1225 
L 3800 2375 
Q 3800 2775 3775 3075 
L 4300 3075 
Q 4275 2775 4275 2375 
L 4275 1250 
Q 4275 875 4300 575 
L 3775 575 
z
M 2675 2250 
L 2675 2925 
L 1325 2925 
L 1325 2250 
L 2675 2250 
z
M 2675 1250 
L 2675 1875 
L 1325 1875 
L 1325 1250 
L 2675 1250 
z
M 2225 4300 
Q 2125 4575 1750 5050 
Q 2025 5175 2200 5300 
Q 2550 4850 2725 4550 
Q 2500 4450 2225 4300 
z
" transform="scale(0.015625)"/>
      <path id="SimHei-9988" d="M 4350 3375 
L 4350 2950 
L 5275 2950 
Q 5675 2950 6075 2975 
L 6075 2550 
Q 5700 2575 5275 2575 
L 3100 2575 
Q 2625 2575 2275 2550 
L 2275 2975 
Q 2675 2950 3075 2950 
L 3900 2950 
L 3900 3375 
L 2625 3375 
Q 2675 3775 2675 4025 
Q 2675 4300 2625 4650 
L 3900 4650 
Q 3900 4875 3875 5150 
L 4400 5150 
Q 4350 4825 4350 4650 
L 5675 4650 
Q 5650 4275 5650 4000 
Q 5650 3750 5675 3375 
L 4350 3375 
z
M 5200 725 
L 5200 1800 
L 3125 1800 
L 3125 625 
L 2625 625 
Q 2675 950 2675 1450 
Q 2675 1950 2625 2175 
L 5675 2175 
Q 5650 1950 5650 1450 
Q 5650 975 5675 725 
L 5200 725 
z
M 1475 2825 
Q 1425 2500 1425 2175 
L 1425 475 
Q 1600 625 1750 800 
Q 1900 975 2050 1100 
Q 2150 950 2325 700 
Q 2100 550 1800 250 
L 1175 -375 
Q 1000 -150 825 50 
Q 1000 375 975 725 
L 975 2175 
Q 975 2500 950 2825 
L 1475 2825 
z
M 1125 3775 
Q 1000 3575 900 3350 
Q 800 3125 675 2825 
Q 425 3050 200 3125 
Q 350 3350 500 3600 
Q 650 3850 762 4112 
Q 875 4375 937 4650 
Q 1000 4925 1050 5200 
Q 1150 5125 1300 5075 
Q 1450 5025 1675 4975 
Q 1500 4775 1412 4575 
Q 1325 4375 1250 4150 
L 2400 4150 
Q 2325 3950 2250 3662 
Q 2175 3375 2050 2975 
Q 1800 3050 1550 3075 
Q 1650 3275 1712 3450 
Q 1775 3625 1825 3775 
L 1125 3775 
z
M 4500 1525 
Q 4375 1350 4375 1075 
Q 4375 800 4262 500 
Q 4150 200 3787 -100 
Q 3425 -400 2575 -700 
Q 2500 -550 2400 -425 
Q 2300 -300 2150 -200 
Q 3500 0 3700 512 
Q 3900 1025 3900 1600 
Q 4125 1575 4500 1525 
z
M 5650 -600 
Q 5425 -375 5050 -137 
Q 4675 100 4350 300 
Q 4500 475 4650 600 
Q 4975 450 5275 275 
Q 5575 100 6075 -200 
Q 5825 -400 5650 -600 
z
M 5200 3750 
L 5200 4275 
L 4350 4275 
L 4350 3750 
L 5200 3750 
z
M 3900 3750 
L 3900 4275 
L 3100 4275 
L 3100 3750 
L 3900 3750 
z
" transform="scale(0.015625)"/>
      <path id="SimHei-795e" d="M 4125 4250 
Q 4125 4900 4100 5225 
L 4600 5225 
Q 4575 4800 4575 4250 
L 5925 4250 
Q 5900 3625 5900 2425 
Q 5900 1250 5925 675 
L 5425 675 
L 5425 1100 
L 4575 1100 
Q 4575 -50 4600 -675 
L 4100 -675 
Q 4125 -25 4125 1100 
L 3250 1100 
L 3250 550 
L 2775 550 
Q 2800 1200 2800 2400 
Q 2800 3600 2775 4250 
L 4125 4250 
z
M 2425 3925 
Q 2375 3725 2175 3300 
Q 1975 2875 1750 2475 
L 1750 2175 
Q 1900 2300 2050 2450 
Q 2300 2100 2575 1675 
Q 2350 1550 2175 1400 
Q 2075 1575 1750 2125 
L 1750 175 
Q 1750 -150 1775 -625 
L 1275 -625 
Q 1300 -150 1300 150 
L 1300 1950 
Q 1100 1675 575 1225 
Q 425 1400 225 1575 
Q 750 1975 1150 2475 
Q 1550 2975 1775 3525 
L 1150 3525 
Q 800 3525 400 3500 
L 400 3950 
Q 775 3925 1125 3925 
L 2425 3925 
z
M 4125 2875 
L 4125 3850 
L 3250 3850 
L 3250 2875 
L 4125 2875 
z
M 5425 2875 
L 5425 3850 
L 4575 3850 
L 4575 2875 
L 5425 2875 
z
M 4125 1525 
L 4125 2450 
L 3250 2450 
L 3250 1525 
L 4125 1525 
z
M 5425 1525 
L 5425 2450 
L 4575 2450 
L 4575 1525 
L 5425 1525 
z
M 1550 5225 
Q 1775 4925 2075 4450 
Q 1875 4350 1650 4150 
Q 1475 4525 1150 4975 
Q 1400 5100 1550 5225 
z
" transform="scale(0.015625)"/>
      <path id="SimHei-7ecf" d="M 2025 4750 
Q 1875 4550 1650 4175 
Q 1425 3800 925 3050 
Q 1100 3050 1900 3100 
Q 2175 3500 2375 3925 
Q 2575 3725 2850 3625 
Q 2600 3325 2250 2850 
Q 1900 2375 1200 1525 
Q 2175 1650 2600 1750 
Q 2575 1600 2575 1325 
Q 2350 1275 1750 1200 
Q 1150 1125 625 1000 
Q 600 1175 450 1450 
Q 725 1575 1012 1900 
Q 1300 2225 1625 2700 
Q 1350 2700 1037 2662 
Q 725 2625 525 2575 
Q 475 2750 325 3025 
Q 600 3200 950 3800 
Q 1300 4400 1525 5025 
Q 1700 4875 2025 4750 
z
M 4925 1875 
Q 5325 1875 5675 1900 
L 5675 1450 
Q 5350 1475 4950 1475 
L 4550 1475 
L 4550 0 
L 5275 0 
Q 5625 0 6025 25 
L 6025 -425 
Q 5625 -400 5275 -400 
L 3325 -400 
Q 3000 -400 2475 -425 
L 2475 25 
Q 3000 0 3325 0 
L 4075 0 
L 4075 1475 
L 3725 1475 
Q 3300 1475 2900 1450 
L 2900 1900 
Q 3300 1875 3725 1875 
L 4925 1875 
z
M 5500 4650 
Q 5375 4400 5175 4100 
Q 4975 3800 4650 3425 
Q 5750 2700 6100 2475 
Q 5900 2275 5725 2050 
Q 5400 2375 4400 3125 
Q 4075 2825 3737 2587 
Q 3400 2350 2825 2000 
Q 2675 2250 2475 2425 
Q 2900 2575 3237 2775 
Q 3575 2975 4025 3400 
Q 4475 3825 4750 4250 
L 3675 4250 
Q 3225 4250 2825 4225 
L 2825 4675 
Q 3225 4650 3675 4650 
L 5500 4650 
z
M 2650 650 
Q 2650 500 2675 225 
Q 2225 150 1637 25 
Q 1050 -100 575 -225 
Q 450 75 350 300 
Q 1050 375 1400 437 
Q 1750 500 2650 650 
z
" transform="scale(0.015625)"/>
      <path id="SimHei-7f51" d="M 5875 4900 
Q 5825 4575 5825 3975 
L 5825 0 
Q 5825 -400 5537 -462 
Q 5250 -525 4775 -600 
Q 4725 -350 4525 -50 
Q 5025 -75 5175 -25 
Q 5325 25 5325 250 
L 5325 4475 
L 1100 4475 
L 1100 -600 
L 550 -600 
Q 600 -100 600 250 
L 600 3975 
Q 600 4375 550 4900 
L 5875 4900 
z
M 3675 3525 
Q 4050 2800 4175 2600 
Q 4475 3625 4550 4050 
Q 4825 3900 5100 3775 
Q 4975 3600 4825 3150 
Q 4675 2700 4450 2100 
Q 4725 1575 5125 875 
Q 4850 800 4625 675 
L 4175 1575 
Q 4000 1225 3825 962 
Q 3650 700 3350 300 
Q 3175 500 2850 575 
Q 3075 800 3337 1125 
Q 3600 1450 3925 2075 
Q 3575 2800 3200 3300 
Q 3400 3375 3675 3525 
z
M 1725 3800 
Q 1875 3525 2037 3237 
Q 2200 2950 2375 2675 
Q 2675 3675 2725 4050 
Q 3000 3950 3325 3850 
Q 3175 3675 3050 3312 
Q 2925 2950 2650 2200 
Q 2875 1850 3200 1300 
Q 2950 1150 2775 975 
Q 2525 1500 2400 1700 
Q 1950 775 1600 325 
Q 1400 500 1175 575 
Q 1575 1000 2150 2175 
Q 1550 3250 1250 3600 
Q 1475 3700 1725 3800 
z
" transform="scale(0.015625)"/>
      <path id="SimHei-7edc" d="M 2400 3100 
Q 2675 3400 2850 3700 
Q 3025 4000 3187 4362 
Q 3350 4725 3450 5200 
Q 3725 5075 4050 5025 
Q 3900 4800 3725 4450 
L 5750 4450 
Q 5375 3700 5125 3325 
Q 4875 2950 4600 2650 
Q 4925 2425 5375 2275 
Q 5825 2125 6200 2050 
Q 6075 1850 5950 1525 
Q 5700 1600 5500 1675 
Q 5450 1325 5450 1025 
L 5450 125 
Q 5450 -250 5475 -650 
L 5000 -650 
L 5000 -175 
L 3500 -175 
L 3500 -700 
L 3025 -700 
Q 3050 -325 3050 0 
L 3050 1000 
Q 3050 1200 3025 1675 
Q 2875 1600 2600 1500 
Q 2500 1775 2325 1975 
Q 2700 2075 3162 2262 
Q 3625 2450 3900 2675 
Q 3575 3100 3350 3625 
Q 3075 3200 2800 2825 
Q 2650 2975 2400 3100 
z
M 1825 4725 
Q 1650 4500 1425 4037 
Q 1200 3575 900 3050 
L 1600 3050 
Q 1875 3575 2000 3975 
Q 2250 3775 2500 3650 
Q 2350 3475 2050 2937 
Q 1750 2400 1225 1525 
Q 1975 1650 2300 1700 
Q 2275 1375 2300 1225 
Q 1700 1150 1375 1087 
Q 1050 1025 625 925 
Q 550 1200 450 1400 
Q 700 1500 937 1850 
Q 1175 2200 1425 2700 
Q 750 2675 400 2525 
Q 325 2750 225 3025 
Q 525 3175 825 3787 
Q 1125 4400 1275 5000 
Q 1550 4825 1825 4725 
z
M 5000 225 
L 5000 1300 
L 3500 1300 
L 3500 225 
L 5000 225 
z
M 2375 700 
Q 2425 450 2425 250 
Q 2150 200 1637 25 
Q 1125 -150 650 -350 
Q 550 -50 425 200 
Q 1050 325 1462 425 
Q 1875 525 2375 700 
z
M 4275 2975 
Q 4425 3125 4637 3425 
Q 4850 3725 5000 4050 
L 3650 4050 
Q 3900 3425 4275 2975 
z
M 5475 1700 
Q 5125 1850 4812 2000 
Q 4500 2150 4225 2350 
Q 3925 2150 3662 2000 
Q 3400 1850 3075 1700 
L 5475 1700 
z
" transform="scale(0.015625)"/>
      <path id="SimHei-28" d="M 2975 -200 
L 2700 -475 
Q 2075 125 1762 775 
Q 1450 1425 1450 2250 
Q 1450 3075 1762 3725 
Q 2075 4375 2700 5000 
L 2975 4725 
Q 2400 4175 2112 3587 
Q 1825 3000 1825 2250 
Q 1825 1500 2112 912 
Q 2400 325 2975 -200 
z
" transform="scale(0.015625)"/>
      <path id="SimHei-46" d="M 2925 3925 
L 875 3925 
L 875 2525 
L 2425 2525 
L 2425 2050 
L 875 2050 
L 875 125 
L 300 125 
L 300 4400 
L 2925 4400 
L 2925 3925 
z
" transform="scale(0.015625)"/>
      <path id="SimHei-29" d="M 1675 2250 
Q 1675 1425 1362 775 
Q 1050 125 425 -475 
L 150 -200 
Q 725 325 1012 912 
Q 1300 1500 1300 2250 
Q 1300 3000 1012 3587 
Q 725 4175 150 4725 
L 425 5000 
Q 1050 4375 1362 3725 
Q 1675 3075 1675 2250 
z
" transform="scale(0.015625)"/>
     </defs>
     <use xlink:href="#SimHei-524d"/>
     <use xlink:href="#SimHei-9988" transform="translate(100 0)"/>
     <use xlink:href="#SimHei-795e" transform="translate(200 0)"/>
     <use xlink:href="#SimHei-7ecf" transform="translate(300 0)"/>
     <use xlink:href="#SimHei-7f51" transform="translate(400 0)"/>
     <use xlink:href="#SimHei-7edc" transform="translate(500 0)"/>
     <use xlink:href="#SimHei-20" transform="translate(600 0)"/>
     <use xlink:href="#SimHei-28" transform="translate(650 0)"/>
     <use xlink:href="#SimHei-46" transform="translate(700 0)"/>
     <use xlink:href="#SimHei-46" transform="translate(750 0)"/>
     <use xlink:href="#SimHei-4e" transform="translate(800 0)"/>
     <use xlink:href="#SimHei-29" transform="translate(850 0)"/>
    </g>
   </g>
   <g id="text_8">
    <!-- Linear(256→1024) → ReLU → Dropout → Linear(1024→256) -->
    <g transform="translate(300.15 365.173125) scale(0.09 -0.09)">
     <defs>
      <path id="SimHei-69" d="M 1800 3725 
L 1300 3725 
L 1300 4375 
L 1800 4375 
L 1800 3725 
z
M 1800 125 
L 1300 125 
L 1300 2925 
L 1800 2925 
L 1800 125 
z
" transform="scale(0.015625)"/>
      <path id="SimHei-6e" d="M 2800 125 
L 2300 125 
L 2300 1925 
Q 2300 2225 2150 2400 
Q 2000 2575 1750 2575 
Q 1425 2575 1137 2237 
Q 850 1900 850 1400 
L 850 125 
L 350 125 
L 350 2925 
L 850 2925 
L 850 2400 
Q 1050 2675 1287 2825 
Q 1525 2975 1900 2975 
Q 2350 2975 2575 2725 
Q 2800 2475 2800 2100 
L 2800 125 
z
" transform="scale(0.015625)"/>
      <path id="SimHei-32" d="M 300 250 
Q 325 625 650 925 
Q 975 1225 1475 1862 
Q 1975 2500 2125 2850 
Q 2275 3200 2237 3450 
Q 2200 3700 2000 3862 
Q 1800 4025 1537 4000 
Q 1275 3975 1037 3800 
Q 800 3625 675 3275 
L 200 3350 
Q 400 3925 712 4187 
Q 1025 4450 1450 4475 
Q 1700 4500 1900 4462 
Q 2100 4425 2312 4287 
Q 2525 4150 2662 3875 
Q 2800 3600 2762 3212 
Q 2725 2825 2375 2287 
Q 2025 1750 1025 600 
L 2825 600 
L 2825 150 
L 300 150 
L 300 250 
z
" transform="scale(0.015625)"/>
      <path id="SimHei-35" d="M 550 1325 
Q 725 650 1150 575 
Q 1575 500 1837 662 
Q 2100 825 2212 1087 
Q 2325 1350 2312 1675 
Q 2300 2000 2137 2225 
Q 1975 2450 1725 2525 
Q 1475 2600 1162 2525 
Q 850 2450 650 2175 
L 225 2225 
Q 275 2375 700 4375 
L 2675 4375 
L 2675 3925 
L 1075 3925 
Q 950 3250 825 2850 
Q 1200 3025 1525 3012 
Q 1850 3000 2150 2862 
Q 2450 2725 2587 2487 
Q 2725 2250 2787 2012 
Q 2850 1775 2837 1500 
Q 2825 1225 2725 937 
Q 2625 650 2425 462 
Q 2225 275 1937 162 
Q 1650 50 1275 75 
Q 900 100 562 350 
Q 225 600 100 1200 
L 550 1325 
z
" transform="scale(0.015625)"/>
      <path id="SimHei-36" d="M 250 1612 
Q 275 1975 387 2225 
Q 500 2475 725 2850 
L 1750 4450 
L 2325 4450 
L 1275 2800 
Q 1950 2975 2350 2750 
Q 2750 2525 2887 2237 
Q 3025 1950 3037 1612 
Q 3050 1275 2937 950 
Q 2825 625 2537 362 
Q 2250 100 1737 75 
Q 1225 50 862 262 
Q 500 475 362 862 
Q 225 1250 250 1612 
z
M 1025 787 
Q 1250 550 1625 525 
Q 2000 500 2250 775 
Q 2500 1050 2500 1575 
Q 2500 2100 2187 2300 
Q 1875 2500 1487 2450 
Q 1100 2400 925 2075 
Q 750 1750 775 1387 
Q 800 1025 1025 787 
z
" transform="scale(0.015625)"/>
      <path id="SimHei-2192" d="M 3900 4275 
L 5475 2300 
L 3900 400 
L 3900 1900 
L 400 1900 
L 400 2725 
L 3900 2725 
L 3900 4275 
z
" transform="scale(0.015625)"/>
      <path id="SimHei-31" d="M 1400 3600 
Q 1075 3275 575 2975 
L 575 3450 
Q 1200 3875 1600 4450 
L 1900 4450 
L 1900 150 
L 1400 150 
L 1400 3600 
z
" transform="scale(0.015625)"/>
      <path id="SimHei-30" d="M 225 2537 
Q 250 3200 412 3587 
Q 575 3975 875 4225 
Q 1175 4475 1612 4475 
Q 2050 4475 2375 4112 
Q 2700 3750 2800 3200 
Q 2900 2650 2862 1937 
Q 2825 1225 2612 775 
Q 2400 325 1975 150 
Q 1550 -25 1125 187 
Q 700 400 525 750 
Q 350 1100 275 1487 
Q 200 1875 225 2537 
z
M 750 2687 
Q 675 2000 800 1462 
Q 925 925 1212 700 
Q 1500 475 1800 612 
Q 2100 750 2237 1162 
Q 2375 1575 2375 2062 
Q 2375 2550 2337 2950 
Q 2300 3350 2112 3675 
Q 1925 4000 1612 4012 
Q 1300 4025 1062 3700 
Q 825 3375 750 2687 
z
" transform="scale(0.015625)"/>
      <path id="SimHei-34" d="M 2000 1100 
L 75 1100 
L 75 1525 
L 2100 4450 
L 2475 4450 
L 2475 1525 
L 3075 1525 
L 3075 1100 
L 2475 1100 
L 2475 150 
L 2000 150 
L 2000 1100 
z
M 2000 1525 
L 2000 3500 
L 600 1525 
L 2000 1525 
z
" transform="scale(0.015625)"/>
      <path id="SimHei-52" d="M 3000 125 
L 2400 125 
L 1500 1975 
L 850 1975 
L 850 125 
L 275 125 
L 275 4400 
L 1525 4400 
Q 2125 4400 2500 4112 
Q 2875 3825 2875 3175 
Q 2875 2675 2625 2400 
Q 2375 2125 2050 2050 
L 3000 125 
z
M 2300 3175 
Q 2300 3525 2087 3725 
Q 1875 3925 1400 3925 
L 850 3925 
L 850 2450 
L 1550 2450 
Q 1850 2450 2075 2612 
Q 2300 2775 2300 3175 
z
" transform="scale(0.015625)"/>
      <path id="SimHei-55" d="M 2875 1375 
Q 2875 775 2562 425 
Q 2250 75 1575 75 
Q 900 75 587 425 
Q 275 775 275 1375 
L 275 4400 
L 850 4400 
L 850 1375 
Q 850 950 1050 750 
Q 1250 550 1575 550 
Q 1900 550 2100 750 
Q 2300 950 2300 1375 
L 2300 4400 
L 2875 4400 
L 2875 1375 
z
" transform="scale(0.015625)"/>
      <path id="SimHei-44" d="M 2925 2250 
Q 2925 1100 2437 612 
Q 1950 125 1125 125 
L 275 125 
L 275 4400 
L 1125 4400 
Q 2050 4400 2487 3900 
Q 2925 3400 2925 2250 
z
M 2325 2250 
Q 2325 3175 2025 3550 
Q 1725 3925 1125 3925 
L 850 3925 
L 850 600 
L 1125 600 
Q 1725 600 2025 962 
Q 2325 1325 2325 2250 
z
" transform="scale(0.015625)"/>
      <path id="SimHei-70" d="M 2825 1525 
Q 2825 800 2475 425 
Q 2125 50 1625 50 
Q 1350 50 1150 162 
Q 950 275 800 500 
L 800 -800 
L 300 -800 
L 300 2925 
L 800 2925 
L 800 2550 
Q 950 2775 1150 2875 
Q 1350 2975 1625 2975 
Q 2125 2975 2475 2612 
Q 2825 2250 2825 1525 
z
M 2275 1525 
Q 2275 2000 2087 2262 
Q 1900 2525 1525 2525 
Q 1225 2525 1012 2262 
Q 800 2000 800 1525 
Q 800 1050 1012 775 
Q 1225 500 1525 500 
Q 1900 500 2087 775 
Q 2275 1050 2275 1525 
z
" transform="scale(0.015625)"/>
      <path id="SimHei-75" d="M 2800 125 
L 2300 125 
L 2300 650 
Q 2100 375 1862 225 
Q 1625 75 1250 75 
Q 800 75 575 325 
Q 350 575 350 950 
L 350 2925 
L 850 2925 
L 850 1125 
Q 850 825 1000 650 
Q 1150 475 1400 475 
Q 1725 475 2012 812 
Q 2300 1150 2300 1650 
L 2300 2925 
L 2800 2925 
L 2800 125 
z
" transform="scale(0.015625)"/>
      <path id="SimHei-74" d="M 2750 200 
Q 2625 150 2462 112 
Q 2300 75 2025 75 
Q 1575 75 1300 325 
Q 1025 575 1025 1025 
L 1025 2525 
L 175 2525 
L 175 2925 
L 1025 2925 
L 1025 3900 
L 1525 3900 
L 1525 2925 
L 2550 2925 
L 2550 2525 
L 1525 2525 
L 1525 1000 
Q 1525 800 1625 662 
Q 1725 525 2000 525 
Q 2275 525 2450 575 
Q 2625 625 2750 700 
L 2750 200 
z
" transform="scale(0.015625)"/>
     </defs>
     <use xlink:href="#SimHei-4c"/>
     <use xlink:href="#SimHei-69" transform="translate(50 0)"/>
     <use xlink:href="#SimHei-6e" transform="translate(100 0)"/>
     <use xlink:href="#SimHei-65" transform="translate(150 0)"/>
     <use xlink:href="#SimHei-61" transform="translate(200 0)"/>
     <use xlink:href="#SimHei-72" transform="translate(250 0)"/>
     <use xlink:href="#SimHei-28" transform="translate(300 0)"/>
     <use xlink:href="#SimHei-32" transform="translate(350 0)"/>
     <use xlink:href="#SimHei-35" transform="translate(400 0)"/>
     <use xlink:href="#SimHei-36" transform="translate(450 0)"/>
     <use xlink:href="#SimHei-2192" transform="translate(500 0)"/>
     <use xlink:href="#SimHei-31" transform="translate(600 0)"/>
     <use xlink:href="#SimHei-30" transform="translate(650 0)"/>
     <use xlink:href="#SimHei-32" transform="translate(700 0)"/>
     <use xlink:href="#SimHei-34" transform="translate(750 0)"/>
     <use xlink:href="#SimHei-29" transform="translate(800 0)"/>
     <use xlink:href="#SimHei-20" transform="translate(850 0)"/>
     <use xlink:href="#SimHei-2192" transform="translate(900 0)"/>
     <use xlink:href="#SimHei-20" transform="translate(1000 0)"/>
     <use xlink:href="#SimHei-52" transform="translate(1050 0)"/>
     <use xlink:href="#SimHei-65" transform="translate(1100 0)"/>
     <use xlink:href="#SimHei-4c" transform="translate(1150 0)"/>
     <use xlink:href="#SimHei-55" transform="translate(1200 0)"/>
     <use xlink:href="#SimHei-20" transform="translate(1250 0)"/>
     <use xlink:href="#SimHei-2192" transform="translate(1300 0)"/>
     <use xlink:href="#SimHei-20" transform="translate(1400 0)"/>
     <use xlink:href="#SimHei-44" transform="translate(1450 0)"/>
     <use xlink:href="#SimHei-72" transform="translate(1500 0)"/>
     <use xlink:href="#SimHei-6f" transform="translate(1550 0)"/>
     <use xlink:href="#SimHei-70" transform="translate(1600 0)"/>
     <use xlink:href="#SimHei-6f" transform="translate(1650 0)"/>
     <use xlink:href="#SimHei-75" transform="translate(1700 0)"/>
     <use xlink:href="#SimHei-74" transform="translate(1750 0)"/>
     <use xlink:href="#SimHei-20" transform="translate(1800 0)"/>
     <use xlink:href="#SimHei-2192" transform="translate(1850 0)"/>
     <use xlink:href="#SimHei-20" transform="translate(1950 0)"/>
     <use xlink:href="#SimHei-4c" transform="translate(2000 0)"/>
     <use xlink:href="#SimHei-69" transform="translate(2050 0)"/>
     <use xlink:href="#SimHei-6e" transform="translate(2100 0)"/>
     <use xlink:href="#SimHei-65" transform="translate(2150 0)"/>
     <use xlink:href="#SimHei-61" transform="translate(2200 0)"/>
     <use xlink:href="#SimHei-72" transform="translate(2250 0)"/>
     <use xlink:href="#SimHei-28" transform="translate(2300 0)"/>
     <use xlink:href="#SimHei-31" transform="translate(2350 0)"/>
     <use xlink:href="#SimHei-30" transform="translate(2400 0)"/>
     <use xlink:href="#SimHei-32" transform="translate(2450 0)"/>
     <use xlink:href="#SimHei-34" transform="translate(2500 0)"/>
     <use xlink:href="#SimHei-2192" transform="translate(2550 0)"/>
     <use xlink:href="#SimHei-32" transform="translate(2650 0)"/>
     <use xlink:href="#SimHei-35" transform="translate(2700 0)"/>
     <use xlink:href="#SimHei-36" transform="translate(2750 0)"/>
     <use xlink:href="#SimHei-29" transform="translate(2800 0)"/>
    </g>
   </g>
   <g id="text_9">
    <!-- 残差连接 + LayerNorm -->
    <g transform="translate(378.4 447.157031) scale(0.1 -0.1)">
     <use xlink:href="#SimHei-6b8b"/>
     <use xlink:href="#SimHei-5dee" transform="translate(100 0)"/>
     <use xlink:href="#SimHei-8fde" transform="translate(200 0)"/>
     <use xlink:href="#SimHei-63a5" transform="translate(300 0)"/>
     <use xlink:href="#SimHei-20" transform="translate(400 0)"/>
     <use xlink:href="#SimHei-2b" transform="translate(450 0)"/>
     <use xlink:href="#SimHei-20" transform="translate(500 0)"/>
     <use xlink:href="#SimHei-4c" transform="translate(550 0)"/>
     <use xlink:href="#SimHei-61" transform="translate(600 0)"/>
     <use xlink:href="#SimHei-79" transform="translate(650 0)"/>
     <use xlink:href="#SimHei-65" transform="translate(700 0)"/>
     <use xlink:href="#SimHei-72" transform="translate(750 0)"/>
     <use xlink:href="#SimHei-4e" transform="translate(800 0)"/>
     <use xlink:href="#SimHei-6f" transform="translate(850 0)"/>
     <use xlink:href="#SimHei-72" transform="translate(900 0)"/>
     <use xlink:href="#SimHei-6d" transform="translate(950 0)"/>
    </g>
   </g>
   <g id="text_10">
    <!-- 输出 -->
    <g transform="translate(416.4 540.921562) scale(0.12 -0.12)">
     <defs>
      <path id="SimHei-51fa" d="M 1475 4550 
Q 1450 4225 1450 3950 
L 1450 2950 
L 2925 2950 
L 2925 4425 
Q 2925 4775 2900 5125 
L 3425 5125 
Q 3400 4825 3400 4425 
L 3400 2950 
L 4900 2950 
L 4900 3875 
Q 4900 4275 4875 4525 
L 5400 4525 
Q 5375 4275 5375 3850 
L 5375 3175 
Q 5375 2775 5400 2525 
L 3400 2525 
L 3400 225 
L 5125 225 
L 5125 1275 
Q 5125 1650 5100 1925 
L 5625 1925 
Q 5600 1650 5600 1300 
L 5600 175 
Q 5600 -325 5625 -650 
L 5125 -650 
L 5125 -200 
L 675 -200 
Q 700 100 700 525 
L 700 1275 
Q 700 1700 675 1950 
L 1200 1950 
Q 1175 1700 1175 1275 
L 1175 225 
L 2925 225 
L 2925 2525 
L 950 2525 
Q 975 2775 975 3150 
L 975 3925 
Q 975 4250 950 4550 
L 1475 4550 
z
" transform="scale(0.015625)"/>
     </defs>
     <use xlink:href="#SimHei-8f93"/>
     <use xlink:href="#SimHei-51fa" transform="translate(100 0)"/>
    </g>
   </g>
   <g id="patch_11">
    <path d="M 428.4 96.499915 
Q 428.4 109.049252 428.4 119.362522 
" style="fill: none; stroke: #000000; stroke-width: 2; stroke-linecap: round"/>
    <path d="M 430.4 115.362522 
L 428.4 119.362522 
L 426.4 115.362522 
" style="fill: none; stroke: #000000; stroke-width: 2; stroke-linecap: round"/>
   </g>
   <g id="patch_12">
    <path d="M 428.4 125.600803 
Q 428.4 167.2495 428.4 206.662129 
" style="fill: none; stroke: #000000; stroke-width: 2; stroke-linecap: round"/>
    <path d="M 430.4 202.662129 
L 428.4 206.662129 
L 426.4 202.662129 
" style="fill: none; stroke: #000000; stroke-width: 2; stroke-linecap: round"/>
   </g>
   <g id="patch_13">
    <path d="M 428.4 212.904177 
Q 428.4 231.272012 428.4 247.403779 
" style="fill: none; stroke: #000000; stroke-width: 2; stroke-linecap: round"/>
    <path d="M 430.4 243.403779 
L 428.4 247.403779 
L 426.4 243.403779 
" style="fill: none; stroke: #000000; stroke-width: 2; stroke-linecap: round"/>
   </g>
   <g id="patch_14">
    <path d="M 428.4 288.559915 
Q 428.4 301.109252 428.4 311.422522 
" style="fill: none; stroke: #000000; stroke-width: 2; stroke-linecap: round"/>
    <path d="M 430.4 307.422522 
L 428.4 311.422522 
L 426.4 307.422522 
" style="fill: none; stroke: #000000; stroke-width: 2; stroke-linecap: round"/>
   </g>
   <g id="patch_15">
    <path d="M 428.4 387.504177 
Q 428.4 405.872012 428.4 422.003779 
" style="fill: none; stroke: #000000; stroke-width: 2; stroke-linecap: round"/>
    <path d="M 430.4 418.003779 
L 428.4 422.003779 
L 426.4 418.003779 
" style="fill: none; stroke: #000000; stroke-width: 2; stroke-linecap: round"/>
   </g>
   <g id="patch_16">
    <path d="M 428.4 463.158138 
Q 428.4 487.348136 428.4 509.302065 
" style="fill: none; stroke: #000000; stroke-width: 2; stroke-linecap: round"/>
    <path d="M 430.4 505.302065 
L 428.4 509.302065 
L 426.4 505.302065 
" style="fill: none; stroke: #000000; stroke-width: 2; stroke-linecap: round"/>
   </g>
   <g id="patch_17">
    <path d="M 637.983576 171.884083 
Q 610.334315 219.630188 637.143371 265.925021 
" style="fill: none; stroke: #ff0000; stroke-width: 1.5; stroke-linecap: round"/>
    <path d="M 636.869588 261.461273 
L 637.143371 265.925021 
L 633.408103 263.465798 
" style="fill: none; stroke: #ff0000; stroke-width: 1.5; stroke-linecap: round"/>
   </g>
   <g id="patch_18">
    <path d="M 637.98419 352.304971 
Q 612.078637 397.142031 637.147496 440.52702 
" style="fill: none; stroke: #ff0000; stroke-width: 1.5; stroke-linecap: round"/>
    <path d="M 636.877963 436.063014 
L 637.147496 440.52702 
L 633.414572 438.064243 
" style="fill: none; stroke: #ff0000; stroke-width: 1.5; stroke-linecap: round"/>
   </g>
   <g id="text_11">
    <!-- Transformer Block 详细结构 -->
    <g transform="translate(324.4 41.7375) scale(0.16 -0.16)">
     <defs>
      <path id="SimHei-54" d="M 2850 3925 
L 1850 3925 
L 1850 125 
L 1275 125 
L 1275 3925 
L 275 3925 
L 275 4400 
L 2850 4400 
L 2850 3925 
z
" transform="scale(0.015625)"/>
      <path id="SimHei-73" d="M 2750 900 
Q 2750 500 2437 287 
Q 2125 75 1650 75 
Q 1050 75 725 312 
Q 400 550 400 1000 
L 900 1000 
Q 900 700 1112 600 
Q 1325 500 1625 500 
Q 1925 500 2075 612 
Q 2225 725 2225 900 
Q 2225 1025 2100 1150 
Q 1975 1275 1475 1350 
Q 900 1425 687 1637 
Q 475 1850 475 2200 
Q 475 2500 762 2737 
Q 1050 2975 1600 2975 
Q 2100 2975 2387 2750 
Q 2675 2525 2675 2150 
L 2175 2150 
Q 2175 2375 2012 2462 
Q 1850 2550 1600 2550 
Q 1275 2550 1137 2437 
Q 1000 2325 1000 2175 
Q 1000 2000 1125 1900 
Q 1250 1800 1650 1750 
Q 2300 1650 2525 1437 
Q 2750 1225 2750 900 
z
" transform="scale(0.015625)"/>
      <path id="SimHei-66" d="M 2850 3825 
Q 2725 3900 2550 3950 
Q 2375 4000 2100 4000 
Q 1825 4000 1725 3862 
Q 1625 3725 1625 3525 
L 1625 2925 
L 2650 2925 
L 2650 2525 
L 1625 2525 
L 1625 125 
L 1125 125 
L 1125 2525 
L 275 2525 
L 275 2925 
L 1125 2925 
L 1125 3500 
Q 1125 3950 1400 4200 
Q 1675 4450 2125 4450 
Q 2400 4450 2562 4412 
Q 2725 4375 2850 4325 
L 2850 3825 
z
" transform="scale(0.015625)"/>
      <path id="SimHei-42" d="M 2950 1400 
Q 2950 675 2550 400 
Q 2150 125 1525 125 
L 275 125 
L 275 4400 
L 1575 4400 
Q 2200 4400 2512 4075 
Q 2825 3750 2825 3300 
Q 2825 2850 2612 2637 
Q 2400 2425 2175 2350 
Q 2475 2275 2712 2037 
Q 2950 1800 2950 1400 
z
M 2250 3300 
Q 2250 3625 2062 3775 
Q 1875 3925 1600 3925 
L 850 3925 
L 850 2600 
L 1575 2600 
Q 1850 2600 2050 2762 
Q 2250 2925 2250 3300 
z
M 2350 1400 
Q 2350 1800 2087 1962 
Q 1825 2125 1500 2125 
L 850 2125 
L 850 600 
L 1425 600 
Q 1875 600 2112 775 
Q 2350 950 2350 1400 
z
" transform="scale(0.015625)"/>
      <path id="SimHei-6c" d="M 1825 125 
L 1325 125 
L 1325 4400 
L 1825 4400 
L 1825 125 
z
" transform="scale(0.015625)"/>
      <path id="SimHei-63" d="M 2850 1250 
Q 2850 725 2487 400 
Q 2125 75 1575 75 
Q 1025 75 625 462 
Q 225 850 225 1525 
Q 225 2200 625 2587 
Q 1025 2975 1575 2975 
Q 2125 2975 2450 2687 
Q 2775 2400 2775 2000 
L 2225 2000 
Q 2200 2300 2012 2412 
Q 1825 2525 1575 2525 
Q 1275 2525 1025 2287 
Q 775 2050 775 1525 
Q 775 1000 1025 762 
Q 1275 525 1575 525 
Q 1900 525 2100 700 
Q 2300 875 2300 1250 
L 2850 1250 
z
" transform="scale(0.015625)"/>
      <path id="SimHei-6b" d="M 2925 125 
L 2350 125 
L 1450 1650 
L 875 1100 
L 875 125 
L 375 125 
L 375 4400 
L 875 4400 
L 875 1675 
L 2125 2925 
L 2750 2925 
L 1775 1975 
L 2925 125 
z
" transform="scale(0.015625)"/>
      <path id="SimHei-8be6" d="M 4325 4025 
Q 4625 4850 4725 5275 
Q 5025 5150 5325 5100 
Q 5150 4925 5012 4600 
Q 4875 4275 4775 4025 
Q 5500 4025 6000 4050 
L 6000 3600 
Q 5550 3625 4350 3625 
L 4350 2600 
Q 5425 2600 5850 2650 
L 5850 2175 
Q 5350 2200 4350 2200 
L 4350 1150 
Q 5725 1150 6175 1175 
L 6175 725 
Q 5750 750 4350 750 
Q 4350 -125 4375 -675 
L 3825 -675 
Q 3850 -75 3850 750 
Q 2725 750 2350 725 
L 2350 1175 
Q 2750 1150 3850 1150 
L 3850 2200 
Q 2900 2200 2500 2175 
L 2500 2650 
Q 2875 2600 3850 2600 
L 3850 3625 
Q 2725 3625 2325 3600 
L 2325 4050 
Q 2725 4025 3175 4025 
L 4325 4025 
z
M 1550 3250 
Q 1525 2750 1525 2400 
L 1525 525 
Q 1750 800 1925 1000 
Q 2025 750 2150 550 
Q 1850 300 1625 62 
Q 1400 -175 1200 -425 
Q 1050 -225 825 -50 
Q 1050 150 1050 400 
L 1050 2850 
Q 650 2850 225 2825 
L 225 3275 
Q 650 3250 825 3250 
L 1550 3250 
z
M 1175 5025 
Q 1600 4475 1850 4125 
Q 1625 4000 1400 3825 
Q 1050 4425 750 4750 
Q 1025 4875 1175 5025 
z
M 3275 5250 
Q 3600 4650 3750 4325 
Q 3500 4250 3300 4125 
Q 2975 4850 2825 5050 
L 3275 5250 
z
" transform="scale(0.015625)"/>
      <path id="SimHei-7ec6" d="M 5950 4475 
Q 5925 4075 5925 3700 
L 5925 500 
Q 5925 225 5950 -450 
L 5450 -450 
L 5450 25 
L 3300 25 
L 3300 -500 
L 2825 -500 
Q 2850 -150 2850 400 
L 2850 3625 
Q 2850 4075 2825 4475 
L 5950 4475 
z
M 2000 4900 
Q 1800 4675 1562 4212 
Q 1325 3750 975 3200 
Q 1325 3200 1775 3225 
Q 2000 3675 2125 4025 
Q 2375 3850 2625 3775 
Q 2500 3575 2062 2837 
Q 1625 2100 1225 1625 
Q 2075 1700 2525 1750 
Q 2425 1550 2400 1300 
Q 2175 1300 1587 1237 
Q 1000 1175 700 1100 
Q 600 1375 500 1550 
Q 825 1800 1050 2087 
Q 1275 2375 1550 2825 
Q 1300 2825 1037 2787 
Q 775 2750 550 2650 
Q 475 2925 325 3125 
Q 600 3375 925 3962 
Q 1250 4550 1450 5150 
Q 1700 4975 2000 4900 
z
M 5450 425 
L 5450 2125 
L 4575 2125 
L 4575 425 
L 5450 425 
z
M 4125 425 
L 4125 2125 
L 3300 2125 
L 3300 425 
L 4125 425 
z
M 5450 2500 
L 5450 4075 
L 4575 4075 
L 4575 2500 
L 5450 2500 
z
M 4125 2500 
L 4125 4075 
L 3300 4075 
L 3300 2500 
L 4125 2500 
z
M 2625 675 
Q 2575 425 2575 200 
Q 2075 125 1487 -25 
Q 900 -175 525 -300 
Q 475 -75 350 225 
Q 900 325 1425 425 
Q 1950 525 2625 675 
z
" transform="scale(0.015625)"/>
      <path id="SimHei-7ed3" d="M 5725 1925 
Q 5700 1600 5700 1200 
L 5700 350 
Q 5700 -125 5725 -475 
L 5225 -475 
L 5225 0 
L 3525 0 
L 3525 -525 
L 3025 -525 
Q 3050 125 3050 325 
L 3050 1250 
Q 3050 1550 3025 1925 
L 5725 1925 
z
M 1900 4850 
Q 1700 4600 1475 4200 
Q 1250 3800 925 3200 
Q 1475 3225 1725 3225 
Q 1950 3625 2100 4000 
Q 2350 3825 2650 3675 
Q 2525 3575 2212 3125 
Q 1900 2675 1225 1650 
Q 2050 1775 2525 1850 
Q 2450 1575 2450 1375 
Q 2225 1350 1650 1275 
Q 1075 1200 525 1050 
Q 425 1300 350 1550 
Q 650 1625 950 2012 
Q 1250 2400 1475 2825 
Q 1300 2825 962 2787 
Q 625 2750 375 2675 
Q 300 2925 225 3150 
Q 500 3375 812 3925 
Q 1125 4475 1300 5125 
Q 1600 4975 1900 4850 
z
M 4075 4175 
Q 4075 4600 4050 5175 
L 4575 5175 
Q 4550 4725 4550 4175 
L 5275 4175 
Q 5750 4175 6150 4200 
L 6150 3750 
Q 5750 3775 5300 3775 
L 4550 3775 
L 4550 2950 
L 5125 2950 
Q 5475 2950 5825 2975 
L 5825 2525 
Q 5525 2550 5100 2550 
L 3650 2550 
Q 3225 2550 2900 2525 
L 2900 2975 
Q 3225 2950 3600 2950 
L 4075 2950 
L 4075 3775 
L 3525 3775 
Q 3075 3775 2675 3750 
L 2675 4200 
Q 3000 4175 3475 4175 
L 4075 4175 
z
M 5225 400 
L 5225 1525 
L 3525 1525 
L 3525 400 
L 5225 400 
z
M 2575 650 
Q 2500 425 2525 175 
Q 2050 100 1450 0 
Q 850 -100 425 -225 
Q 325 100 225 350 
Q 750 375 1175 437 
Q 1600 500 2575 650 
z
" transform="scale(0.015625)"/>
      <path id="SimHei-6784" d="M 2250 1625 
Q 2050 2100 1825 2475 
L 1825 575 
Q 1825 50 1850 -500 
L 1325 -500 
Q 1350 75 1350 575 
L 1350 2375 
Q 1075 1750 525 1000 
Q 375 1200 175 1400 
Q 625 1900 912 2512 
Q 1200 3125 1250 3500 
Q 850 3500 475 3475 
L 475 3925 
Q 850 3900 1350 3900 
L 1350 4475 
Q 1350 4850 1325 5150 
L 1850 5150 
Q 1825 4900 1825 4475 
L 1825 3900 
Q 2150 3900 2525 3925 
L 2525 3475 
Q 2150 3500 1825 3500 
L 1825 2525 
Q 2025 2625 2225 2750 
Q 2475 2300 2700 1875 
Q 2475 1775 2250 1625 
z
M 4000 5050 
Q 3875 4875 3762 4625 
Q 3650 4375 3550 4125 
L 6025 4125 
Q 6000 3750 5975 3200 
Q 5975 1675 5875 350 
Q 5775 -200 5462 -337 
Q 5150 -475 4500 -525 
Q 4450 -250 4300 50 
Q 4825 25 5100 75 
Q 5375 125 5425 725 
Q 5525 2125 5500 3700 
L 3375 3700 
Q 3150 3200 2875 2750 
Q 2675 2900 2450 2975 
Q 2825 3525 3075 4150 
Q 3325 4775 3425 5250 
Q 3725 5100 4000 5050 
z
M 4450 1050 
Q 4175 1025 3662 950 
Q 3150 875 2800 725 
Q 2700 1025 2575 1300 
Q 2725 1350 2925 1675 
Q 3125 2000 3250 2337 
Q 3375 2675 3500 3150 
Q 3800 3025 4075 2875 
Q 3925 2725 3637 2162 
Q 3350 1600 3175 1350 
Q 3725 1375 4375 1425 
Q 4275 1775 4125 2175 
L 4625 2325 
Q 4775 1900 4900 1525 
Q 5025 1150 5075 800 
Q 4800 750 4550 650 
Q 4500 875 4450 1050 
z
" transform="scale(0.015625)"/>
     </defs>
     <use xlink:href="#SimHei-54"/>
     <use xlink:href="#SimHei-72" transform="translate(50 0)"/>
     <use xlink:href="#SimHei-61" transform="translate(100 0)"/>
     <use xlink:href="#SimHei-6e" transform="translate(150 0)"/>
     <use xlink:href="#SimHei-73" transform="translate(200 0)"/>
     <use xlink:href="#SimHei-66" transform="translate(250 0)"/>
     <use xlink:href="#SimHei-6f" transform="translate(300 0)"/>
     <use xlink:href="#SimHei-72" transform="translate(350 0)"/>
     <use xlink:href="#SimHei-6d" transform="translate(400 0)"/>
     <use xlink:href="#SimHei-65" transform="translate(450 0)"/>
     <use xlink:href="#SimHei-72" transform="translate(500 0)"/>
     <use xlink:href="#SimHei-20" transform="translate(550 0)"/>
     <use xlink:href="#SimHei-42" transform="translate(600 0)"/>
     <use xlink:href="#SimHei-6c" transform="translate(650 0)"/>
     <use xlink:href="#SimHei-6f" transform="translate(700 0)"/>
     <use xlink:href="#SimHei-63" transform="translate(750 0)"/>
     <use xlink:href="#SimHei-6b" transform="translate(800 0)"/>
     <use xlink:href="#SimHei-20" transform="translate(850 0)"/>
     <use xlink:href="#SimHei-8be6" transform="translate(900 0)"/>
     <use xlink:href="#SimHei-7ec6" transform="translate(1000 0)"/>
     <use xlink:href="#SimHei-7ed3" transform="translate(1100 0)"/>
     <use xlink:href="#SimHei-6784" transform="translate(1200 0)"/>
    </g>
   </g>
   <g id="text_12">
    <!-- 残差连接 -->
    <g style="fill: #ff0000" transform="translate(705.24 272.211328) scale(0.09 -0.09)">
     <use xlink:href="#SimHei-6b8b"/>
     <use xlink:href="#SimHei-5dee" transform="translate(100 0)"/>
     <use xlink:href="#SimHei-8fde" transform="translate(200 0)"/>
     <use xlink:href="#SimHei-63a5" transform="translate(300 0)"/>
    </g>
   </g>
   <g id="text_13">
    <!-- 残差连接 -->
    <g style="fill: #ff0000" transform="translate(705.24 446.811328) scale(0.09 -0.09)">
     <use xlink:href="#SimHei-6b8b"/>
     <use xlink:href="#SimHei-5dee" transform="translate(100 0)"/>
     <use xlink:href="#SimHei-8fde" transform="translate(200 0)"/>
     <use xlink:href="#SimHei-63a5" transform="translate(300 0)"/>
    </g>
   </g>
  </g>
 </g>
 <defs>
  <clipPath id="p857f2ddae4">
   <rect x="7.2" y="7.2" width="842.4" height="698.4"/>
  </clipPath>
 </defs>
</svg>
